%TF.GenerationSoftware,KiCad,Pcbnew,9.0.7*%
%TF.CreationDate,2026-02-19T23:55:45-05:00*%
%TF.ProjectId,usb_c_sensor_breakout,7573625f-635f-4736-956e-736f725f6272,rev?*%
%TF.SameCoordinates,Original*%
%TF.FileFunction,Copper,L2,Bot*%
%TF.FilePolarity,Positive*%
%FSLAX46Y46*%
G04 Gerber Fmt 4.6, Leading zero omitted, Abs format (unit mm)*
G04 Created by KiCad (PCBNEW 9.0.7) date 2026-02-19 23:55:45*
%MOMM*%
%LPD*%
G01*
G04 APERTURE LIST*
%TA.AperFunction,ComponentPad*%
%ADD10R,1.700000X1.700000*%
%TD*%
%TA.AperFunction,ComponentPad*%
%ADD11C,1.700000*%
%TD*%
%TA.AperFunction,HeatsinkPad*%
%ADD12O,1.000000X1.700000*%
%TD*%
%TA.AperFunction,ViaPad*%
%ADD13C,0.600000*%
%TD*%
%TA.AperFunction,Conductor*%
%ADD14C,0.250000*%
%TD*%
%TA.AperFunction,Conductor*%
%ADD15C,0.200000*%
%TD*%
%TA.AperFunction,Conductor*%
%ADD16C,0.300000*%
%TD*%
%TA.AperFunction,Conductor*%
%ADD17C,0.600000*%
%TD*%
G04 APERTURE END LIST*
D10*
%TO.P,J4,1,Pin_1*%
%TO.N,/+3V3*%
X154080000Y-82000000D03*
D11*
%TO.P,J4,2,Pin_2*%
%TO.N,GND*%
X151540000Y-82000000D03*
%TO.P,J4,3,Pin_3*%
%TO.N,/CONNECTORS/I2C_SCL*%
X149000000Y-82000000D03*
%TO.P,J4,4,Pin_4*%
%TO.N,/CONNECTORS/I2C_SDA*%
X146460000Y-82000000D03*
%TD*%
D10*
%TO.P,J3,1,Pin_1*%
%TO.N,/CONNECTORS/UART_TX*%
X146460000Y-77000000D03*
D11*
%TO.P,J3,2,Pin_2*%
%TO.N,/CONNECTORS/UART_RX*%
X149000000Y-77000000D03*
%TO.P,J3,3,Pin_3*%
%TO.N,GND*%
X151540000Y-77000000D03*
%TO.P,J3,4,Pin_4*%
%TO.N,/+3V3*%
X154080000Y-77000000D03*
%TD*%
D10*
%TO.P,J5,1,Pin_1*%
%TO.N,/CONNECTORS/SWDIO*%
X143960000Y-87000000D03*
D11*
%TO.P,J5,2,Pin_2*%
%TO.N,/CONNECTORS/SWCLK*%
X146500000Y-87000000D03*
%TO.P,J5,3,Pin_3*%
%TO.N,/CONNECTORS/NRST*%
X149040000Y-87000000D03*
%TO.P,J5,4,Pin_4*%
%TO.N,/+3V3*%
X151580000Y-87000000D03*
%TO.P,J5,5,Pin_5*%
%TO.N,GND*%
X154120000Y-87000000D03*
%TD*%
D12*
%TO.P,J1,S1,SHIELD*%
%TO.N,unconnected-(J1-SHIELD-PadS1)*%
X133500000Y-69550000D03*
%TO.N,unconnected-(J1-SHIELD-PadS1)_1*%
X133500000Y-65750000D03*
%TO.N,unconnected-(J1-SHIELD-PadS1)_2*%
X124860000Y-69550000D03*
%TO.N,unconnected-(J1-SHIELD-PadS1)_3*%
X124860000Y-65750000D03*
%TD*%
D13*
%TO.N,GND*%
X154000000Y-84500000D03*
%TO.N,/CONNECTORS/NRST*%
X148375000Y-70000000D03*
X147000000Y-71550000D03*
%TO.N,GND*%
X129500000Y-77000000D03*
X143000000Y-71000000D03*
%TO.N,/CONNECTORS/I2C_SDA*%
X139000000Y-85475000D03*
%TO.N,GND*%
X135000000Y-86500000D03*
X132469614Y-87530386D03*
X126430000Y-71000000D03*
X131500000Y-71500000D03*
X133000000Y-78000000D03*
X143000000Y-67000000D03*
X148000000Y-68350000D03*
%TO.N,/CONNECTORS/I2C_SDA*%
X148500000Y-65000000D03*
%TO.N,/CONNECTORS/NRST*%
X149500000Y-69000000D03*
%TO.N,/CONNECTORS/SWCLK*%
X154500000Y-64000000D03*
%TO.N,/CONNECTORS/SWDIO*%
X152929996Y-65929997D03*
%TO.N,GND*%
X138000000Y-84000000D03*
X136750000Y-86250000D03*
%TO.N,/CONNECTORS/I2C_SCL*%
X149500000Y-65000000D03*
X144401000Y-82000000D03*
X139000000Y-86275003D03*
X141644975Y-83655025D03*
%TO.N,/CONNECTORS/I2C_SDA*%
X140815686Y-82684314D03*
X143000000Y-79200000D03*
%TO.N,GND*%
X124500000Y-71850000D03*
%TD*%
D14*
%TO.N,/CONNECTORS/I2C_SDA*%
X144000000Y-68625000D02*
X147625000Y-65000000D01*
X147625000Y-65000000D02*
X148500000Y-65000000D01*
X143000000Y-79200000D02*
X144000000Y-78200000D01*
X144000000Y-78200000D02*
X144000000Y-68625000D01*
%TO.N,/CONNECTORS/I2C_SCL*%
X149500000Y-65500000D02*
X149500000Y-65000000D01*
X149000000Y-66000000D02*
X149500000Y-65500000D01*
X149000000Y-68614702D02*
X149000000Y-66000000D01*
X148874000Y-69259298D02*
X148874000Y-68740702D01*
X149000000Y-69385298D02*
X148874000Y-69259298D01*
X149000000Y-75336884D02*
X149000000Y-69385298D01*
X147824000Y-76512884D02*
X149000000Y-75336884D01*
X147824000Y-77487116D02*
X147824000Y-76512884D01*
X144401000Y-82000000D02*
X144401000Y-81599000D01*
X148168442Y-77831558D02*
X147824000Y-77487116D01*
X148874000Y-68740702D02*
X149000000Y-68614702D01*
X144401000Y-81599000D02*
X148168442Y-77831558D01*
D15*
%TO.N,/CONNECTORS/NRST*%
X152635285Y-82532475D02*
X152904000Y-82801190D01*
X152691000Y-81523240D02*
X152691000Y-82476760D01*
X152635285Y-81467525D02*
X152691000Y-81523240D01*
X152904000Y-81198810D02*
X152635285Y-81467525D01*
X152691000Y-82476760D02*
X152635285Y-82532475D01*
D14*
X152716000Y-83324000D02*
X149040000Y-87000000D01*
X152904000Y-82801190D02*
X152716000Y-82989190D01*
X152716000Y-81010810D02*
X152904000Y-81198810D01*
X152716000Y-80027116D02*
X152716000Y-81010810D01*
X155256000Y-77487116D02*
X152716000Y-80027116D01*
X155256000Y-65874313D02*
X155256000Y-77487116D01*
X154054770Y-64569468D02*
X154054770Y-64673083D01*
X153688068Y-64202766D02*
X154054770Y-64569468D01*
X153169472Y-64202766D02*
X153688068Y-64202766D01*
X152716000Y-82989190D02*
X152716000Y-83324000D01*
X152802770Y-64697230D02*
X152802770Y-64569468D01*
X152802770Y-64569468D02*
X153169472Y-64202766D01*
X149500000Y-68000000D02*
X152802770Y-64697230D01*
X149500000Y-69000000D02*
X149500000Y-68000000D01*
X154054770Y-64673083D02*
X155256000Y-65874313D01*
D16*
%TO.N,/CONNECTORS/SWCLK*%
X149552653Y-84947347D02*
X149552653Y-85814181D01*
X151000000Y-83500000D02*
X149552653Y-84947347D01*
D14*
X151000000Y-83500000D02*
X150000000Y-83500000D01*
X150000000Y-83500000D02*
X146500000Y-87000000D01*
X148552884Y-85824000D02*
X149527116Y-85824000D01*
X147864000Y-86512884D02*
X148552884Y-85824000D01*
X147864000Y-87487116D02*
X147864000Y-86512884D01*
X149527116Y-88176000D02*
X148552884Y-88176000D01*
X150216000Y-87487116D02*
X149527116Y-88176000D01*
X150190463Y-86487347D02*
X150216000Y-86512884D01*
X153167000Y-83510810D02*
X150190463Y-86487347D01*
X153167000Y-83176000D02*
X153167000Y-83510810D01*
X153167000Y-80213926D02*
X153167000Y-80824000D01*
X155256000Y-80824000D02*
X155256000Y-83176000D01*
X155707000Y-77673926D02*
X153167000Y-80213926D01*
X153167000Y-80824000D02*
X155256000Y-80824000D01*
X154505770Y-64382658D02*
X154505770Y-64486273D01*
X150216000Y-86512884D02*
X150216000Y-87487116D01*
X155707000Y-65687503D02*
X155707000Y-77673926D01*
X154500000Y-64376888D02*
X154505770Y-64382658D01*
X148552884Y-88176000D02*
X147864000Y-87487116D01*
X154505770Y-64486273D02*
X155707000Y-65687503D01*
X155256000Y-83176000D02*
X153167000Y-83176000D01*
X154500000Y-64000000D02*
X154500000Y-64376888D01*
%TO.N,/CONNECTORS/SWDIO*%
X145026000Y-85934000D02*
X143960000Y-87000000D01*
X145026000Y-81662884D02*
X145026000Y-85934000D01*
X148512884Y-78176000D02*
X145026000Y-81662884D01*
X150176000Y-77487116D02*
X149487116Y-78176000D01*
X150176000Y-68824000D02*
X150176000Y-77487116D01*
X152929996Y-66070004D02*
X150176000Y-68824000D01*
X149487116Y-78176000D02*
X148512884Y-78176000D01*
X152929996Y-65929997D02*
X152929996Y-66070004D01*
%TO.N,/CONNECTORS/I2C_SCL*%
X139224997Y-86275003D02*
X141644975Y-83855025D01*
X139000000Y-86275003D02*
X139224997Y-86275003D01*
X141644975Y-83855025D02*
X141644975Y-83655025D01*
D16*
%TO.N,/CONNECTORS/NRST*%
X147000000Y-71375000D02*
X148375000Y-70000000D01*
X147000000Y-71550000D02*
X147000000Y-71375000D01*
D17*
%TO.N,GND*%
X131500000Y-71500000D02*
X126930000Y-71500000D01*
X126930000Y-71500000D02*
X126430000Y-71000000D01*
D14*
%TO.N,/CONNECTORS/I2C_SDA*%
X139000000Y-84500000D02*
X139000000Y-85475000D01*
X140815686Y-82684314D02*
X139000000Y-84500000D01*
%TD*%
%TA.AperFunction,Conductor*%
%TO.N,GND*%
G36*
X155942539Y-62020185D02*
G01*
X155988294Y-62072989D01*
X155999500Y-62124500D01*
X155999500Y-64796051D01*
X155979815Y-64863090D01*
X155927011Y-64908845D01*
X155857853Y-64918789D01*
X155794297Y-64889764D01*
X155787819Y-64883732D01*
X155289616Y-64385529D01*
X155256131Y-64324206D01*
X155261115Y-64254514D01*
X155262719Y-64250439D01*
X155269737Y-64233497D01*
X155300500Y-64078842D01*
X155300500Y-63921158D01*
X155300500Y-63921155D01*
X155300499Y-63921153D01*
X155269738Y-63766510D01*
X155269737Y-63766503D01*
X155249194Y-63716908D01*
X155209397Y-63620827D01*
X155209390Y-63620814D01*
X155121789Y-63489711D01*
X155121786Y-63489707D01*
X155010292Y-63378213D01*
X155010288Y-63378210D01*
X154879185Y-63290609D01*
X154879172Y-63290602D01*
X154733501Y-63230264D01*
X154733489Y-63230261D01*
X154578845Y-63199500D01*
X154578842Y-63199500D01*
X154421158Y-63199500D01*
X154421155Y-63199500D01*
X154266510Y-63230261D01*
X154266498Y-63230264D01*
X154120827Y-63290602D01*
X154120814Y-63290609D01*
X153989711Y-63378210D01*
X153989707Y-63378213D01*
X153878210Y-63489710D01*
X153856531Y-63522157D01*
X153802919Y-63566962D01*
X153753429Y-63577266D01*
X153749675Y-63577266D01*
X153749674Y-63577266D01*
X153231079Y-63577266D01*
X153107865Y-63577266D01*
X153087592Y-63581298D01*
X153067318Y-63585331D01*
X153067317Y-63585330D01*
X152987027Y-63601301D01*
X152987019Y-63601303D01*
X152942405Y-63619783D01*
X152942397Y-63619786D01*
X152939900Y-63620821D01*
X152873187Y-63648454D01*
X152873186Y-63648455D01*
X152855227Y-63660454D01*
X152855220Y-63660458D01*
X152770740Y-63716906D01*
X152727177Y-63760469D01*
X152683614Y-63804033D01*
X152406712Y-64080934D01*
X152406704Y-64080942D01*
X152404040Y-64083607D01*
X152404037Y-64083610D01*
X152316912Y-64170735D01*
X152289759Y-64211373D01*
X152285090Y-64218359D01*
X152285084Y-64218367D01*
X152248460Y-64273177D01*
X152248458Y-64273181D01*
X152229067Y-64319996D01*
X152228630Y-64321052D01*
X152201307Y-64387016D01*
X152199772Y-64394733D01*
X152195749Y-64404997D01*
X152180818Y-64424268D01*
X152169513Y-64445868D01*
X152167983Y-64447425D01*
X149837181Y-66778228D01*
X149775858Y-66811713D01*
X149706166Y-66806729D01*
X149650233Y-66764857D01*
X149625816Y-66699393D01*
X149625500Y-66690547D01*
X149625500Y-66310451D01*
X149645185Y-66243412D01*
X149661815Y-66222774D01*
X149898729Y-65985860D01*
X149898733Y-65985858D01*
X149985858Y-65898733D01*
X150037256Y-65821809D01*
X150054312Y-65796285D01*
X150097565Y-65691862D01*
X150101463Y-65682452D01*
X150117611Y-65601267D01*
X150125500Y-65561607D01*
X150125500Y-65542350D01*
X150145185Y-65475311D01*
X150146398Y-65473459D01*
X150182316Y-65419704D01*
X150209394Y-65379179D01*
X150269737Y-65233497D01*
X150300500Y-65078842D01*
X150300500Y-64921158D01*
X150300500Y-64921155D01*
X150300499Y-64921153D01*
X150287446Y-64855534D01*
X150269737Y-64766503D01*
X150267962Y-64762218D01*
X150209397Y-64620827D01*
X150209390Y-64620814D01*
X150121789Y-64489711D01*
X150121786Y-64489707D01*
X150010292Y-64378213D01*
X150010288Y-64378210D01*
X149879185Y-64290609D01*
X149879172Y-64290602D01*
X149733501Y-64230264D01*
X149733489Y-64230261D01*
X149578845Y-64199500D01*
X149578842Y-64199500D01*
X149421158Y-64199500D01*
X149421155Y-64199500D01*
X149266510Y-64230261D01*
X149266498Y-64230264D01*
X149120827Y-64290602D01*
X149120814Y-64290609D01*
X149068891Y-64325304D01*
X149002214Y-64346182D01*
X148934833Y-64327698D01*
X148931109Y-64325304D01*
X148879185Y-64290609D01*
X148879172Y-64290602D01*
X148733501Y-64230264D01*
X148733489Y-64230261D01*
X148578845Y-64199500D01*
X148578842Y-64199500D01*
X148421158Y-64199500D01*
X148421155Y-64199500D01*
X148266510Y-64230261D01*
X148266498Y-64230264D01*
X148120827Y-64290602D01*
X148120815Y-64290609D01*
X148026541Y-64353602D01*
X147959864Y-64374480D01*
X147957650Y-64374500D01*
X147563393Y-64374500D01*
X147539868Y-64379179D01*
X147539867Y-64379178D01*
X147442555Y-64398535D01*
X147442545Y-64398538D01*
X147328716Y-64445687D01*
X147328707Y-64445692D01*
X147226268Y-64514140D01*
X147195193Y-64545216D01*
X147139142Y-64601267D01*
X147139139Y-64601270D01*
X143601270Y-68139139D01*
X143601267Y-68139142D01*
X143557704Y-68182704D01*
X143514142Y-68226266D01*
X143485128Y-68269689D01*
X143485127Y-68269688D01*
X143445692Y-68328707D01*
X143445685Y-68328719D01*
X143429491Y-68367816D01*
X143429488Y-68367824D01*
X143426724Y-68374499D01*
X143398537Y-68442548D01*
X143397154Y-68449500D01*
X143376549Y-68553095D01*
X143375583Y-68557948D01*
X143375581Y-68557957D01*
X143374500Y-68563396D01*
X143374500Y-77889547D01*
X143354815Y-77956586D01*
X143338181Y-77977228D01*
X142941203Y-78374205D01*
X142879880Y-78407690D01*
X142877714Y-78408141D01*
X142766508Y-78430261D01*
X142766498Y-78430264D01*
X142620827Y-78490602D01*
X142620814Y-78490609D01*
X142489711Y-78578210D01*
X142489707Y-78578213D01*
X142378213Y-78689707D01*
X142378211Y-78689710D01*
X142290609Y-78820814D01*
X142290602Y-78820827D01*
X142230264Y-78966498D01*
X142230261Y-78966510D01*
X142199500Y-79121153D01*
X142199500Y-79278846D01*
X142230261Y-79433489D01*
X142230264Y-79433501D01*
X142290602Y-79579172D01*
X142290609Y-79579185D01*
X142378210Y-79710288D01*
X142378213Y-79710292D01*
X142489707Y-79821786D01*
X142489711Y-79821789D01*
X142620814Y-79909390D01*
X142620827Y-79909397D01*
X142756286Y-79965505D01*
X142766503Y-79969737D01*
X142921153Y-80000499D01*
X142921156Y-80000500D01*
X142921158Y-80000500D01*
X143078844Y-80000500D01*
X143078845Y-80000499D01*
X143233497Y-79969737D01*
X143379179Y-79909394D01*
X143510289Y-79821789D01*
X143621789Y-79710289D01*
X143709394Y-79579179D01*
X143769737Y-79433497D01*
X143791858Y-79322282D01*
X143824240Y-79260375D01*
X143825677Y-79258911D01*
X144485858Y-78598733D01*
X144554312Y-78496285D01*
X144601463Y-78382451D01*
X144619098Y-78293796D01*
X144625501Y-78261608D01*
X144625501Y-78133283D01*
X144625500Y-78133257D01*
X144625500Y-68935452D01*
X144645185Y-68868413D01*
X144661819Y-68847771D01*
X147847771Y-65661819D01*
X147874698Y-65647115D01*
X147900517Y-65630523D01*
X147906717Y-65629631D01*
X147909094Y-65628334D01*
X147935452Y-65625500D01*
X147957650Y-65625500D01*
X148024689Y-65645185D01*
X148026541Y-65646398D01*
X148120821Y-65709394D01*
X148120823Y-65709395D01*
X148120827Y-65709397D01*
X148230082Y-65754651D01*
X148266503Y-65769737D01*
X148281040Y-65772628D01*
X148342951Y-65805011D01*
X148377528Y-65865726D01*
X148378470Y-65918436D01*
X148374500Y-65938395D01*
X148374500Y-68324769D01*
X148371284Y-68338025D01*
X148372259Y-68348235D01*
X148363826Y-68368767D01*
X148360716Y-68381588D01*
X148357497Y-68387831D01*
X148319688Y-68444416D01*
X148286347Y-68524909D01*
X148284372Y-68529676D01*
X148284372Y-68529677D01*
X148272536Y-68558250D01*
X148263941Y-68601462D01*
X148263942Y-68601463D01*
X148249059Y-68676289D01*
X148249055Y-68676305D01*
X148248500Y-68679090D01*
X148248500Y-69107215D01*
X148228815Y-69174254D01*
X148176011Y-69220009D01*
X148148696Y-69228831D01*
X148141512Y-69230260D01*
X148141500Y-69230263D01*
X147995827Y-69290602D01*
X147995814Y-69290609D01*
X147864711Y-69378210D01*
X147864707Y-69378213D01*
X147753213Y-69489707D01*
X147753210Y-69489711D01*
X147665609Y-69620814D01*
X147665602Y-69620827D01*
X147605264Y-69766498D01*
X147605261Y-69766508D01*
X147591920Y-69833579D01*
X147559535Y-69895490D01*
X147557984Y-69897068D01*
X146610250Y-70844802D01*
X146591460Y-70860223D01*
X146489711Y-70928210D01*
X146489707Y-70928213D01*
X146378213Y-71039707D01*
X146378210Y-71039711D01*
X146290609Y-71170814D01*
X146290602Y-71170827D01*
X146230264Y-71316498D01*
X146230261Y-71316510D01*
X146199500Y-71471153D01*
X146199500Y-71628846D01*
X146230261Y-71783489D01*
X146230264Y-71783501D01*
X146290602Y-71929172D01*
X146290609Y-71929185D01*
X146378210Y-72060288D01*
X146378213Y-72060292D01*
X146489707Y-72171786D01*
X146489711Y-72171789D01*
X146620814Y-72259390D01*
X146620827Y-72259397D01*
X146766498Y-72319735D01*
X146766503Y-72319737D01*
X146921153Y-72350499D01*
X146921156Y-72350500D01*
X146921158Y-72350500D01*
X147078844Y-72350500D01*
X147078845Y-72350499D01*
X147233497Y-72319737D01*
X147379179Y-72259394D01*
X147510289Y-72171789D01*
X147621789Y-72060289D01*
X147709394Y-71929179D01*
X147769737Y-71783497D01*
X147800500Y-71628842D01*
X147800500Y-71545808D01*
X147820185Y-71478769D01*
X147836819Y-71458127D01*
X148162819Y-71132127D01*
X148224142Y-71098642D01*
X148293834Y-71103626D01*
X148349767Y-71145498D01*
X148374184Y-71210962D01*
X148374500Y-71219808D01*
X148374500Y-75026431D01*
X148354815Y-75093470D01*
X148338181Y-75114112D01*
X147739115Y-75713177D01*
X147677792Y-75746662D01*
X147608100Y-75741678D01*
X147577124Y-75724763D01*
X147552335Y-75706206D01*
X147552328Y-75706202D01*
X147417482Y-75655908D01*
X147417483Y-75655908D01*
X147357883Y-75649501D01*
X147357881Y-75649500D01*
X147357873Y-75649500D01*
X147357864Y-75649500D01*
X145562129Y-75649500D01*
X145562123Y-75649501D01*
X145502516Y-75655908D01*
X145367671Y-75706202D01*
X145367664Y-75706206D01*
X145252455Y-75792452D01*
X145252452Y-75792455D01*
X145166206Y-75907664D01*
X145166202Y-75907671D01*
X145115908Y-76042517D01*
X145109501Y-76102116D01*
X145109500Y-76102135D01*
X145109500Y-77897870D01*
X145109501Y-77897876D01*
X145115908Y-77957483D01*
X145166202Y-78092328D01*
X145166206Y-78092335D01*
X145252452Y-78207544D01*
X145252455Y-78207547D01*
X145367664Y-78293793D01*
X145367671Y-78293797D01*
X145502517Y-78344091D01*
X145502516Y-78344091D01*
X145509444Y-78344835D01*
X145562127Y-78350500D01*
X146465546Y-78350499D01*
X146532585Y-78370183D01*
X146578340Y-78422987D01*
X146588284Y-78492146D01*
X146559259Y-78555702D01*
X146553227Y-78562180D01*
X144619615Y-80495794D01*
X144002269Y-81113140D01*
X144002267Y-81113142D01*
X143958704Y-81156704D01*
X143915142Y-81200266D01*
X143891439Y-81235741D01*
X143891438Y-81235742D01*
X143846690Y-81302709D01*
X143846688Y-81302713D01*
X143799535Y-81416554D01*
X143799535Y-81416555D01*
X143792242Y-81453219D01*
X143773727Y-81497918D01*
X143691609Y-81620814D01*
X143691602Y-81620827D01*
X143631264Y-81766498D01*
X143631261Y-81766510D01*
X143600500Y-81921153D01*
X143600500Y-82078846D01*
X143631261Y-82233489D01*
X143631264Y-82233501D01*
X143691602Y-82379172D01*
X143691609Y-82379185D01*
X143779210Y-82510288D01*
X143779213Y-82510292D01*
X143890707Y-82621786D01*
X143890711Y-82621789D01*
X144021814Y-82709390D01*
X144021827Y-82709397D01*
X144154290Y-82764264D01*
X144167503Y-82769737D01*
X144277987Y-82791713D01*
X144300691Y-82796230D01*
X144362602Y-82828615D01*
X144397176Y-82889330D01*
X144400500Y-82917847D01*
X144400500Y-85525500D01*
X144380815Y-85592539D01*
X144328011Y-85638294D01*
X144276500Y-85649500D01*
X143062129Y-85649500D01*
X143062123Y-85649501D01*
X143002516Y-85655908D01*
X142867671Y-85706202D01*
X142867664Y-85706206D01*
X142752455Y-85792452D01*
X142752452Y-85792455D01*
X142666206Y-85907664D01*
X142666202Y-85907671D01*
X142615908Y-86042517D01*
X142609501Y-86102116D01*
X142609500Y-86102135D01*
X142609500Y-87897870D01*
X142609501Y-87897876D01*
X142615908Y-87957483D01*
X142666202Y-88092328D01*
X142666206Y-88092335D01*
X142752452Y-88207544D01*
X142752455Y-88207547D01*
X142867664Y-88293793D01*
X142867671Y-88293797D01*
X143002517Y-88344091D01*
X143002516Y-88344091D01*
X143009444Y-88344835D01*
X143062127Y-88350500D01*
X144857872Y-88350499D01*
X144917483Y-88344091D01*
X145052331Y-88293796D01*
X145167546Y-88207546D01*
X145253796Y-88092331D01*
X145302810Y-87960916D01*
X145344681Y-87904984D01*
X145410145Y-87880566D01*
X145478418Y-87895417D01*
X145506673Y-87916569D01*
X145620213Y-88030109D01*
X145792179Y-88155048D01*
X145792181Y-88155049D01*
X145792184Y-88155051D01*
X145981588Y-88251557D01*
X146183757Y-88317246D01*
X146393713Y-88350500D01*
X146393714Y-88350500D01*
X146606286Y-88350500D01*
X146606287Y-88350500D01*
X146816243Y-88317246D01*
X147018412Y-88251557D01*
X147207816Y-88155051D01*
X147376709Y-88032344D01*
X147442515Y-88008864D01*
X147510569Y-88024690D01*
X147537275Y-88044981D01*
X148067023Y-88574729D01*
X148067026Y-88574733D01*
X148154151Y-88661858D01*
X148205374Y-88696084D01*
X148256598Y-88730312D01*
X148256599Y-88730312D01*
X148256600Y-88730313D01*
X148330274Y-88760829D01*
X148330278Y-88760830D01*
X148337091Y-88763652D01*
X148370432Y-88777463D01*
X148430855Y-88789481D01*
X148491277Y-88801500D01*
X149588723Y-88801500D01*
X149649145Y-88789481D01*
X149709568Y-88777463D01*
X149742908Y-88763652D01*
X149823402Y-88730312D01*
X149874625Y-88696084D01*
X149925849Y-88661858D01*
X150012974Y-88574733D01*
X150012975Y-88574731D01*
X150020041Y-88567665D01*
X150020044Y-88567661D01*
X150542725Y-88044979D01*
X150604046Y-88011496D01*
X150673738Y-88016480D01*
X150703289Y-88032343D01*
X150785862Y-88092335D01*
X150872184Y-88155051D01*
X151061588Y-88251557D01*
X151263757Y-88317246D01*
X151473713Y-88350500D01*
X151473714Y-88350500D01*
X151686286Y-88350500D01*
X151686287Y-88350500D01*
X151896243Y-88317246D01*
X152098412Y-88251557D01*
X152287816Y-88155051D01*
X152374138Y-88092335D01*
X152459786Y-88030109D01*
X152459788Y-88030106D01*
X152459792Y-88030104D01*
X152610104Y-87879792D01*
X152610106Y-87879788D01*
X152610109Y-87879786D01*
X152695890Y-87761717D01*
X152735051Y-87707816D01*
X152739793Y-87698508D01*
X152787763Y-87647711D01*
X152855583Y-87630911D01*
X152921719Y-87653445D01*
X152960763Y-87698500D01*
X152965373Y-87707547D01*
X153004728Y-87761716D01*
X153637037Y-87129408D01*
X153654075Y-87192993D01*
X153719901Y-87307007D01*
X153812993Y-87400099D01*
X153927007Y-87465925D01*
X153990590Y-87482962D01*
X153358282Y-88115269D01*
X153358282Y-88115270D01*
X153412449Y-88154624D01*
X153601782Y-88251095D01*
X153803870Y-88316757D01*
X154013754Y-88350000D01*
X154226246Y-88350000D01*
X154436127Y-88316757D01*
X154436130Y-88316757D01*
X154638217Y-88251095D01*
X154827554Y-88154622D01*
X154881716Y-88115270D01*
X154881717Y-88115270D01*
X154249408Y-87482962D01*
X154312993Y-87465925D01*
X154427007Y-87400099D01*
X154520099Y-87307007D01*
X154585925Y-87192993D01*
X154602962Y-87129409D01*
X155235270Y-87761717D01*
X155235270Y-87761716D01*
X155274622Y-87707554D01*
X155371095Y-87518217D01*
X155436757Y-87316130D01*
X155436757Y-87316127D01*
X155470000Y-87106246D01*
X155470000Y-86893753D01*
X155436757Y-86683872D01*
X155436757Y-86683869D01*
X155371095Y-86481782D01*
X155274624Y-86292449D01*
X155235270Y-86238282D01*
X155235269Y-86238282D01*
X154602962Y-86870590D01*
X154585925Y-86807007D01*
X154520099Y-86692993D01*
X154427007Y-86599901D01*
X154312993Y-86534075D01*
X154249409Y-86517037D01*
X154881716Y-85884728D01*
X154827550Y-85845375D01*
X154638217Y-85748904D01*
X154436129Y-85683242D01*
X154226246Y-85650000D01*
X154013754Y-85650000D01*
X153803872Y-85683242D01*
X153803869Y-85683242D01*
X153601782Y-85748904D01*
X153412439Y-85845380D01*
X153358282Y-85884727D01*
X153358282Y-85884728D01*
X153990591Y-86517037D01*
X153927007Y-86534075D01*
X153812993Y-86599901D01*
X153719901Y-86692993D01*
X153654075Y-86807007D01*
X153637037Y-86870591D01*
X153004728Y-86238282D01*
X153004727Y-86238282D01*
X152965380Y-86292440D01*
X152965376Y-86292446D01*
X152960760Y-86301505D01*
X152912781Y-86352297D01*
X152844959Y-86369087D01*
X152778826Y-86346543D01*
X152739794Y-86301493D01*
X152735051Y-86292184D01*
X152735049Y-86292181D01*
X152735048Y-86292179D01*
X152610109Y-86120213D01*
X152459786Y-85969890D01*
X152287820Y-85844951D01*
X152098416Y-85748444D01*
X152089773Y-85745636D01*
X152076157Y-85741212D01*
X152018484Y-85701775D01*
X151991286Y-85637416D01*
X152003201Y-85568570D01*
X152026794Y-85535604D01*
X153565729Y-83996670D01*
X153565733Y-83996668D01*
X153652858Y-83909543D01*
X153692679Y-83849946D01*
X153697958Y-83843906D01*
X153720934Y-83829275D01*
X153741840Y-83811804D01*
X153751545Y-83809783D01*
X153756893Y-83806378D01*
X153767684Y-83806423D01*
X153791330Y-83801500D01*
X155317607Y-83801500D01*
X155317608Y-83801499D01*
X155438452Y-83777463D01*
X155552286Y-83730311D01*
X155654733Y-83661858D01*
X155741858Y-83574733D01*
X155750245Y-83562181D01*
X155772398Y-83529027D01*
X155826010Y-83484222D01*
X155895335Y-83475515D01*
X155958362Y-83505669D01*
X155995082Y-83565112D01*
X155999500Y-83597918D01*
X155999500Y-89375500D01*
X155979815Y-89442539D01*
X155927011Y-89488294D01*
X155875500Y-89499500D01*
X124124500Y-89499500D01*
X124057461Y-89479815D01*
X124011706Y-89427011D01*
X124000500Y-89375500D01*
X124000500Y-85396153D01*
X138199500Y-85396153D01*
X138199500Y-85553846D01*
X138230261Y-85708489D01*
X138230264Y-85708501D01*
X138279575Y-85827549D01*
X138287044Y-85897018D01*
X138279575Y-85922453D01*
X138230264Y-86041501D01*
X138230261Y-86041513D01*
X138199500Y-86196156D01*
X138199500Y-86353849D01*
X138230261Y-86508492D01*
X138230264Y-86508504D01*
X138290602Y-86654175D01*
X138290609Y-86654188D01*
X138378210Y-86785291D01*
X138378213Y-86785295D01*
X138489707Y-86896789D01*
X138489711Y-86896792D01*
X138620814Y-86984393D01*
X138620827Y-86984400D01*
X138766498Y-87044738D01*
X138766503Y-87044740D01*
X138872509Y-87065826D01*
X138921153Y-87075502D01*
X138921156Y-87075503D01*
X138921158Y-87075503D01*
X139078844Y-87075503D01*
X139078845Y-87075502D01*
X139233497Y-87044740D01*
X139379179Y-86984397D01*
X139510289Y-86896792D01*
X139621789Y-86785292D01*
X139660293Y-86727665D01*
X139675706Y-86708883D01*
X139710855Y-86673736D01*
X139710856Y-86673733D01*
X142003519Y-84381070D01*
X142022305Y-84365653D01*
X142024148Y-84364421D01*
X142024154Y-84364419D01*
X142155264Y-84276814D01*
X142266764Y-84165314D01*
X142354369Y-84034204D01*
X142362679Y-84014143D01*
X142414710Y-83888526D01*
X142414712Y-83888522D01*
X142445475Y-83733867D01*
X142445475Y-83576183D01*
X142445475Y-83576180D01*
X142445474Y-83576178D01*
X142428759Y-83492147D01*
X142414712Y-83421528D01*
X142392472Y-83367835D01*
X142354372Y-83275852D01*
X142354365Y-83275839D01*
X142266764Y-83144736D01*
X142266761Y-83144732D01*
X142155267Y-83033238D01*
X142155263Y-83033235D01*
X142024160Y-82945634D01*
X142024147Y-82945627D01*
X141878476Y-82885289D01*
X141878464Y-82885286D01*
X141717843Y-82853336D01*
X141718305Y-82851012D01*
X141663245Y-82828780D01*
X141622886Y-82771745D01*
X141616186Y-82731537D01*
X141616186Y-82605469D01*
X141616185Y-82605467D01*
X141598869Y-82518414D01*
X141585423Y-82450817D01*
X141585421Y-82450812D01*
X141525083Y-82305141D01*
X141525076Y-82305128D01*
X141437475Y-82174025D01*
X141437472Y-82174021D01*
X141325978Y-82062527D01*
X141325974Y-82062524D01*
X141194871Y-81974923D01*
X141194858Y-81974916D01*
X141049187Y-81914578D01*
X141049175Y-81914575D01*
X140894531Y-81883814D01*
X140894528Y-81883814D01*
X140736844Y-81883814D01*
X140736841Y-81883814D01*
X140582196Y-81914575D01*
X140582184Y-81914578D01*
X140436513Y-81974916D01*
X140436500Y-81974923D01*
X140305397Y-82062524D01*
X140305393Y-82062527D01*
X140193899Y-82174021D01*
X140193896Y-82174025D01*
X140106295Y-82305128D01*
X140106288Y-82305141D01*
X140045950Y-82450812D01*
X140045947Y-82450822D01*
X140023827Y-82562028D01*
X139991442Y-82623939D01*
X139989891Y-82625517D01*
X139294761Y-83320648D01*
X138601270Y-84014139D01*
X138601267Y-84014142D01*
X138557704Y-84057704D01*
X138514142Y-84101266D01*
X138493537Y-84132103D01*
X138493531Y-84132112D01*
X138490727Y-84136310D01*
X138445688Y-84203714D01*
X138424960Y-84253758D01*
X138422235Y-84260334D01*
X138422234Y-84260338D01*
X138398538Y-84317545D01*
X138398535Y-84317555D01*
X138374500Y-84438389D01*
X138374500Y-84932650D01*
X138354815Y-84999689D01*
X138353602Y-85001541D01*
X138290609Y-85095815D01*
X138290602Y-85095828D01*
X138230264Y-85241498D01*
X138230261Y-85241510D01*
X138199500Y-85396153D01*
X124000500Y-85396153D01*
X124000500Y-70754784D01*
X124020185Y-70687745D01*
X124072989Y-70641990D01*
X124142147Y-70632046D01*
X124205703Y-70661071D01*
X124212181Y-70667103D01*
X124222214Y-70677136D01*
X124222218Y-70677139D01*
X124386079Y-70786628D01*
X124386092Y-70786635D01*
X124563752Y-70860223D01*
X124568165Y-70862051D01*
X124568169Y-70862051D01*
X124568170Y-70862052D01*
X124761456Y-70900500D01*
X124761459Y-70900500D01*
X124958543Y-70900500D01*
X125088582Y-70874632D01*
X125151835Y-70862051D01*
X125333914Y-70786632D01*
X125497782Y-70677139D01*
X125637139Y-70537782D01*
X125746632Y-70373914D01*
X125822051Y-70191835D01*
X125860500Y-69998543D01*
X132499499Y-69998543D01*
X132537947Y-70191829D01*
X132537950Y-70191839D01*
X132613364Y-70373907D01*
X132613371Y-70373920D01*
X132722860Y-70537781D01*
X132722863Y-70537785D01*
X132862214Y-70677136D01*
X132862218Y-70677139D01*
X133026079Y-70786628D01*
X133026092Y-70786635D01*
X133203752Y-70860223D01*
X133208165Y-70862051D01*
X133208169Y-70862051D01*
X133208170Y-70862052D01*
X133401456Y-70900500D01*
X133401459Y-70900500D01*
X133598543Y-70900500D01*
X133728582Y-70874632D01*
X133791835Y-70862051D01*
X133973914Y-70786632D01*
X134137782Y-70677139D01*
X134277139Y-70537782D01*
X134386632Y-70373914D01*
X134462051Y-70191835D01*
X134500500Y-69998541D01*
X134500500Y-69101459D01*
X134500500Y-69101456D01*
X134462052Y-68908170D01*
X134462051Y-68908169D01*
X134462051Y-68908165D01*
X134437035Y-68847771D01*
X134386635Y-68726092D01*
X134386628Y-68726079D01*
X134277139Y-68562218D01*
X134277136Y-68562214D01*
X134137785Y-68422863D01*
X134137781Y-68422860D01*
X133973920Y-68313371D01*
X133973907Y-68313364D01*
X133791839Y-68237950D01*
X133791829Y-68237947D01*
X133598543Y-68199500D01*
X133598541Y-68199500D01*
X133401459Y-68199500D01*
X133401457Y-68199500D01*
X133208170Y-68237947D01*
X133208160Y-68237950D01*
X133026092Y-68313364D01*
X133026079Y-68313371D01*
X132862218Y-68422860D01*
X132862214Y-68422863D01*
X132722863Y-68562214D01*
X132722860Y-68562218D01*
X132613371Y-68726079D01*
X132613364Y-68726092D01*
X132537950Y-68908160D01*
X132537947Y-68908170D01*
X132499500Y-69101456D01*
X132499500Y-69101459D01*
X132499500Y-69998541D01*
X132499500Y-69998543D01*
X132499499Y-69998543D01*
X125860500Y-69998543D01*
X125860500Y-69998541D01*
X125860500Y-69101459D01*
X125860500Y-69101456D01*
X125822052Y-68908170D01*
X125822051Y-68908169D01*
X125822051Y-68908165D01*
X125797035Y-68847771D01*
X125746635Y-68726092D01*
X125746628Y-68726079D01*
X125637139Y-68562218D01*
X125637136Y-68562214D01*
X125497785Y-68422863D01*
X125497781Y-68422860D01*
X125333920Y-68313371D01*
X125333907Y-68313364D01*
X125151839Y-68237950D01*
X125151829Y-68237947D01*
X124958543Y-68199500D01*
X124958541Y-68199500D01*
X124761459Y-68199500D01*
X124761457Y-68199500D01*
X124568170Y-68237947D01*
X124568160Y-68237950D01*
X124386092Y-68313364D01*
X124386079Y-68313371D01*
X124222218Y-68422860D01*
X124222214Y-68422863D01*
X124212181Y-68432897D01*
X124150858Y-68466382D01*
X124081166Y-68461398D01*
X124025233Y-68419526D01*
X124000816Y-68354062D01*
X124000500Y-68345216D01*
X124000500Y-66954784D01*
X124020185Y-66887745D01*
X124072989Y-66841990D01*
X124142147Y-66832046D01*
X124205703Y-66861071D01*
X124212181Y-66867103D01*
X124222214Y-66877136D01*
X124222218Y-66877139D01*
X124386079Y-66986628D01*
X124386092Y-66986635D01*
X124568160Y-67062049D01*
X124568165Y-67062051D01*
X124568169Y-67062051D01*
X124568170Y-67062052D01*
X124761456Y-67100500D01*
X124761459Y-67100500D01*
X124958543Y-67100500D01*
X125088582Y-67074632D01*
X125151835Y-67062051D01*
X125333914Y-66986632D01*
X125497782Y-66877139D01*
X125637139Y-66737782D01*
X125746632Y-66573914D01*
X125822051Y-66391835D01*
X125834632Y-66328582D01*
X125860500Y-66198543D01*
X132499499Y-66198543D01*
X132537947Y-66391829D01*
X132537950Y-66391839D01*
X132613364Y-66573907D01*
X132613371Y-66573920D01*
X132722860Y-66737781D01*
X132722863Y-66737785D01*
X132862214Y-66877136D01*
X132862218Y-66877139D01*
X133026079Y-66986628D01*
X133026092Y-66986635D01*
X133208160Y-67062049D01*
X133208165Y-67062051D01*
X133208169Y-67062051D01*
X133208170Y-67062052D01*
X133401456Y-67100500D01*
X133401459Y-67100500D01*
X133598543Y-67100500D01*
X133728582Y-67074632D01*
X133791835Y-67062051D01*
X133973914Y-66986632D01*
X134137782Y-66877139D01*
X134277139Y-66737782D01*
X134386632Y-66573914D01*
X134462051Y-66391835D01*
X134474632Y-66328582D01*
X134500500Y-66198543D01*
X134500500Y-65301456D01*
X134462052Y-65108170D01*
X134462051Y-65108169D01*
X134462051Y-65108165D01*
X134446051Y-65069537D01*
X134386635Y-64926092D01*
X134386628Y-64926079D01*
X134277139Y-64762218D01*
X134277136Y-64762214D01*
X134137785Y-64622863D01*
X134137781Y-64622860D01*
X133973920Y-64513371D01*
X133973907Y-64513364D01*
X133791839Y-64437950D01*
X133791829Y-64437947D01*
X133598543Y-64399500D01*
X133598541Y-64399500D01*
X133401459Y-64399500D01*
X133401457Y-64399500D01*
X133208170Y-64437947D01*
X133208160Y-64437950D01*
X133026092Y-64513364D01*
X133026079Y-64513371D01*
X132862218Y-64622860D01*
X132862214Y-64622863D01*
X132722863Y-64762214D01*
X132722860Y-64762218D01*
X132613371Y-64926079D01*
X132613364Y-64926092D01*
X132537950Y-65108160D01*
X132537947Y-65108170D01*
X132499500Y-65301456D01*
X132499500Y-65301459D01*
X132499500Y-66198541D01*
X132499500Y-66198543D01*
X132499499Y-66198543D01*
X125860500Y-66198543D01*
X125860500Y-65301456D01*
X125822052Y-65108170D01*
X125822051Y-65108169D01*
X125822051Y-65108165D01*
X125806051Y-65069537D01*
X125746635Y-64926092D01*
X125746628Y-64926079D01*
X125637139Y-64762218D01*
X125637136Y-64762214D01*
X125497785Y-64622863D01*
X125497781Y-64622860D01*
X125333920Y-64513371D01*
X125333907Y-64513364D01*
X125151839Y-64437950D01*
X125151829Y-64437947D01*
X124958543Y-64399500D01*
X124958541Y-64399500D01*
X124761459Y-64399500D01*
X124761457Y-64399500D01*
X124568170Y-64437947D01*
X124568160Y-64437950D01*
X124386092Y-64513364D01*
X124386079Y-64513371D01*
X124222218Y-64622860D01*
X124222214Y-64622863D01*
X124212181Y-64632897D01*
X124150858Y-64666382D01*
X124081166Y-64661398D01*
X124025233Y-64619526D01*
X124000816Y-64554062D01*
X124000500Y-64545216D01*
X124000500Y-62124500D01*
X124020185Y-62057461D01*
X124072989Y-62011706D01*
X124124500Y-62000500D01*
X155875500Y-62000500D01*
X155942539Y-62020185D01*
G37*
%TD.AperFunction*%
%TA.AperFunction,Conductor*%
G36*
X152655270Y-77761717D02*
G01*
X152655270Y-77761716D01*
X152694622Y-77707555D01*
X152699232Y-77698507D01*
X152747205Y-77647709D01*
X152815025Y-77630912D01*
X152881161Y-77653447D01*
X152920204Y-77698504D01*
X152924949Y-77707817D01*
X153049890Y-77879786D01*
X153200213Y-78030109D01*
X153372182Y-78155050D01*
X153439580Y-78189391D01*
X153490377Y-78237365D01*
X153507172Y-78305186D01*
X153484635Y-78371321D01*
X153470967Y-78387557D01*
X152317269Y-79541256D01*
X152230144Y-79628380D01*
X152230138Y-79628388D01*
X152161692Y-79730821D01*
X152161684Y-79730835D01*
X152128347Y-79811323D01*
X152124013Y-79821786D01*
X152114537Y-79844661D01*
X152114535Y-79844669D01*
X152090500Y-79965505D01*
X152090500Y-79965510D01*
X152090500Y-80949203D01*
X152090500Y-81072417D01*
X152098601Y-81113143D01*
X152101767Y-81129062D01*
X152095538Y-81198654D01*
X152087538Y-81215248D01*
X152075711Y-81235734D01*
X152075708Y-81235740D01*
X152034784Y-81388468D01*
X152034784Y-81388470D01*
X152034784Y-81546579D01*
X152034783Y-81546579D01*
X152034784Y-81546582D01*
X152071541Y-81683760D01*
X152075708Y-81699309D01*
X152078817Y-81706814D01*
X152076949Y-81707587D01*
X152090500Y-81758155D01*
X152090500Y-82241843D01*
X152076954Y-82292407D01*
X152078819Y-82293180D01*
X152075708Y-82300688D01*
X152055246Y-82377054D01*
X152034784Y-82453418D01*
X152034784Y-82453420D01*
X152034784Y-82611529D01*
X152034783Y-82611529D01*
X152075708Y-82764261D01*
X152075710Y-82764264D01*
X152087537Y-82784750D01*
X152093848Y-82810768D01*
X152103654Y-82835684D01*
X152102974Y-82848390D01*
X152104008Y-82852651D01*
X152101769Y-82870928D01*
X152101059Y-82874499D01*
X152098909Y-82885310D01*
X152098909Y-82885311D01*
X152090500Y-82927582D01*
X152090500Y-83013548D01*
X152070815Y-83080587D01*
X152054181Y-83101229D01*
X151821059Y-83334350D01*
X151759736Y-83367835D01*
X151690044Y-83362851D01*
X151634111Y-83320979D01*
X151618819Y-83294125D01*
X151576465Y-83191873D01*
X151505277Y-83085330D01*
X151414670Y-82994723D01*
X151308127Y-82923535D01*
X151189744Y-82874499D01*
X151189738Y-82874497D01*
X151064071Y-82849500D01*
X151064069Y-82849500D01*
X150935931Y-82849500D01*
X150935929Y-82849500D01*
X150822231Y-82872117D01*
X150798039Y-82874500D01*
X150272471Y-82874500D01*
X150205432Y-82854815D01*
X150159677Y-82802011D01*
X150149733Y-82732853D01*
X150161986Y-82694205D01*
X150182472Y-82653999D01*
X150251557Y-82518412D01*
X150317246Y-82316243D01*
X150350500Y-82106287D01*
X150350500Y-81893713D01*
X150317246Y-81683757D01*
X150251557Y-81481588D01*
X150155051Y-81292184D01*
X150155049Y-81292181D01*
X150155048Y-81292179D01*
X150030109Y-81120213D01*
X149879786Y-80969890D01*
X149707820Y-80844951D01*
X149518414Y-80748444D01*
X149518413Y-80748443D01*
X149518412Y-80748443D01*
X149316243Y-80682754D01*
X149316241Y-80682753D01*
X149316240Y-80682753D01*
X149154957Y-80657208D01*
X149106287Y-80649500D01*
X148893713Y-80649500D01*
X148845042Y-80657208D01*
X148683760Y-80682753D01*
X148481585Y-80748444D01*
X148292179Y-80844951D01*
X148120213Y-80969890D01*
X147969890Y-81120213D01*
X147844949Y-81292182D01*
X147840484Y-81300946D01*
X147792509Y-81351742D01*
X147724688Y-81368536D01*
X147658553Y-81345998D01*
X147619516Y-81300946D01*
X147615050Y-81292182D01*
X147490109Y-81120213D01*
X147339786Y-80969890D01*
X147167819Y-80844951D01*
X147167818Y-80844950D01*
X147167816Y-80844949D01*
X147107361Y-80814145D01*
X147028872Y-80774153D01*
X146978076Y-80726178D01*
X146961281Y-80658357D01*
X146983819Y-80592222D01*
X146997480Y-80575993D01*
X148735656Y-78837819D01*
X148796979Y-78804334D01*
X148823337Y-78801500D01*
X149548723Y-78801500D01*
X149609145Y-78789481D01*
X149669568Y-78777463D01*
X149702908Y-78763652D01*
X149783402Y-78730312D01*
X149844164Y-78689711D01*
X149885849Y-78661858D01*
X149972974Y-78574733D01*
X149972975Y-78574731D01*
X149980041Y-78567665D01*
X149980044Y-78567661D01*
X150503084Y-78044620D01*
X150564405Y-78011137D01*
X150634097Y-78016121D01*
X150663648Y-78031985D01*
X150832442Y-78154620D01*
X151021782Y-78251095D01*
X151223870Y-78316757D01*
X151433754Y-78350000D01*
X151646246Y-78350000D01*
X151856127Y-78316757D01*
X151856130Y-78316757D01*
X152058217Y-78251095D01*
X152247554Y-78154622D01*
X152301716Y-78115270D01*
X152301717Y-78115270D01*
X151669409Y-77482962D01*
X151732993Y-77465925D01*
X151847007Y-77400099D01*
X151940099Y-77307007D01*
X152005925Y-77192993D01*
X152022962Y-77129408D01*
X152655270Y-77761717D01*
G37*
%TD.AperFunction*%
%TA.AperFunction,Conductor*%
G36*
X153519706Y-65005104D02*
G01*
X153539939Y-65028456D01*
X153568908Y-65071811D01*
X153568914Y-65071819D01*
X153660356Y-65163261D01*
X153660378Y-65163281D01*
X154594181Y-66097084D01*
X154627666Y-66158407D01*
X154630500Y-66184765D01*
X154630500Y-75588197D01*
X154610815Y-75655236D01*
X154558011Y-75700991D01*
X154488853Y-75710935D01*
X154468183Y-75706128D01*
X154396244Y-75682754D01*
X154396240Y-75682753D01*
X154234957Y-75657208D01*
X154186287Y-75649500D01*
X153973713Y-75649500D01*
X153925042Y-75657208D01*
X153763760Y-75682753D01*
X153561585Y-75748444D01*
X153372179Y-75844951D01*
X153200213Y-75969890D01*
X153049890Y-76120213D01*
X152924949Y-76292182D01*
X152920202Y-76301499D01*
X152872227Y-76352293D01*
X152804405Y-76369087D01*
X152738271Y-76346548D01*
X152699234Y-76301495D01*
X152694626Y-76292452D01*
X152655270Y-76238282D01*
X152655269Y-76238282D01*
X152022962Y-76870590D01*
X152005925Y-76807007D01*
X151940099Y-76692993D01*
X151847007Y-76599901D01*
X151732993Y-76534075D01*
X151669407Y-76517036D01*
X152301716Y-75884728D01*
X152247550Y-75845375D01*
X152058217Y-75748904D01*
X151856129Y-75683242D01*
X151646246Y-75650000D01*
X151433754Y-75650000D01*
X151223872Y-75683242D01*
X151223869Y-75683242D01*
X151021779Y-75748905D01*
X150981794Y-75769279D01*
X150913125Y-75782175D01*
X150848385Y-75755898D01*
X150808128Y-75698792D01*
X150801500Y-75658794D01*
X150801500Y-69134452D01*
X150821185Y-69067413D01*
X150837819Y-69046771D01*
X151745451Y-68139139D01*
X153182524Y-66702065D01*
X153222746Y-66675189D01*
X153309175Y-66639391D01*
X153440285Y-66551786D01*
X153551785Y-66440286D01*
X153639390Y-66309176D01*
X153699733Y-66163494D01*
X153730496Y-66008839D01*
X153730496Y-65851155D01*
X153730496Y-65851152D01*
X153730495Y-65851150D01*
X153719582Y-65796286D01*
X153699733Y-65696500D01*
X153643859Y-65561606D01*
X153639393Y-65550824D01*
X153639386Y-65550811D01*
X153551785Y-65419708D01*
X153551782Y-65419704D01*
X153440288Y-65308210D01*
X153440284Y-65308207D01*
X153340496Y-65241530D01*
X153295691Y-65187917D01*
X153286984Y-65118592D01*
X153306285Y-65069537D01*
X153325631Y-65040584D01*
X153333742Y-65028445D01*
X153347360Y-65017065D01*
X153349154Y-65014378D01*
X153352130Y-65013080D01*
X153387356Y-64983646D01*
X153456681Y-64974944D01*
X153519706Y-65005104D01*
G37*
%TD.AperFunction*%
%TD*%
M02*
