%TF.GenerationSoftware,KiCad,Pcbnew,9.0.7*%
%TF.CreationDate,2026-02-19T23:55:46-05:00*%
%TF.ProjectId,usb_c_sensor_breakout,7573625f-635f-4736-956e-736f725f6272,rev?*%
%TF.SameCoordinates,Original*%
%TF.FileFunction,AssemblyDrawing,Top*%
%FSLAX46Y46*%
G04 Gerber Fmt 4.6, Leading zero omitted, Abs format (unit mm)*
G04 Created by KiCad (PCBNEW 9.0.7) date 2026-02-19 23:55:46*
%MOMM*%
%LPD*%
G01*
G04 APERTURE LIST*
%ADD10C,0.150000*%
%ADD11C,0.075000*%
%ADD12C,0.060000*%
%ADD13C,0.110000*%
%ADD14C,0.100000*%
G04 APERTURE END LIST*
D10*
X143534819Y-85261904D02*
X144249104Y-85261904D01*
X144249104Y-85261904D02*
X144391961Y-85309523D01*
X144391961Y-85309523D02*
X144487200Y-85404761D01*
X144487200Y-85404761D02*
X144534819Y-85547618D01*
X144534819Y-85547618D02*
X144534819Y-85642856D01*
X144630057Y-85023809D02*
X144630057Y-84261904D01*
X144534819Y-84023808D02*
X143534819Y-84023808D01*
X143630057Y-83595237D02*
X143582438Y-83547618D01*
X143582438Y-83547618D02*
X143534819Y-83452380D01*
X143534819Y-83452380D02*
X143534819Y-83214285D01*
X143534819Y-83214285D02*
X143582438Y-83119047D01*
X143582438Y-83119047D02*
X143630057Y-83071428D01*
X143630057Y-83071428D02*
X143725295Y-83023809D01*
X143725295Y-83023809D02*
X143820533Y-83023809D01*
X143820533Y-83023809D02*
X143963390Y-83071428D01*
X143963390Y-83071428D02*
X144534819Y-83642856D01*
X144534819Y-83642856D02*
X144534819Y-83023809D01*
X144439580Y-82023809D02*
X144487200Y-82071428D01*
X144487200Y-82071428D02*
X144534819Y-82214285D01*
X144534819Y-82214285D02*
X144534819Y-82309523D01*
X144534819Y-82309523D02*
X144487200Y-82452380D01*
X144487200Y-82452380D02*
X144391961Y-82547618D01*
X144391961Y-82547618D02*
X144296723Y-82595237D01*
X144296723Y-82595237D02*
X144106247Y-82642856D01*
X144106247Y-82642856D02*
X143963390Y-82642856D01*
X143963390Y-82642856D02*
X143772914Y-82595237D01*
X143772914Y-82595237D02*
X143677676Y-82547618D01*
X143677676Y-82547618D02*
X143582438Y-82452380D01*
X143582438Y-82452380D02*
X143534819Y-82309523D01*
X143534819Y-82309523D02*
X143534819Y-82214285D01*
X143534819Y-82214285D02*
X143582438Y-82071428D01*
X143582438Y-82071428D02*
X143630057Y-82023809D01*
X144630057Y-81833333D02*
X144630057Y-81071428D01*
X144011009Y-80833332D02*
X144011009Y-80499999D01*
X144534819Y-80357142D02*
X144534819Y-80833332D01*
X144534819Y-80833332D02*
X143534819Y-80833332D01*
X143534819Y-80833332D02*
X143534819Y-80357142D01*
X143534819Y-80023808D02*
X144534819Y-79357142D01*
X143534819Y-79357142D02*
X144534819Y-80023808D01*
X144534819Y-78976189D02*
X143534819Y-78976189D01*
X143534819Y-78976189D02*
X143534819Y-78595237D01*
X143534819Y-78595237D02*
X143582438Y-78499999D01*
X143582438Y-78499999D02*
X143630057Y-78452380D01*
X143630057Y-78452380D02*
X143725295Y-78404761D01*
X143725295Y-78404761D02*
X143868152Y-78404761D01*
X143868152Y-78404761D02*
X143963390Y-78452380D01*
X143963390Y-78452380D02*
X144011009Y-78499999D01*
X144011009Y-78499999D02*
X144058628Y-78595237D01*
X144058628Y-78595237D02*
X144058628Y-78976189D01*
X149936666Y-81454819D02*
X149936666Y-82169104D01*
X149936666Y-82169104D02*
X149889047Y-82311961D01*
X149889047Y-82311961D02*
X149793809Y-82407200D01*
X149793809Y-82407200D02*
X149650952Y-82454819D01*
X149650952Y-82454819D02*
X149555714Y-82454819D01*
X150841428Y-81788152D02*
X150841428Y-82454819D01*
X150603333Y-81407200D02*
X150365238Y-82121485D01*
X150365238Y-82121485D02*
X150984285Y-82121485D01*
X131857142Y-76431009D02*
X131523809Y-76431009D01*
X131523809Y-76954819D02*
X131523809Y-75954819D01*
X131523809Y-75954819D02*
X131999999Y-75954819D01*
X132809523Y-76288152D02*
X132809523Y-76954819D01*
X132380952Y-76288152D02*
X132380952Y-76811961D01*
X132380952Y-76811961D02*
X132428571Y-76907200D01*
X132428571Y-76907200D02*
X132523809Y-76954819D01*
X132523809Y-76954819D02*
X132666666Y-76954819D01*
X132666666Y-76954819D02*
X132761904Y-76907200D01*
X132761904Y-76907200D02*
X132809523Y-76859580D01*
X133238095Y-76907200D02*
X133333333Y-76954819D01*
X133333333Y-76954819D02*
X133523809Y-76954819D01*
X133523809Y-76954819D02*
X133619047Y-76907200D01*
X133619047Y-76907200D02*
X133666666Y-76811961D01*
X133666666Y-76811961D02*
X133666666Y-76764342D01*
X133666666Y-76764342D02*
X133619047Y-76669104D01*
X133619047Y-76669104D02*
X133523809Y-76621485D01*
X133523809Y-76621485D02*
X133380952Y-76621485D01*
X133380952Y-76621485D02*
X133285714Y-76573866D01*
X133285714Y-76573866D02*
X133238095Y-76478628D01*
X133238095Y-76478628D02*
X133238095Y-76431009D01*
X133238095Y-76431009D02*
X133285714Y-76335771D01*
X133285714Y-76335771D02*
X133380952Y-76288152D01*
X133380952Y-76288152D02*
X133523809Y-76288152D01*
X133523809Y-76288152D02*
X133619047Y-76335771D01*
X134476190Y-76907200D02*
X134380952Y-76954819D01*
X134380952Y-76954819D02*
X134190476Y-76954819D01*
X134190476Y-76954819D02*
X134095238Y-76907200D01*
X134095238Y-76907200D02*
X134047619Y-76811961D01*
X134047619Y-76811961D02*
X134047619Y-76431009D01*
X134047619Y-76431009D02*
X134095238Y-76335771D01*
X134095238Y-76335771D02*
X134190476Y-76288152D01*
X134190476Y-76288152D02*
X134380952Y-76288152D01*
X134380952Y-76288152D02*
X134476190Y-76335771D01*
X134476190Y-76335771D02*
X134523809Y-76431009D01*
X134523809Y-76431009D02*
X134523809Y-76526247D01*
X134523809Y-76526247D02*
X134047619Y-76621485D01*
X131666666Y-73931009D02*
X131333333Y-73931009D01*
X131333333Y-74454819D02*
X131333333Y-73454819D01*
X131333333Y-73454819D02*
X131809523Y-73454819D01*
X132714285Y-74454819D02*
X132142857Y-74454819D01*
X132428571Y-74454819D02*
X132428571Y-73454819D01*
X132428571Y-73454819D02*
X132333333Y-73597676D01*
X132333333Y-73597676D02*
X132238095Y-73692914D01*
X132238095Y-73692914D02*
X132142857Y-73740533D01*
X144919047Y-74287200D02*
X145061904Y-74334819D01*
X145061904Y-74334819D02*
X145299999Y-74334819D01*
X145299999Y-74334819D02*
X145395237Y-74287200D01*
X145395237Y-74287200D02*
X145442856Y-74239580D01*
X145442856Y-74239580D02*
X145490475Y-74144342D01*
X145490475Y-74144342D02*
X145490475Y-74049104D01*
X145490475Y-74049104D02*
X145442856Y-73953866D01*
X145442856Y-73953866D02*
X145395237Y-73906247D01*
X145395237Y-73906247D02*
X145299999Y-73858628D01*
X145299999Y-73858628D02*
X145109523Y-73811009D01*
X145109523Y-73811009D02*
X145014285Y-73763390D01*
X145014285Y-73763390D02*
X144966666Y-73715771D01*
X144966666Y-73715771D02*
X144919047Y-73620533D01*
X144919047Y-73620533D02*
X144919047Y-73525295D01*
X144919047Y-73525295D02*
X144966666Y-73430057D01*
X144966666Y-73430057D02*
X145014285Y-73382438D01*
X145014285Y-73382438D02*
X145109523Y-73334819D01*
X145109523Y-73334819D02*
X145347618Y-73334819D01*
X145347618Y-73334819D02*
X145490475Y-73382438D01*
X145776190Y-73334819D02*
X146347618Y-73334819D01*
X146061904Y-74334819D02*
X146061904Y-73334819D01*
X146680952Y-74334819D02*
X146680952Y-73334819D01*
X146680952Y-73334819D02*
X147014285Y-74049104D01*
X147014285Y-74049104D02*
X147347618Y-73334819D01*
X147347618Y-73334819D02*
X147347618Y-74334819D01*
X147728571Y-73334819D02*
X148347618Y-73334819D01*
X148347618Y-73334819D02*
X148014285Y-73715771D01*
X148014285Y-73715771D02*
X148157142Y-73715771D01*
X148157142Y-73715771D02*
X148252380Y-73763390D01*
X148252380Y-73763390D02*
X148299999Y-73811009D01*
X148299999Y-73811009D02*
X148347618Y-73906247D01*
X148347618Y-73906247D02*
X148347618Y-74144342D01*
X148347618Y-74144342D02*
X148299999Y-74239580D01*
X148299999Y-74239580D02*
X148252380Y-74287200D01*
X148252380Y-74287200D02*
X148157142Y-74334819D01*
X148157142Y-74334819D02*
X147871428Y-74334819D01*
X147871428Y-74334819D02*
X147776190Y-74287200D01*
X147776190Y-74287200D02*
X147728571Y-74239580D01*
X148728571Y-73430057D02*
X148776190Y-73382438D01*
X148776190Y-73382438D02*
X148871428Y-73334819D01*
X148871428Y-73334819D02*
X149109523Y-73334819D01*
X149109523Y-73334819D02*
X149204761Y-73382438D01*
X149204761Y-73382438D02*
X149252380Y-73430057D01*
X149252380Y-73430057D02*
X149299999Y-73525295D01*
X149299999Y-73525295D02*
X149299999Y-73620533D01*
X149299999Y-73620533D02*
X149252380Y-73763390D01*
X149252380Y-73763390D02*
X148680952Y-74334819D01*
X148680952Y-74334819D02*
X149299999Y-74334819D01*
X150252380Y-73382438D02*
X150157142Y-73334819D01*
X150157142Y-73334819D02*
X150014285Y-73334819D01*
X150014285Y-73334819D02*
X149871428Y-73382438D01*
X149871428Y-73382438D02*
X149776190Y-73477676D01*
X149776190Y-73477676D02*
X149728571Y-73572914D01*
X149728571Y-73572914D02*
X149680952Y-73763390D01*
X149680952Y-73763390D02*
X149680952Y-73906247D01*
X149680952Y-73906247D02*
X149728571Y-74096723D01*
X149728571Y-74096723D02*
X149776190Y-74191961D01*
X149776190Y-74191961D02*
X149871428Y-74287200D01*
X149871428Y-74287200D02*
X150014285Y-74334819D01*
X150014285Y-74334819D02*
X150109523Y-74334819D01*
X150109523Y-74334819D02*
X150252380Y-74287200D01*
X150252380Y-74287200D02*
X150299999Y-74239580D01*
X150299999Y-74239580D02*
X150299999Y-73906247D01*
X150299999Y-73906247D02*
X150109523Y-73906247D01*
X150919047Y-73334819D02*
X151014285Y-73334819D01*
X151014285Y-73334819D02*
X151109523Y-73382438D01*
X151109523Y-73382438D02*
X151157142Y-73430057D01*
X151157142Y-73430057D02*
X151204761Y-73525295D01*
X151204761Y-73525295D02*
X151252380Y-73715771D01*
X151252380Y-73715771D02*
X151252380Y-73953866D01*
X151252380Y-73953866D02*
X151204761Y-74144342D01*
X151204761Y-74144342D02*
X151157142Y-74239580D01*
X151157142Y-74239580D02*
X151109523Y-74287200D01*
X151109523Y-74287200D02*
X151014285Y-74334819D01*
X151014285Y-74334819D02*
X150919047Y-74334819D01*
X150919047Y-74334819D02*
X150823809Y-74287200D01*
X150823809Y-74287200D02*
X150776190Y-74239580D01*
X150776190Y-74239580D02*
X150728571Y-74144342D01*
X150728571Y-74144342D02*
X150680952Y-73953866D01*
X150680952Y-73953866D02*
X150680952Y-73715771D01*
X150680952Y-73715771D02*
X150728571Y-73525295D01*
X150728571Y-73525295D02*
X150776190Y-73430057D01*
X150776190Y-73430057D02*
X150823809Y-73382438D01*
X150823809Y-73382438D02*
X150919047Y-73334819D01*
X151585714Y-73334819D02*
X152204761Y-73334819D01*
X152204761Y-73334819D02*
X151871428Y-73715771D01*
X151871428Y-73715771D02*
X152014285Y-73715771D01*
X152014285Y-73715771D02*
X152109523Y-73763390D01*
X152109523Y-73763390D02*
X152157142Y-73811009D01*
X152157142Y-73811009D02*
X152204761Y-73906247D01*
X152204761Y-73906247D02*
X152204761Y-74144342D01*
X152204761Y-74144342D02*
X152157142Y-74239580D01*
X152157142Y-74239580D02*
X152109523Y-74287200D01*
X152109523Y-74287200D02*
X152014285Y-74334819D01*
X152014285Y-74334819D02*
X151728571Y-74334819D01*
X151728571Y-74334819D02*
X151633333Y-74287200D01*
X151633333Y-74287200D02*
X151585714Y-74239580D01*
X153157142Y-74334819D02*
X152585714Y-74334819D01*
X152871428Y-74334819D02*
X152871428Y-73334819D01*
X152871428Y-73334819D02*
X152776190Y-73477676D01*
X152776190Y-73477676D02*
X152680952Y-73572914D01*
X152680952Y-73572914D02*
X152585714Y-73620533D01*
X153585714Y-74334819D02*
X153585714Y-73334819D01*
X154157142Y-74334819D02*
X153728571Y-73763390D01*
X154157142Y-73334819D02*
X153585714Y-73906247D01*
X154728571Y-73763390D02*
X154633333Y-73715771D01*
X154633333Y-73715771D02*
X154585714Y-73668152D01*
X154585714Y-73668152D02*
X154538095Y-73572914D01*
X154538095Y-73572914D02*
X154538095Y-73525295D01*
X154538095Y-73525295D02*
X154585714Y-73430057D01*
X154585714Y-73430057D02*
X154633333Y-73382438D01*
X154633333Y-73382438D02*
X154728571Y-73334819D01*
X154728571Y-73334819D02*
X154919047Y-73334819D01*
X154919047Y-73334819D02*
X155014285Y-73382438D01*
X155014285Y-73382438D02*
X155061904Y-73430057D01*
X155061904Y-73430057D02*
X155109523Y-73525295D01*
X155109523Y-73525295D02*
X155109523Y-73572914D01*
X155109523Y-73572914D02*
X155061904Y-73668152D01*
X155061904Y-73668152D02*
X155014285Y-73715771D01*
X155014285Y-73715771D02*
X154919047Y-73763390D01*
X154919047Y-73763390D02*
X154728571Y-73763390D01*
X154728571Y-73763390D02*
X154633333Y-73811009D01*
X154633333Y-73811009D02*
X154585714Y-73858628D01*
X154585714Y-73858628D02*
X154538095Y-73953866D01*
X154538095Y-73953866D02*
X154538095Y-74144342D01*
X154538095Y-74144342D02*
X154585714Y-74239580D01*
X154585714Y-74239580D02*
X154633333Y-74287200D01*
X154633333Y-74287200D02*
X154728571Y-74334819D01*
X154728571Y-74334819D02*
X154919047Y-74334819D01*
X154919047Y-74334819D02*
X155014285Y-74287200D01*
X155014285Y-74287200D02*
X155061904Y-74239580D01*
X155061904Y-74239580D02*
X155109523Y-74144342D01*
X155109523Y-74144342D02*
X155109523Y-73953866D01*
X155109523Y-73953866D02*
X155061904Y-73858628D01*
X155061904Y-73858628D02*
X155014285Y-73811009D01*
X155014285Y-73811009D02*
X154919047Y-73763390D01*
X155395238Y-73334819D02*
X155966666Y-73334819D01*
X155680952Y-74334819D02*
X155680952Y-73334819D01*
X156204762Y-74334819D02*
X156728571Y-73668152D01*
X156204762Y-73668152D02*
X156728571Y-74334819D01*
X150038095Y-67454819D02*
X150038095Y-68264342D01*
X150038095Y-68264342D02*
X150085714Y-68359580D01*
X150085714Y-68359580D02*
X150133333Y-68407200D01*
X150133333Y-68407200D02*
X150228571Y-68454819D01*
X150228571Y-68454819D02*
X150419047Y-68454819D01*
X150419047Y-68454819D02*
X150514285Y-68407200D01*
X150514285Y-68407200D02*
X150561904Y-68359580D01*
X150561904Y-68359580D02*
X150609523Y-68264342D01*
X150609523Y-68264342D02*
X150609523Y-67454819D01*
X150990476Y-67454819D02*
X151609523Y-67454819D01*
X151609523Y-67454819D02*
X151276190Y-67835771D01*
X151276190Y-67835771D02*
X151419047Y-67835771D01*
X151419047Y-67835771D02*
X151514285Y-67883390D01*
X151514285Y-67883390D02*
X151561904Y-67931009D01*
X151561904Y-67931009D02*
X151609523Y-68026247D01*
X151609523Y-68026247D02*
X151609523Y-68264342D01*
X151609523Y-68264342D02*
X151561904Y-68359580D01*
X151561904Y-68359580D02*
X151514285Y-68407200D01*
X151514285Y-68407200D02*
X151419047Y-68454819D01*
X151419047Y-68454819D02*
X151133333Y-68454819D01*
X151133333Y-68454819D02*
X151038095Y-68407200D01*
X151038095Y-68407200D02*
X150990476Y-68359580D01*
X140428571Y-81704819D02*
X140999999Y-81704819D01*
X140714285Y-82704819D02*
X140714285Y-81704819D01*
X141333333Y-82704819D02*
X141333333Y-81704819D01*
X141333333Y-81704819D02*
X141714285Y-81704819D01*
X141714285Y-81704819D02*
X141809523Y-81752438D01*
X141809523Y-81752438D02*
X141857142Y-81800057D01*
X141857142Y-81800057D02*
X141904761Y-81895295D01*
X141904761Y-81895295D02*
X141904761Y-82038152D01*
X141904761Y-82038152D02*
X141857142Y-82133390D01*
X141857142Y-82133390D02*
X141809523Y-82181009D01*
X141809523Y-82181009D02*
X141714285Y-82228628D01*
X141714285Y-82228628D02*
X141333333Y-82228628D01*
X142095238Y-82800057D02*
X142857142Y-82800057D01*
X143047619Y-82657200D02*
X143190476Y-82704819D01*
X143190476Y-82704819D02*
X143428571Y-82704819D01*
X143428571Y-82704819D02*
X143523809Y-82657200D01*
X143523809Y-82657200D02*
X143571428Y-82609580D01*
X143571428Y-82609580D02*
X143619047Y-82514342D01*
X143619047Y-82514342D02*
X143619047Y-82419104D01*
X143619047Y-82419104D02*
X143571428Y-82323866D01*
X143571428Y-82323866D02*
X143523809Y-82276247D01*
X143523809Y-82276247D02*
X143428571Y-82228628D01*
X143428571Y-82228628D02*
X143238095Y-82181009D01*
X143238095Y-82181009D02*
X143142857Y-82133390D01*
X143142857Y-82133390D02*
X143095238Y-82085771D01*
X143095238Y-82085771D02*
X143047619Y-81990533D01*
X143047619Y-81990533D02*
X143047619Y-81895295D01*
X143047619Y-81895295D02*
X143095238Y-81800057D01*
X143095238Y-81800057D02*
X143142857Y-81752438D01*
X143142857Y-81752438D02*
X143238095Y-81704819D01*
X143238095Y-81704819D02*
X143476190Y-81704819D01*
X143476190Y-81704819D02*
X143619047Y-81752438D01*
X144047619Y-82704819D02*
X144047619Y-81704819D01*
X144047619Y-81704819D02*
X144285714Y-81704819D01*
X144285714Y-81704819D02*
X144428571Y-81752438D01*
X144428571Y-81752438D02*
X144523809Y-81847676D01*
X144523809Y-81847676D02*
X144571428Y-81942914D01*
X144571428Y-81942914D02*
X144619047Y-82133390D01*
X144619047Y-82133390D02*
X144619047Y-82276247D01*
X144619047Y-82276247D02*
X144571428Y-82466723D01*
X144571428Y-82466723D02*
X144523809Y-82561961D01*
X144523809Y-82561961D02*
X144428571Y-82657200D01*
X144428571Y-82657200D02*
X144285714Y-82704819D01*
X144285714Y-82704819D02*
X144047619Y-82704819D01*
X145000000Y-82419104D02*
X145476190Y-82419104D01*
X144904762Y-82704819D02*
X145238095Y-81704819D01*
X145238095Y-81704819D02*
X145571428Y-82704819D01*
X139238095Y-79952819D02*
X139809523Y-79952819D01*
X139523809Y-80952819D02*
X139523809Y-79952819D01*
X140142857Y-80952819D02*
X140142857Y-79952819D01*
X140142857Y-79952819D02*
X140523809Y-79952819D01*
X140523809Y-79952819D02*
X140619047Y-80000438D01*
X140619047Y-80000438D02*
X140666666Y-80048057D01*
X140666666Y-80048057D02*
X140714285Y-80143295D01*
X140714285Y-80143295D02*
X140714285Y-80286152D01*
X140714285Y-80286152D02*
X140666666Y-80381390D01*
X140666666Y-80381390D02*
X140619047Y-80429009D01*
X140619047Y-80429009D02*
X140523809Y-80476628D01*
X140523809Y-80476628D02*
X140142857Y-80476628D01*
X141666666Y-80952819D02*
X141095238Y-80952819D01*
X141380952Y-80952819D02*
X141380952Y-79952819D01*
X141380952Y-79952819D02*
X141285714Y-80095676D01*
X141285714Y-80095676D02*
X141190476Y-80190914D01*
X141190476Y-80190914D02*
X141095238Y-80238533D01*
X140452381Y-84204819D02*
X141023809Y-84204819D01*
X140738095Y-85204819D02*
X140738095Y-84204819D01*
X141357143Y-85204819D02*
X141357143Y-84204819D01*
X141357143Y-84204819D02*
X141738095Y-84204819D01*
X141738095Y-84204819D02*
X141833333Y-84252438D01*
X141833333Y-84252438D02*
X141880952Y-84300057D01*
X141880952Y-84300057D02*
X141928571Y-84395295D01*
X141928571Y-84395295D02*
X141928571Y-84538152D01*
X141928571Y-84538152D02*
X141880952Y-84633390D01*
X141880952Y-84633390D02*
X141833333Y-84681009D01*
X141833333Y-84681009D02*
X141738095Y-84728628D01*
X141738095Y-84728628D02*
X141357143Y-84728628D01*
X142119048Y-85300057D02*
X142880952Y-85300057D01*
X143071429Y-85157200D02*
X143214286Y-85204819D01*
X143214286Y-85204819D02*
X143452381Y-85204819D01*
X143452381Y-85204819D02*
X143547619Y-85157200D01*
X143547619Y-85157200D02*
X143595238Y-85109580D01*
X143595238Y-85109580D02*
X143642857Y-85014342D01*
X143642857Y-85014342D02*
X143642857Y-84919104D01*
X143642857Y-84919104D02*
X143595238Y-84823866D01*
X143595238Y-84823866D02*
X143547619Y-84776247D01*
X143547619Y-84776247D02*
X143452381Y-84728628D01*
X143452381Y-84728628D02*
X143261905Y-84681009D01*
X143261905Y-84681009D02*
X143166667Y-84633390D01*
X143166667Y-84633390D02*
X143119048Y-84585771D01*
X143119048Y-84585771D02*
X143071429Y-84490533D01*
X143071429Y-84490533D02*
X143071429Y-84395295D01*
X143071429Y-84395295D02*
X143119048Y-84300057D01*
X143119048Y-84300057D02*
X143166667Y-84252438D01*
X143166667Y-84252438D02*
X143261905Y-84204819D01*
X143261905Y-84204819D02*
X143500000Y-84204819D01*
X143500000Y-84204819D02*
X143642857Y-84252438D01*
X144642857Y-85109580D02*
X144595238Y-85157200D01*
X144595238Y-85157200D02*
X144452381Y-85204819D01*
X144452381Y-85204819D02*
X144357143Y-85204819D01*
X144357143Y-85204819D02*
X144214286Y-85157200D01*
X144214286Y-85157200D02*
X144119048Y-85061961D01*
X144119048Y-85061961D02*
X144071429Y-84966723D01*
X144071429Y-84966723D02*
X144023810Y-84776247D01*
X144023810Y-84776247D02*
X144023810Y-84633390D01*
X144023810Y-84633390D02*
X144071429Y-84442914D01*
X144071429Y-84442914D02*
X144119048Y-84347676D01*
X144119048Y-84347676D02*
X144214286Y-84252438D01*
X144214286Y-84252438D02*
X144357143Y-84204819D01*
X144357143Y-84204819D02*
X144452381Y-84204819D01*
X144452381Y-84204819D02*
X144595238Y-84252438D01*
X144595238Y-84252438D02*
X144642857Y-84300057D01*
X145547619Y-85204819D02*
X145071429Y-85204819D01*
X145071429Y-85204819D02*
X145071429Y-84204819D01*
X139238095Y-82454819D02*
X139809523Y-82454819D01*
X139523809Y-83454819D02*
X139523809Y-82454819D01*
X140142857Y-83454819D02*
X140142857Y-82454819D01*
X140142857Y-82454819D02*
X140523809Y-82454819D01*
X140523809Y-82454819D02*
X140619047Y-82502438D01*
X140619047Y-82502438D02*
X140666666Y-82550057D01*
X140666666Y-82550057D02*
X140714285Y-82645295D01*
X140714285Y-82645295D02*
X140714285Y-82788152D01*
X140714285Y-82788152D02*
X140666666Y-82883390D01*
X140666666Y-82883390D02*
X140619047Y-82931009D01*
X140619047Y-82931009D02*
X140523809Y-82978628D01*
X140523809Y-82978628D02*
X140142857Y-82978628D01*
X141095238Y-82550057D02*
X141142857Y-82502438D01*
X141142857Y-82502438D02*
X141238095Y-82454819D01*
X141238095Y-82454819D02*
X141476190Y-82454819D01*
X141476190Y-82454819D02*
X141571428Y-82502438D01*
X141571428Y-82502438D02*
X141619047Y-82550057D01*
X141619047Y-82550057D02*
X141666666Y-82645295D01*
X141666666Y-82645295D02*
X141666666Y-82740533D01*
X141666666Y-82740533D02*
X141619047Y-82883390D01*
X141619047Y-82883390D02*
X141047619Y-83454819D01*
X141047619Y-83454819D02*
X141666666Y-83454819D01*
X134454819Y-89809522D02*
X133454819Y-89809522D01*
X134454819Y-89333332D02*
X133454819Y-89333332D01*
X134454819Y-88857142D02*
X133454819Y-88857142D01*
X133454819Y-88857142D02*
X134169104Y-88523809D01*
X134169104Y-88523809D02*
X133454819Y-88190476D01*
X133454819Y-88190476D02*
X134454819Y-88190476D01*
X134073866Y-87714285D02*
X134073866Y-86952381D01*
X133788152Y-86047619D02*
X134454819Y-86047619D01*
X133407200Y-86285714D02*
X134121485Y-86523809D01*
X134121485Y-86523809D02*
X134121485Y-85904762D01*
X133550057Y-85571428D02*
X133502438Y-85523809D01*
X133502438Y-85523809D02*
X133454819Y-85428571D01*
X133454819Y-85428571D02*
X133454819Y-85190476D01*
X133454819Y-85190476D02*
X133502438Y-85095238D01*
X133502438Y-85095238D02*
X133550057Y-85047619D01*
X133550057Y-85047619D02*
X133645295Y-85000000D01*
X133645295Y-85000000D02*
X133740533Y-85000000D01*
X133740533Y-85000000D02*
X133883390Y-85047619D01*
X133883390Y-85047619D02*
X134454819Y-85619047D01*
X134454819Y-85619047D02*
X134454819Y-85000000D01*
X133454819Y-84142857D02*
X133454819Y-84333333D01*
X133454819Y-84333333D02*
X133502438Y-84428571D01*
X133502438Y-84428571D02*
X133550057Y-84476190D01*
X133550057Y-84476190D02*
X133692914Y-84571428D01*
X133692914Y-84571428D02*
X133883390Y-84619047D01*
X133883390Y-84619047D02*
X134264342Y-84619047D01*
X134264342Y-84619047D02*
X134359580Y-84571428D01*
X134359580Y-84571428D02*
X134407200Y-84523809D01*
X134407200Y-84523809D02*
X134454819Y-84428571D01*
X134454819Y-84428571D02*
X134454819Y-84238095D01*
X134454819Y-84238095D02*
X134407200Y-84142857D01*
X134407200Y-84142857D02*
X134359580Y-84095238D01*
X134359580Y-84095238D02*
X134264342Y-84047619D01*
X134264342Y-84047619D02*
X134026247Y-84047619D01*
X134026247Y-84047619D02*
X133931009Y-84095238D01*
X133931009Y-84095238D02*
X133883390Y-84142857D01*
X133883390Y-84142857D02*
X133835771Y-84238095D01*
X133835771Y-84238095D02*
X133835771Y-84428571D01*
X133835771Y-84428571D02*
X133883390Y-84523809D01*
X133883390Y-84523809D02*
X133931009Y-84571428D01*
X133931009Y-84571428D02*
X134026247Y-84619047D01*
X133454819Y-83142857D02*
X133454819Y-83619047D01*
X133454819Y-83619047D02*
X133931009Y-83666666D01*
X133931009Y-83666666D02*
X133883390Y-83619047D01*
X133883390Y-83619047D02*
X133835771Y-83523809D01*
X133835771Y-83523809D02*
X133835771Y-83285714D01*
X133835771Y-83285714D02*
X133883390Y-83190476D01*
X133883390Y-83190476D02*
X133931009Y-83142857D01*
X133931009Y-83142857D02*
X134026247Y-83095238D01*
X134026247Y-83095238D02*
X134264342Y-83095238D01*
X134264342Y-83095238D02*
X134359580Y-83142857D01*
X134359580Y-83142857D02*
X134407200Y-83190476D01*
X134407200Y-83190476D02*
X134454819Y-83285714D01*
X134454819Y-83285714D02*
X134454819Y-83523809D01*
X134454819Y-83523809D02*
X134407200Y-83619047D01*
X134407200Y-83619047D02*
X134359580Y-83666666D01*
X133550057Y-82714285D02*
X133502438Y-82666666D01*
X133502438Y-82666666D02*
X133454819Y-82571428D01*
X133454819Y-82571428D02*
X133454819Y-82333333D01*
X133454819Y-82333333D02*
X133502438Y-82238095D01*
X133502438Y-82238095D02*
X133550057Y-82190476D01*
X133550057Y-82190476D02*
X133645295Y-82142857D01*
X133645295Y-82142857D02*
X133740533Y-82142857D01*
X133740533Y-82142857D02*
X133883390Y-82190476D01*
X133883390Y-82190476D02*
X134454819Y-82761904D01*
X134454819Y-82761904D02*
X134454819Y-82142857D01*
D11*
X136727409Y-86380952D02*
X137132171Y-86380952D01*
X137132171Y-86380952D02*
X137179790Y-86357142D01*
X137179790Y-86357142D02*
X137203600Y-86333333D01*
X137203600Y-86333333D02*
X137227409Y-86285714D01*
X137227409Y-86285714D02*
X137227409Y-86190476D01*
X137227409Y-86190476D02*
X137203600Y-86142857D01*
X137203600Y-86142857D02*
X137179790Y-86119047D01*
X137179790Y-86119047D02*
X137132171Y-86095238D01*
X137132171Y-86095238D02*
X136727409Y-86095238D01*
X136775028Y-85880951D02*
X136751219Y-85857142D01*
X136751219Y-85857142D02*
X136727409Y-85809523D01*
X136727409Y-85809523D02*
X136727409Y-85690475D01*
X136727409Y-85690475D02*
X136751219Y-85642856D01*
X136751219Y-85642856D02*
X136775028Y-85619047D01*
X136775028Y-85619047D02*
X136822647Y-85595237D01*
X136822647Y-85595237D02*
X136870266Y-85595237D01*
X136870266Y-85595237D02*
X136941695Y-85619047D01*
X136941695Y-85619047D02*
X137227409Y-85904761D01*
X137227409Y-85904761D02*
X137227409Y-85595237D01*
D10*
X135309523Y-66454819D02*
X134833333Y-66454819D01*
X134833333Y-66454819D02*
X134785714Y-66931009D01*
X134785714Y-66931009D02*
X134833333Y-66883390D01*
X134833333Y-66883390D02*
X134928571Y-66835771D01*
X134928571Y-66835771D02*
X135166666Y-66835771D01*
X135166666Y-66835771D02*
X135261904Y-66883390D01*
X135261904Y-66883390D02*
X135309523Y-66931009D01*
X135309523Y-66931009D02*
X135357142Y-67026247D01*
X135357142Y-67026247D02*
X135357142Y-67264342D01*
X135357142Y-67264342D02*
X135309523Y-67359580D01*
X135309523Y-67359580D02*
X135261904Y-67407200D01*
X135261904Y-67407200D02*
X135166666Y-67454819D01*
X135166666Y-67454819D02*
X134928571Y-67454819D01*
X134928571Y-67454819D02*
X134833333Y-67407200D01*
X134833333Y-67407200D02*
X134785714Y-67359580D01*
X136309523Y-67454819D02*
X135738095Y-67454819D01*
X136023809Y-67454819D02*
X136023809Y-66454819D01*
X136023809Y-66454819D02*
X135928571Y-66597676D01*
X135928571Y-66597676D02*
X135833333Y-66692914D01*
X135833333Y-66692914D02*
X135738095Y-66740533D01*
X136928571Y-66454819D02*
X137023809Y-66454819D01*
X137023809Y-66454819D02*
X137119047Y-66502438D01*
X137119047Y-66502438D02*
X137166666Y-66550057D01*
X137166666Y-66550057D02*
X137214285Y-66645295D01*
X137214285Y-66645295D02*
X137261904Y-66835771D01*
X137261904Y-66835771D02*
X137261904Y-67073866D01*
X137261904Y-67073866D02*
X137214285Y-67264342D01*
X137214285Y-67264342D02*
X137166666Y-67359580D01*
X137166666Y-67359580D02*
X137119047Y-67407200D01*
X137119047Y-67407200D02*
X137023809Y-67454819D01*
X137023809Y-67454819D02*
X136928571Y-67454819D01*
X136928571Y-67454819D02*
X136833333Y-67407200D01*
X136833333Y-67407200D02*
X136785714Y-67359580D01*
X136785714Y-67359580D02*
X136738095Y-67264342D01*
X136738095Y-67264342D02*
X136690476Y-67073866D01*
X136690476Y-67073866D02*
X136690476Y-66835771D01*
X136690476Y-66835771D02*
X136738095Y-66645295D01*
X136738095Y-66645295D02*
X136785714Y-66550057D01*
X136785714Y-66550057D02*
X136833333Y-66502438D01*
X136833333Y-66502438D02*
X136928571Y-66454819D01*
X137880952Y-66454819D02*
X137976190Y-66454819D01*
X137976190Y-66454819D02*
X138071428Y-66502438D01*
X138071428Y-66502438D02*
X138119047Y-66550057D01*
X138119047Y-66550057D02*
X138166666Y-66645295D01*
X138166666Y-66645295D02*
X138214285Y-66835771D01*
X138214285Y-66835771D02*
X138214285Y-67073866D01*
X138214285Y-67073866D02*
X138166666Y-67264342D01*
X138166666Y-67264342D02*
X138119047Y-67359580D01*
X138119047Y-67359580D02*
X138071428Y-67407200D01*
X138071428Y-67407200D02*
X137976190Y-67454819D01*
X137976190Y-67454819D02*
X137880952Y-67454819D01*
X137880952Y-67454819D02*
X137785714Y-67407200D01*
X137785714Y-67407200D02*
X137738095Y-67359580D01*
X137738095Y-67359580D02*
X137690476Y-67264342D01*
X137690476Y-67264342D02*
X137642857Y-67073866D01*
X137642857Y-67073866D02*
X137642857Y-66835771D01*
X137642857Y-66835771D02*
X137690476Y-66645295D01*
X137690476Y-66645295D02*
X137738095Y-66550057D01*
X137738095Y-66550057D02*
X137785714Y-66502438D01*
X137785714Y-66502438D02*
X137880952Y-66454819D01*
D12*
X136433333Y-65681927D02*
X136300000Y-65491451D01*
X136204762Y-65681927D02*
X136204762Y-65281927D01*
X136204762Y-65281927D02*
X136357143Y-65281927D01*
X136357143Y-65281927D02*
X136395238Y-65300975D01*
X136395238Y-65300975D02*
X136414285Y-65320022D01*
X136414285Y-65320022D02*
X136433333Y-65358118D01*
X136433333Y-65358118D02*
X136433333Y-65415260D01*
X136433333Y-65415260D02*
X136414285Y-65453356D01*
X136414285Y-65453356D02*
X136395238Y-65472403D01*
X136395238Y-65472403D02*
X136357143Y-65491451D01*
X136357143Y-65491451D02*
X136204762Y-65491451D01*
X136585714Y-65320022D02*
X136604762Y-65300975D01*
X136604762Y-65300975D02*
X136642857Y-65281927D01*
X136642857Y-65281927D02*
X136738095Y-65281927D01*
X136738095Y-65281927D02*
X136776190Y-65300975D01*
X136776190Y-65300975D02*
X136795238Y-65320022D01*
X136795238Y-65320022D02*
X136814285Y-65358118D01*
X136814285Y-65358118D02*
X136814285Y-65396213D01*
X136814285Y-65396213D02*
X136795238Y-65453356D01*
X136795238Y-65453356D02*
X136566666Y-65681927D01*
X136566666Y-65681927D02*
X136814285Y-65681927D01*
D10*
X140858152Y-65928571D02*
X141524819Y-65928571D01*
X140477200Y-66166666D02*
X141191485Y-66404761D01*
X141191485Y-66404761D02*
X141191485Y-65785714D01*
X141429580Y-65404761D02*
X141477200Y-65357142D01*
X141477200Y-65357142D02*
X141524819Y-65404761D01*
X141524819Y-65404761D02*
X141477200Y-65452380D01*
X141477200Y-65452380D02*
X141429580Y-65404761D01*
X141429580Y-65404761D02*
X141524819Y-65404761D01*
X140524819Y-65023809D02*
X140524819Y-64357143D01*
X140524819Y-64357143D02*
X141524819Y-64785714D01*
X141524819Y-63976190D02*
X140524819Y-63976190D01*
X141143866Y-63880952D02*
X141524819Y-63595238D01*
X140858152Y-63595238D02*
X141239104Y-63976190D01*
D12*
X142681927Y-65066666D02*
X142491451Y-65199999D01*
X142681927Y-65295237D02*
X142281927Y-65295237D01*
X142281927Y-65295237D02*
X142281927Y-65142856D01*
X142281927Y-65142856D02*
X142300975Y-65104761D01*
X142300975Y-65104761D02*
X142320022Y-65085714D01*
X142320022Y-65085714D02*
X142358118Y-65066666D01*
X142358118Y-65066666D02*
X142415260Y-65066666D01*
X142415260Y-65066666D02*
X142453356Y-65085714D01*
X142453356Y-65085714D02*
X142472403Y-65104761D01*
X142472403Y-65104761D02*
X142491451Y-65142856D01*
X142491451Y-65142856D02*
X142491451Y-65295237D01*
X142281927Y-64933333D02*
X142281927Y-64685714D01*
X142281927Y-64685714D02*
X142434308Y-64819047D01*
X142434308Y-64819047D02*
X142434308Y-64761904D01*
X142434308Y-64761904D02*
X142453356Y-64723809D01*
X142453356Y-64723809D02*
X142472403Y-64704761D01*
X142472403Y-64704761D02*
X142510499Y-64685714D01*
X142510499Y-64685714D02*
X142605737Y-64685714D01*
X142605737Y-64685714D02*
X142643832Y-64704761D01*
X142643832Y-64704761D02*
X142662880Y-64723809D01*
X142662880Y-64723809D02*
X142681927Y-64761904D01*
X142681927Y-64761904D02*
X142681927Y-64876190D01*
X142681927Y-64876190D02*
X142662880Y-64914285D01*
X142662880Y-64914285D02*
X142643832Y-64933333D01*
D10*
X145718152Y-65928571D02*
X146384819Y-65928571D01*
X145337200Y-66166666D02*
X146051485Y-66404761D01*
X146051485Y-66404761D02*
X146051485Y-65785714D01*
X146289580Y-65404761D02*
X146337200Y-65357142D01*
X146337200Y-65357142D02*
X146384819Y-65404761D01*
X146384819Y-65404761D02*
X146337200Y-65452380D01*
X146337200Y-65452380D02*
X146289580Y-65404761D01*
X146289580Y-65404761D02*
X146384819Y-65404761D01*
X145384819Y-65023809D02*
X145384819Y-64357143D01*
X145384819Y-64357143D02*
X146384819Y-64785714D01*
X146384819Y-63976190D02*
X145384819Y-63976190D01*
X146003866Y-63880952D02*
X146384819Y-63595238D01*
X145718152Y-63595238D02*
X146099104Y-63976190D01*
D12*
X144681927Y-65066666D02*
X144491451Y-65199999D01*
X144681927Y-65295237D02*
X144281927Y-65295237D01*
X144281927Y-65295237D02*
X144281927Y-65142856D01*
X144281927Y-65142856D02*
X144300975Y-65104761D01*
X144300975Y-65104761D02*
X144320022Y-65085714D01*
X144320022Y-65085714D02*
X144358118Y-65066666D01*
X144358118Y-65066666D02*
X144415260Y-65066666D01*
X144415260Y-65066666D02*
X144453356Y-65085714D01*
X144453356Y-65085714D02*
X144472403Y-65104761D01*
X144472403Y-65104761D02*
X144491451Y-65142856D01*
X144491451Y-65142856D02*
X144491451Y-65295237D01*
X144415260Y-64723809D02*
X144681927Y-64723809D01*
X144262880Y-64819047D02*
X144548594Y-64914285D01*
X144548594Y-64914285D02*
X144548594Y-64666666D01*
D10*
X155914819Y-79071428D02*
X156629104Y-79071428D01*
X156629104Y-79071428D02*
X156771961Y-79119047D01*
X156771961Y-79119047D02*
X156867200Y-79214285D01*
X156867200Y-79214285D02*
X156914819Y-79357142D01*
X156914819Y-79357142D02*
X156914819Y-79452380D01*
X157010057Y-78833333D02*
X157010057Y-78071428D01*
X155914819Y-77833332D02*
X156724342Y-77833332D01*
X156724342Y-77833332D02*
X156819580Y-77785713D01*
X156819580Y-77785713D02*
X156867200Y-77738094D01*
X156867200Y-77738094D02*
X156914819Y-77642856D01*
X156914819Y-77642856D02*
X156914819Y-77452380D01*
X156914819Y-77452380D02*
X156867200Y-77357142D01*
X156867200Y-77357142D02*
X156819580Y-77309523D01*
X156819580Y-77309523D02*
X156724342Y-77261904D01*
X156724342Y-77261904D02*
X155914819Y-77261904D01*
X156629104Y-76833332D02*
X156629104Y-76357142D01*
X156914819Y-76928570D02*
X155914819Y-76595237D01*
X155914819Y-76595237D02*
X156914819Y-76261904D01*
X156914819Y-75357142D02*
X156438628Y-75690475D01*
X156914819Y-75928570D02*
X155914819Y-75928570D01*
X155914819Y-75928570D02*
X155914819Y-75547618D01*
X155914819Y-75547618D02*
X155962438Y-75452380D01*
X155962438Y-75452380D02*
X156010057Y-75404761D01*
X156010057Y-75404761D02*
X156105295Y-75357142D01*
X156105295Y-75357142D02*
X156248152Y-75357142D01*
X156248152Y-75357142D02*
X156343390Y-75404761D01*
X156343390Y-75404761D02*
X156391009Y-75452380D01*
X156391009Y-75452380D02*
X156438628Y-75547618D01*
X156438628Y-75547618D02*
X156438628Y-75928570D01*
X155914819Y-75071427D02*
X155914819Y-74499999D01*
X156914819Y-74785713D02*
X155914819Y-74785713D01*
X149936666Y-76454819D02*
X149936666Y-77169104D01*
X149936666Y-77169104D02*
X149889047Y-77311961D01*
X149889047Y-77311961D02*
X149793809Y-77407200D01*
X149793809Y-77407200D02*
X149650952Y-77454819D01*
X149650952Y-77454819D02*
X149555714Y-77454819D01*
X150317619Y-76454819D02*
X150936666Y-76454819D01*
X150936666Y-76454819D02*
X150603333Y-76835771D01*
X150603333Y-76835771D02*
X150746190Y-76835771D01*
X150746190Y-76835771D02*
X150841428Y-76883390D01*
X150841428Y-76883390D02*
X150889047Y-76931009D01*
X150889047Y-76931009D02*
X150936666Y-77026247D01*
X150936666Y-77026247D02*
X150936666Y-77264342D01*
X150936666Y-77264342D02*
X150889047Y-77359580D01*
X150889047Y-77359580D02*
X150841428Y-77407200D01*
X150841428Y-77407200D02*
X150746190Y-77454819D01*
X150746190Y-77454819D02*
X150460476Y-77454819D01*
X150460476Y-77454819D02*
X150365238Y-77407200D01*
X150365238Y-77407200D02*
X150317619Y-77359580D01*
X144904761Y-74384819D02*
X144333333Y-74384819D01*
X144619047Y-74384819D02*
X144619047Y-73384819D01*
X144619047Y-73384819D02*
X144523809Y-73527676D01*
X144523809Y-73527676D02*
X144428571Y-73622914D01*
X144428571Y-73622914D02*
X144333333Y-73670533D01*
X145523809Y-73384819D02*
X145619047Y-73384819D01*
X145619047Y-73384819D02*
X145714285Y-73432438D01*
X145714285Y-73432438D02*
X145761904Y-73480057D01*
X145761904Y-73480057D02*
X145809523Y-73575295D01*
X145809523Y-73575295D02*
X145857142Y-73765771D01*
X145857142Y-73765771D02*
X145857142Y-74003866D01*
X145857142Y-74003866D02*
X145809523Y-74194342D01*
X145809523Y-74194342D02*
X145761904Y-74289580D01*
X145761904Y-74289580D02*
X145714285Y-74337200D01*
X145714285Y-74337200D02*
X145619047Y-74384819D01*
X145619047Y-74384819D02*
X145523809Y-74384819D01*
X145523809Y-74384819D02*
X145428571Y-74337200D01*
X145428571Y-74337200D02*
X145380952Y-74289580D01*
X145380952Y-74289580D02*
X145333333Y-74194342D01*
X145333333Y-74194342D02*
X145285714Y-74003866D01*
X145285714Y-74003866D02*
X145285714Y-73765771D01*
X145285714Y-73765771D02*
X145333333Y-73575295D01*
X145333333Y-73575295D02*
X145380952Y-73480057D01*
X145380952Y-73480057D02*
X145428571Y-73432438D01*
X145428571Y-73432438D02*
X145523809Y-73384819D01*
X146285714Y-74384819D02*
X146285714Y-73384819D01*
X146380952Y-74003866D02*
X146666666Y-74384819D01*
X146666666Y-73718152D02*
X146285714Y-74099104D01*
D12*
X145433333Y-72681927D02*
X145300000Y-72491451D01*
X145204762Y-72681927D02*
X145204762Y-72281927D01*
X145204762Y-72281927D02*
X145357143Y-72281927D01*
X145357143Y-72281927D02*
X145395238Y-72300975D01*
X145395238Y-72300975D02*
X145414285Y-72320022D01*
X145414285Y-72320022D02*
X145433333Y-72358118D01*
X145433333Y-72358118D02*
X145433333Y-72415260D01*
X145433333Y-72415260D02*
X145414285Y-72453356D01*
X145414285Y-72453356D02*
X145395238Y-72472403D01*
X145395238Y-72472403D02*
X145357143Y-72491451D01*
X145357143Y-72491451D02*
X145204762Y-72491451D01*
X145776190Y-72281927D02*
X145700000Y-72281927D01*
X145700000Y-72281927D02*
X145661904Y-72300975D01*
X145661904Y-72300975D02*
X145642857Y-72320022D01*
X145642857Y-72320022D02*
X145604762Y-72377165D01*
X145604762Y-72377165D02*
X145585714Y-72453356D01*
X145585714Y-72453356D02*
X145585714Y-72605737D01*
X145585714Y-72605737D02*
X145604762Y-72643832D01*
X145604762Y-72643832D02*
X145623809Y-72662880D01*
X145623809Y-72662880D02*
X145661904Y-72681927D01*
X145661904Y-72681927D02*
X145738095Y-72681927D01*
X145738095Y-72681927D02*
X145776190Y-72662880D01*
X145776190Y-72662880D02*
X145795238Y-72643832D01*
X145795238Y-72643832D02*
X145814285Y-72605737D01*
X145814285Y-72605737D02*
X145814285Y-72510499D01*
X145814285Y-72510499D02*
X145795238Y-72472403D01*
X145795238Y-72472403D02*
X145776190Y-72453356D01*
X145776190Y-72453356D02*
X145738095Y-72434308D01*
X145738095Y-72434308D02*
X145661904Y-72434308D01*
X145661904Y-72434308D02*
X145623809Y-72453356D01*
X145623809Y-72453356D02*
X145604762Y-72472403D01*
X145604762Y-72472403D02*
X145585714Y-72510499D01*
D10*
X122809524Y-82204819D02*
X123380952Y-82204819D01*
X123095238Y-83204819D02*
X123095238Y-82204819D01*
X123714286Y-83204819D02*
X123714286Y-82204819D01*
X123714286Y-82204819D02*
X124095238Y-82204819D01*
X124095238Y-82204819D02*
X124190476Y-82252438D01*
X124190476Y-82252438D02*
X124238095Y-82300057D01*
X124238095Y-82300057D02*
X124285714Y-82395295D01*
X124285714Y-82395295D02*
X124285714Y-82538152D01*
X124285714Y-82538152D02*
X124238095Y-82633390D01*
X124238095Y-82633390D02*
X124190476Y-82681009D01*
X124190476Y-82681009D02*
X124095238Y-82728628D01*
X124095238Y-82728628D02*
X123714286Y-82728628D01*
X124476191Y-83300057D02*
X125238095Y-83300057D01*
X126000000Y-82252438D02*
X125904762Y-82204819D01*
X125904762Y-82204819D02*
X125761905Y-82204819D01*
X125761905Y-82204819D02*
X125619048Y-82252438D01*
X125619048Y-82252438D02*
X125523810Y-82347676D01*
X125523810Y-82347676D02*
X125476191Y-82442914D01*
X125476191Y-82442914D02*
X125428572Y-82633390D01*
X125428572Y-82633390D02*
X125428572Y-82776247D01*
X125428572Y-82776247D02*
X125476191Y-82966723D01*
X125476191Y-82966723D02*
X125523810Y-83061961D01*
X125523810Y-83061961D02*
X125619048Y-83157200D01*
X125619048Y-83157200D02*
X125761905Y-83204819D01*
X125761905Y-83204819D02*
X125857143Y-83204819D01*
X125857143Y-83204819D02*
X126000000Y-83157200D01*
X126000000Y-83157200D02*
X126047619Y-83109580D01*
X126047619Y-83109580D02*
X126047619Y-82776247D01*
X126047619Y-82776247D02*
X125857143Y-82776247D01*
X126476191Y-83204819D02*
X126476191Y-82204819D01*
X126476191Y-82204819D02*
X127047619Y-83204819D01*
X127047619Y-83204819D02*
X127047619Y-82204819D01*
X127523810Y-83204819D02*
X127523810Y-82204819D01*
X127523810Y-82204819D02*
X127761905Y-82204819D01*
X127761905Y-82204819D02*
X127904762Y-82252438D01*
X127904762Y-82252438D02*
X128000000Y-82347676D01*
X128000000Y-82347676D02*
X128047619Y-82442914D01*
X128047619Y-82442914D02*
X128095238Y-82633390D01*
X128095238Y-82633390D02*
X128095238Y-82776247D01*
X128095238Y-82776247D02*
X128047619Y-82966723D01*
X128047619Y-82966723D02*
X128000000Y-83061961D01*
X128000000Y-83061961D02*
X127904762Y-83157200D01*
X127904762Y-83157200D02*
X127761905Y-83204819D01*
X127761905Y-83204819D02*
X127523810Y-83204819D01*
X124238095Y-82454819D02*
X124809523Y-82454819D01*
X124523809Y-83454819D02*
X124523809Y-82454819D01*
X125142857Y-83454819D02*
X125142857Y-82454819D01*
X125142857Y-82454819D02*
X125523809Y-82454819D01*
X125523809Y-82454819D02*
X125619047Y-82502438D01*
X125619047Y-82502438D02*
X125666666Y-82550057D01*
X125666666Y-82550057D02*
X125714285Y-82645295D01*
X125714285Y-82645295D02*
X125714285Y-82788152D01*
X125714285Y-82788152D02*
X125666666Y-82883390D01*
X125666666Y-82883390D02*
X125619047Y-82931009D01*
X125619047Y-82931009D02*
X125523809Y-82978628D01*
X125523809Y-82978628D02*
X125142857Y-82978628D01*
X126619047Y-82454819D02*
X126142857Y-82454819D01*
X126142857Y-82454819D02*
X126095238Y-82931009D01*
X126095238Y-82931009D02*
X126142857Y-82883390D01*
X126142857Y-82883390D02*
X126238095Y-82835771D01*
X126238095Y-82835771D02*
X126476190Y-82835771D01*
X126476190Y-82835771D02*
X126571428Y-82883390D01*
X126571428Y-82883390D02*
X126619047Y-82931009D01*
X126619047Y-82931009D02*
X126666666Y-83026247D01*
X126666666Y-83026247D02*
X126666666Y-83264342D01*
X126666666Y-83264342D02*
X126619047Y-83359580D01*
X126619047Y-83359580D02*
X126571428Y-83407200D01*
X126571428Y-83407200D02*
X126476190Y-83454819D01*
X126476190Y-83454819D02*
X126238095Y-83454819D01*
X126238095Y-83454819D02*
X126142857Y-83407200D01*
X126142857Y-83407200D02*
X126095238Y-83359580D01*
X135134523Y-64384819D02*
X134658333Y-64384819D01*
X134658333Y-64384819D02*
X134610714Y-64861009D01*
X134610714Y-64861009D02*
X134658333Y-64813390D01*
X134658333Y-64813390D02*
X134753571Y-64765771D01*
X134753571Y-64765771D02*
X134991666Y-64765771D01*
X134991666Y-64765771D02*
X135086904Y-64813390D01*
X135086904Y-64813390D02*
X135134523Y-64861009D01*
X135134523Y-64861009D02*
X135182142Y-64956247D01*
X135182142Y-64956247D02*
X135182142Y-65194342D01*
X135182142Y-65194342D02*
X135134523Y-65289580D01*
X135134523Y-65289580D02*
X135086904Y-65337200D01*
X135086904Y-65337200D02*
X134991666Y-65384819D01*
X134991666Y-65384819D02*
X134753571Y-65384819D01*
X134753571Y-65384819D02*
X134658333Y-65337200D01*
X134658333Y-65337200D02*
X134610714Y-65289580D01*
X136134523Y-65384819D02*
X135563095Y-65384819D01*
X135848809Y-65384819D02*
X135848809Y-64384819D01*
X135848809Y-64384819D02*
X135753571Y-64527676D01*
X135753571Y-64527676D02*
X135658333Y-64622914D01*
X135658333Y-64622914D02*
X135563095Y-64670533D01*
X136753571Y-64384819D02*
X136848809Y-64384819D01*
X136848809Y-64384819D02*
X136944047Y-64432438D01*
X136944047Y-64432438D02*
X136991666Y-64480057D01*
X136991666Y-64480057D02*
X137039285Y-64575295D01*
X137039285Y-64575295D02*
X137086904Y-64765771D01*
X137086904Y-64765771D02*
X137086904Y-65003866D01*
X137086904Y-65003866D02*
X137039285Y-65194342D01*
X137039285Y-65194342D02*
X136991666Y-65289580D01*
X136991666Y-65289580D02*
X136944047Y-65337200D01*
X136944047Y-65337200D02*
X136848809Y-65384819D01*
X136848809Y-65384819D02*
X136753571Y-65384819D01*
X136753571Y-65384819D02*
X136658333Y-65337200D01*
X136658333Y-65337200D02*
X136610714Y-65289580D01*
X136610714Y-65289580D02*
X136563095Y-65194342D01*
X136563095Y-65194342D02*
X136515476Y-65003866D01*
X136515476Y-65003866D02*
X136515476Y-64765771D01*
X136515476Y-64765771D02*
X136563095Y-64575295D01*
X136563095Y-64575295D02*
X136610714Y-64480057D01*
X136610714Y-64480057D02*
X136658333Y-64432438D01*
X136658333Y-64432438D02*
X136753571Y-64384819D01*
X137705952Y-64384819D02*
X137801190Y-64384819D01*
X137801190Y-64384819D02*
X137896428Y-64432438D01*
X137896428Y-64432438D02*
X137944047Y-64480057D01*
X137944047Y-64480057D02*
X137991666Y-64575295D01*
X137991666Y-64575295D02*
X138039285Y-64765771D01*
X138039285Y-64765771D02*
X138039285Y-65003866D01*
X138039285Y-65003866D02*
X137991666Y-65194342D01*
X137991666Y-65194342D02*
X137944047Y-65289580D01*
X137944047Y-65289580D02*
X137896428Y-65337200D01*
X137896428Y-65337200D02*
X137801190Y-65384819D01*
X137801190Y-65384819D02*
X137705952Y-65384819D01*
X137705952Y-65384819D02*
X137610714Y-65337200D01*
X137610714Y-65337200D02*
X137563095Y-65289580D01*
X137563095Y-65289580D02*
X137515476Y-65194342D01*
X137515476Y-65194342D02*
X137467857Y-65003866D01*
X137467857Y-65003866D02*
X137467857Y-64765771D01*
X137467857Y-64765771D02*
X137515476Y-64575295D01*
X137515476Y-64575295D02*
X137563095Y-64480057D01*
X137563095Y-64480057D02*
X137610714Y-64432438D01*
X137610714Y-64432438D02*
X137705952Y-64384819D01*
D12*
X136258333Y-63681927D02*
X136125000Y-63491451D01*
X136029762Y-63681927D02*
X136029762Y-63281927D01*
X136029762Y-63281927D02*
X136182143Y-63281927D01*
X136182143Y-63281927D02*
X136220238Y-63300975D01*
X136220238Y-63300975D02*
X136239285Y-63320022D01*
X136239285Y-63320022D02*
X136258333Y-63358118D01*
X136258333Y-63358118D02*
X136258333Y-63415260D01*
X136258333Y-63415260D02*
X136239285Y-63453356D01*
X136239285Y-63453356D02*
X136220238Y-63472403D01*
X136220238Y-63472403D02*
X136182143Y-63491451D01*
X136182143Y-63491451D02*
X136029762Y-63491451D01*
X136639285Y-63681927D02*
X136410714Y-63681927D01*
X136525000Y-63681927D02*
X136525000Y-63281927D01*
X136525000Y-63281927D02*
X136486904Y-63339070D01*
X136486904Y-63339070D02*
X136448809Y-63377165D01*
X136448809Y-63377165D02*
X136410714Y-63396213D01*
D10*
X132384819Y-87214285D02*
X132384819Y-87119047D01*
X132384819Y-87119047D02*
X132432438Y-87023809D01*
X132432438Y-87023809D02*
X132480057Y-86976190D01*
X132480057Y-86976190D02*
X132575295Y-86928571D01*
X132575295Y-86928571D02*
X132765771Y-86880952D01*
X132765771Y-86880952D02*
X133003866Y-86880952D01*
X133003866Y-86880952D02*
X133194342Y-86928571D01*
X133194342Y-86928571D02*
X133289580Y-86976190D01*
X133289580Y-86976190D02*
X133337200Y-87023809D01*
X133337200Y-87023809D02*
X133384819Y-87119047D01*
X133384819Y-87119047D02*
X133384819Y-87214285D01*
X133384819Y-87214285D02*
X133337200Y-87309523D01*
X133337200Y-87309523D02*
X133289580Y-87357142D01*
X133289580Y-87357142D02*
X133194342Y-87404761D01*
X133194342Y-87404761D02*
X133003866Y-87452380D01*
X133003866Y-87452380D02*
X132765771Y-87452380D01*
X132765771Y-87452380D02*
X132575295Y-87404761D01*
X132575295Y-87404761D02*
X132480057Y-87357142D01*
X132480057Y-87357142D02*
X132432438Y-87309523D01*
X132432438Y-87309523D02*
X132384819Y-87214285D01*
X133289580Y-86452380D02*
X133337200Y-86404761D01*
X133337200Y-86404761D02*
X133384819Y-86452380D01*
X133384819Y-86452380D02*
X133337200Y-86499999D01*
X133337200Y-86499999D02*
X133289580Y-86452380D01*
X133289580Y-86452380D02*
X133384819Y-86452380D01*
X133384819Y-85452381D02*
X133384819Y-86023809D01*
X133384819Y-85738095D02*
X132384819Y-85738095D01*
X132384819Y-85738095D02*
X132527676Y-85833333D01*
X132527676Y-85833333D02*
X132622914Y-85928571D01*
X132622914Y-85928571D02*
X132670533Y-86023809D01*
X132718152Y-84595238D02*
X133384819Y-84595238D01*
X132718152Y-85023809D02*
X133241961Y-85023809D01*
X133241961Y-85023809D02*
X133337200Y-84976190D01*
X133337200Y-84976190D02*
X133384819Y-84880952D01*
X133384819Y-84880952D02*
X133384819Y-84738095D01*
X133384819Y-84738095D02*
X133337200Y-84642857D01*
X133337200Y-84642857D02*
X133289580Y-84595238D01*
D12*
X131643832Y-86066666D02*
X131662880Y-86085714D01*
X131662880Y-86085714D02*
X131681927Y-86142856D01*
X131681927Y-86142856D02*
X131681927Y-86180952D01*
X131681927Y-86180952D02*
X131662880Y-86238095D01*
X131662880Y-86238095D02*
X131624784Y-86276190D01*
X131624784Y-86276190D02*
X131586689Y-86295237D01*
X131586689Y-86295237D02*
X131510499Y-86314285D01*
X131510499Y-86314285D02*
X131453356Y-86314285D01*
X131453356Y-86314285D02*
X131377165Y-86295237D01*
X131377165Y-86295237D02*
X131339070Y-86276190D01*
X131339070Y-86276190D02*
X131300975Y-86238095D01*
X131300975Y-86238095D02*
X131281927Y-86180952D01*
X131281927Y-86180952D02*
X131281927Y-86142856D01*
X131281927Y-86142856D02*
X131300975Y-86085714D01*
X131300975Y-86085714D02*
X131320022Y-86066666D01*
X131281927Y-85704761D02*
X131281927Y-85895237D01*
X131281927Y-85895237D02*
X131472403Y-85914285D01*
X131472403Y-85914285D02*
X131453356Y-85895237D01*
X131453356Y-85895237D02*
X131434308Y-85857142D01*
X131434308Y-85857142D02*
X131434308Y-85761904D01*
X131434308Y-85761904D02*
X131453356Y-85723809D01*
X131453356Y-85723809D02*
X131472403Y-85704761D01*
X131472403Y-85704761D02*
X131510499Y-85685714D01*
X131510499Y-85685714D02*
X131605737Y-85685714D01*
X131605737Y-85685714D02*
X131643832Y-85704761D01*
X131643832Y-85704761D02*
X131662880Y-85723809D01*
X131662880Y-85723809D02*
X131681927Y-85761904D01*
X131681927Y-85761904D02*
X131681927Y-85857142D01*
X131681927Y-85857142D02*
X131662880Y-85895237D01*
X131662880Y-85895237D02*
X131643832Y-85914285D01*
D10*
X131357142Y-79524819D02*
X130785714Y-79524819D01*
X131071428Y-79524819D02*
X131071428Y-78524819D01*
X131071428Y-78524819D02*
X130976190Y-78667676D01*
X130976190Y-78667676D02*
X130880952Y-78762914D01*
X130880952Y-78762914D02*
X130785714Y-78810533D01*
X131976190Y-78524819D02*
X132071428Y-78524819D01*
X132071428Y-78524819D02*
X132166666Y-78572438D01*
X132166666Y-78572438D02*
X132214285Y-78620057D01*
X132214285Y-78620057D02*
X132261904Y-78715295D01*
X132261904Y-78715295D02*
X132309523Y-78905771D01*
X132309523Y-78905771D02*
X132309523Y-79143866D01*
X132309523Y-79143866D02*
X132261904Y-79334342D01*
X132261904Y-79334342D02*
X132214285Y-79429580D01*
X132214285Y-79429580D02*
X132166666Y-79477200D01*
X132166666Y-79477200D02*
X132071428Y-79524819D01*
X132071428Y-79524819D02*
X131976190Y-79524819D01*
X131976190Y-79524819D02*
X131880952Y-79477200D01*
X131880952Y-79477200D02*
X131833333Y-79429580D01*
X131833333Y-79429580D02*
X131785714Y-79334342D01*
X131785714Y-79334342D02*
X131738095Y-79143866D01*
X131738095Y-79143866D02*
X131738095Y-78905771D01*
X131738095Y-78905771D02*
X131785714Y-78715295D01*
X131785714Y-78715295D02*
X131833333Y-78620057D01*
X131833333Y-78620057D02*
X131880952Y-78572438D01*
X131880952Y-78572438D02*
X131976190Y-78524819D01*
X133166666Y-78858152D02*
X133166666Y-79524819D01*
X132738095Y-78858152D02*
X132738095Y-79381961D01*
X132738095Y-79381961D02*
X132785714Y-79477200D01*
X132785714Y-79477200D02*
X132880952Y-79524819D01*
X132880952Y-79524819D02*
X133023809Y-79524819D01*
X133023809Y-79524819D02*
X133119047Y-79477200D01*
X133119047Y-79477200D02*
X133166666Y-79429580D01*
D12*
X131933333Y-80643832D02*
X131914285Y-80662880D01*
X131914285Y-80662880D02*
X131857143Y-80681927D01*
X131857143Y-80681927D02*
X131819047Y-80681927D01*
X131819047Y-80681927D02*
X131761904Y-80662880D01*
X131761904Y-80662880D02*
X131723809Y-80624784D01*
X131723809Y-80624784D02*
X131704762Y-80586689D01*
X131704762Y-80586689D02*
X131685714Y-80510499D01*
X131685714Y-80510499D02*
X131685714Y-80453356D01*
X131685714Y-80453356D02*
X131704762Y-80377165D01*
X131704762Y-80377165D02*
X131723809Y-80339070D01*
X131723809Y-80339070D02*
X131761904Y-80300975D01*
X131761904Y-80300975D02*
X131819047Y-80281927D01*
X131819047Y-80281927D02*
X131857143Y-80281927D01*
X131857143Y-80281927D02*
X131914285Y-80300975D01*
X131914285Y-80300975D02*
X131933333Y-80320022D01*
X132085714Y-80320022D02*
X132104762Y-80300975D01*
X132104762Y-80300975D02*
X132142857Y-80281927D01*
X132142857Y-80281927D02*
X132238095Y-80281927D01*
X132238095Y-80281927D02*
X132276190Y-80300975D01*
X132276190Y-80300975D02*
X132295238Y-80320022D01*
X132295238Y-80320022D02*
X132314285Y-80358118D01*
X132314285Y-80358118D02*
X132314285Y-80396213D01*
X132314285Y-80396213D02*
X132295238Y-80453356D01*
X132295238Y-80453356D02*
X132066666Y-80681927D01*
X132066666Y-80681927D02*
X132314285Y-80681927D01*
D10*
X132024819Y-87214285D02*
X132024819Y-87119047D01*
X132024819Y-87119047D02*
X132072438Y-87023809D01*
X132072438Y-87023809D02*
X132120057Y-86976190D01*
X132120057Y-86976190D02*
X132215295Y-86928571D01*
X132215295Y-86928571D02*
X132405771Y-86880952D01*
X132405771Y-86880952D02*
X132643866Y-86880952D01*
X132643866Y-86880952D02*
X132834342Y-86928571D01*
X132834342Y-86928571D02*
X132929580Y-86976190D01*
X132929580Y-86976190D02*
X132977200Y-87023809D01*
X132977200Y-87023809D02*
X133024819Y-87119047D01*
X133024819Y-87119047D02*
X133024819Y-87214285D01*
X133024819Y-87214285D02*
X132977200Y-87309523D01*
X132977200Y-87309523D02*
X132929580Y-87357142D01*
X132929580Y-87357142D02*
X132834342Y-87404761D01*
X132834342Y-87404761D02*
X132643866Y-87452380D01*
X132643866Y-87452380D02*
X132405771Y-87452380D01*
X132405771Y-87452380D02*
X132215295Y-87404761D01*
X132215295Y-87404761D02*
X132120057Y-87357142D01*
X132120057Y-87357142D02*
X132072438Y-87309523D01*
X132072438Y-87309523D02*
X132024819Y-87214285D01*
X132929580Y-86452380D02*
X132977200Y-86404761D01*
X132977200Y-86404761D02*
X133024819Y-86452380D01*
X133024819Y-86452380D02*
X132977200Y-86499999D01*
X132977200Y-86499999D02*
X132929580Y-86452380D01*
X132929580Y-86452380D02*
X133024819Y-86452380D01*
X133024819Y-85452381D02*
X133024819Y-86023809D01*
X133024819Y-85738095D02*
X132024819Y-85738095D01*
X132024819Y-85738095D02*
X132167676Y-85833333D01*
X132167676Y-85833333D02*
X132262914Y-85928571D01*
X132262914Y-85928571D02*
X132310533Y-86023809D01*
X132358152Y-84595238D02*
X133024819Y-84595238D01*
X132358152Y-85023809D02*
X132881961Y-85023809D01*
X132881961Y-85023809D02*
X132977200Y-84976190D01*
X132977200Y-84976190D02*
X133024819Y-84880952D01*
X133024819Y-84880952D02*
X133024819Y-84738095D01*
X133024819Y-84738095D02*
X132977200Y-84642857D01*
X132977200Y-84642857D02*
X132929580Y-84595238D01*
D12*
X134143832Y-86066666D02*
X134162880Y-86085714D01*
X134162880Y-86085714D02*
X134181927Y-86142856D01*
X134181927Y-86142856D02*
X134181927Y-86180952D01*
X134181927Y-86180952D02*
X134162880Y-86238095D01*
X134162880Y-86238095D02*
X134124784Y-86276190D01*
X134124784Y-86276190D02*
X134086689Y-86295237D01*
X134086689Y-86295237D02*
X134010499Y-86314285D01*
X134010499Y-86314285D02*
X133953356Y-86314285D01*
X133953356Y-86314285D02*
X133877165Y-86295237D01*
X133877165Y-86295237D02*
X133839070Y-86276190D01*
X133839070Y-86276190D02*
X133800975Y-86238095D01*
X133800975Y-86238095D02*
X133781927Y-86180952D01*
X133781927Y-86180952D02*
X133781927Y-86142856D01*
X133781927Y-86142856D02*
X133800975Y-86085714D01*
X133800975Y-86085714D02*
X133820022Y-86066666D01*
X133915260Y-85723809D02*
X134181927Y-85723809D01*
X133762880Y-85819047D02*
X134048594Y-85914285D01*
X134048594Y-85914285D02*
X134048594Y-85666666D01*
D10*
X128410119Y-75769104D02*
X128886309Y-75769104D01*
X128314881Y-76054819D02*
X128648214Y-75054819D01*
X128648214Y-75054819D02*
X128981547Y-76054819D01*
X129314881Y-76054819D02*
X129314881Y-75054819D01*
X129314881Y-75054819D02*
X129695833Y-75054819D01*
X129695833Y-75054819D02*
X129791071Y-75102438D01*
X129791071Y-75102438D02*
X129838690Y-75150057D01*
X129838690Y-75150057D02*
X129886309Y-75245295D01*
X129886309Y-75245295D02*
X129886309Y-75388152D01*
X129886309Y-75388152D02*
X129838690Y-75483390D01*
X129838690Y-75483390D02*
X129791071Y-75531009D01*
X129791071Y-75531009D02*
X129695833Y-75578628D01*
X129695833Y-75578628D02*
X129314881Y-75578628D01*
X130267262Y-75150057D02*
X130314881Y-75102438D01*
X130314881Y-75102438D02*
X130410119Y-75054819D01*
X130410119Y-75054819D02*
X130648214Y-75054819D01*
X130648214Y-75054819D02*
X130743452Y-75102438D01*
X130743452Y-75102438D02*
X130791071Y-75150057D01*
X130791071Y-75150057D02*
X130838690Y-75245295D01*
X130838690Y-75245295D02*
X130838690Y-75340533D01*
X130838690Y-75340533D02*
X130791071Y-75483390D01*
X130791071Y-75483390D02*
X130219643Y-76054819D01*
X130219643Y-76054819D02*
X130838690Y-76054819D01*
X131791071Y-76054819D02*
X131219643Y-76054819D01*
X131505357Y-76054819D02*
X131505357Y-75054819D01*
X131505357Y-75054819D02*
X131410119Y-75197676D01*
X131410119Y-75197676D02*
X131314881Y-75292914D01*
X131314881Y-75292914D02*
X131219643Y-75340533D01*
X132743452Y-76054819D02*
X132172024Y-76054819D01*
X132457738Y-76054819D02*
X132457738Y-75054819D01*
X132457738Y-75054819D02*
X132362500Y-75197676D01*
X132362500Y-75197676D02*
X132267262Y-75292914D01*
X132267262Y-75292914D02*
X132172024Y-75340533D01*
X133124405Y-75150057D02*
X133172024Y-75102438D01*
X133172024Y-75102438D02*
X133267262Y-75054819D01*
X133267262Y-75054819D02*
X133505357Y-75054819D01*
X133505357Y-75054819D02*
X133600595Y-75102438D01*
X133600595Y-75102438D02*
X133648214Y-75150057D01*
X133648214Y-75150057D02*
X133695833Y-75245295D01*
X133695833Y-75245295D02*
X133695833Y-75340533D01*
X133695833Y-75340533D02*
X133648214Y-75483390D01*
X133648214Y-75483390D02*
X133076786Y-76054819D01*
X133076786Y-76054819D02*
X133695833Y-76054819D01*
X134124405Y-76054819D02*
X134124405Y-75054819D01*
X134695833Y-76054819D02*
X134267262Y-75483390D01*
X134695833Y-75054819D02*
X134124405Y-75626247D01*
X135124405Y-75673866D02*
X135886310Y-75673866D01*
X136267262Y-75054819D02*
X136886309Y-75054819D01*
X136886309Y-75054819D02*
X136552976Y-75435771D01*
X136552976Y-75435771D02*
X136695833Y-75435771D01*
X136695833Y-75435771D02*
X136791071Y-75483390D01*
X136791071Y-75483390D02*
X136838690Y-75531009D01*
X136838690Y-75531009D02*
X136886309Y-75626247D01*
X136886309Y-75626247D02*
X136886309Y-75864342D01*
X136886309Y-75864342D02*
X136838690Y-75959580D01*
X136838690Y-75959580D02*
X136791071Y-76007200D01*
X136791071Y-76007200D02*
X136695833Y-76054819D01*
X136695833Y-76054819D02*
X136410119Y-76054819D01*
X136410119Y-76054819D02*
X136314881Y-76007200D01*
X136314881Y-76007200D02*
X136267262Y-75959580D01*
X137314881Y-75959580D02*
X137362500Y-76007200D01*
X137362500Y-76007200D02*
X137314881Y-76054819D01*
X137314881Y-76054819D02*
X137267262Y-76007200D01*
X137267262Y-76007200D02*
X137314881Y-75959580D01*
X137314881Y-75959580D02*
X137314881Y-76054819D01*
X137695833Y-75054819D02*
X138314880Y-75054819D01*
X138314880Y-75054819D02*
X137981547Y-75435771D01*
X137981547Y-75435771D02*
X138124404Y-75435771D01*
X138124404Y-75435771D02*
X138219642Y-75483390D01*
X138219642Y-75483390D02*
X138267261Y-75531009D01*
X138267261Y-75531009D02*
X138314880Y-75626247D01*
X138314880Y-75626247D02*
X138314880Y-75864342D01*
X138314880Y-75864342D02*
X138267261Y-75959580D01*
X138267261Y-75959580D02*
X138219642Y-76007200D01*
X138219642Y-76007200D02*
X138124404Y-76054819D01*
X138124404Y-76054819D02*
X137838690Y-76054819D01*
X137838690Y-76054819D02*
X137743452Y-76007200D01*
X137743452Y-76007200D02*
X137695833Y-75959580D01*
D13*
X132969865Y-78548571D02*
X133552722Y-78548571D01*
X133552722Y-78548571D02*
X133621294Y-78514285D01*
X133621294Y-78514285D02*
X133655580Y-78480000D01*
X133655580Y-78480000D02*
X133689865Y-78411428D01*
X133689865Y-78411428D02*
X133689865Y-78274285D01*
X133689865Y-78274285D02*
X133655580Y-78205714D01*
X133655580Y-78205714D02*
X133621294Y-78171428D01*
X133621294Y-78171428D02*
X133552722Y-78137142D01*
X133552722Y-78137142D02*
X132969865Y-78137142D01*
X133689865Y-77417142D02*
X133689865Y-77828571D01*
X133689865Y-77622856D02*
X132969865Y-77622856D01*
X132969865Y-77622856D02*
X133072722Y-77691428D01*
X133072722Y-77691428D02*
X133141294Y-77759999D01*
X133141294Y-77759999D02*
X133175580Y-77828571D01*
D10*
X128524819Y-86595238D02*
X128524819Y-87166666D01*
X128524819Y-86880952D02*
X127524819Y-86880952D01*
X127524819Y-86880952D02*
X127667676Y-86976190D01*
X127667676Y-86976190D02*
X127762914Y-87071428D01*
X127762914Y-87071428D02*
X127810533Y-87166666D01*
X127524819Y-85976190D02*
X127524819Y-85880952D01*
X127524819Y-85880952D02*
X127572438Y-85785714D01*
X127572438Y-85785714D02*
X127620057Y-85738095D01*
X127620057Y-85738095D02*
X127715295Y-85690476D01*
X127715295Y-85690476D02*
X127905771Y-85642857D01*
X127905771Y-85642857D02*
X128143866Y-85642857D01*
X128143866Y-85642857D02*
X128334342Y-85690476D01*
X128334342Y-85690476D02*
X128429580Y-85738095D01*
X128429580Y-85738095D02*
X128477200Y-85785714D01*
X128477200Y-85785714D02*
X128524819Y-85880952D01*
X128524819Y-85880952D02*
X128524819Y-85976190D01*
X128524819Y-85976190D02*
X128477200Y-86071428D01*
X128477200Y-86071428D02*
X128429580Y-86119047D01*
X128429580Y-86119047D02*
X128334342Y-86166666D01*
X128334342Y-86166666D02*
X128143866Y-86214285D01*
X128143866Y-86214285D02*
X127905771Y-86214285D01*
X127905771Y-86214285D02*
X127715295Y-86166666D01*
X127715295Y-86166666D02*
X127620057Y-86119047D01*
X127620057Y-86119047D02*
X127572438Y-86071428D01*
X127572438Y-86071428D02*
X127524819Y-85976190D01*
X128524819Y-85214285D02*
X127524819Y-85214285D01*
X128143866Y-85119047D02*
X128524819Y-84833333D01*
X127858152Y-84833333D02*
X128239104Y-85214285D01*
D12*
X129681927Y-86066666D02*
X129491451Y-86199999D01*
X129681927Y-86295237D02*
X129281927Y-86295237D01*
X129281927Y-86295237D02*
X129281927Y-86142856D01*
X129281927Y-86142856D02*
X129300975Y-86104761D01*
X129300975Y-86104761D02*
X129320022Y-86085714D01*
X129320022Y-86085714D02*
X129358118Y-86066666D01*
X129358118Y-86066666D02*
X129415260Y-86066666D01*
X129415260Y-86066666D02*
X129453356Y-86085714D01*
X129453356Y-86085714D02*
X129472403Y-86104761D01*
X129472403Y-86104761D02*
X129491451Y-86142856D01*
X129491451Y-86142856D02*
X129491451Y-86295237D01*
X129281927Y-85704761D02*
X129281927Y-85895237D01*
X129281927Y-85895237D02*
X129472403Y-85914285D01*
X129472403Y-85914285D02*
X129453356Y-85895237D01*
X129453356Y-85895237D02*
X129434308Y-85857142D01*
X129434308Y-85857142D02*
X129434308Y-85761904D01*
X129434308Y-85761904D02*
X129453356Y-85723809D01*
X129453356Y-85723809D02*
X129472403Y-85704761D01*
X129472403Y-85704761D02*
X129510499Y-85685714D01*
X129510499Y-85685714D02*
X129605737Y-85685714D01*
X129605737Y-85685714D02*
X129643832Y-85704761D01*
X129643832Y-85704761D02*
X129662880Y-85723809D01*
X129662880Y-85723809D02*
X129681927Y-85761904D01*
X129681927Y-85761904D02*
X129681927Y-85857142D01*
X129681927Y-85857142D02*
X129662880Y-85895237D01*
X129662880Y-85895237D02*
X129643832Y-85914285D01*
D10*
X123454819Y-75428571D02*
X122454819Y-75428571D01*
X122454819Y-75428571D02*
X122454819Y-75190476D01*
X122454819Y-75190476D02*
X122502438Y-75047619D01*
X122502438Y-75047619D02*
X122597676Y-74952381D01*
X122597676Y-74952381D02*
X122692914Y-74904762D01*
X122692914Y-74904762D02*
X122883390Y-74857143D01*
X122883390Y-74857143D02*
X123026247Y-74857143D01*
X123026247Y-74857143D02*
X123216723Y-74904762D01*
X123216723Y-74904762D02*
X123311961Y-74952381D01*
X123311961Y-74952381D02*
X123407200Y-75047619D01*
X123407200Y-75047619D02*
X123454819Y-75190476D01*
X123454819Y-75190476D02*
X123454819Y-75428571D01*
X123550057Y-74666667D02*
X123550057Y-73904762D01*
X122454819Y-73809523D02*
X122454819Y-73238095D01*
X123454819Y-73523809D02*
X122454819Y-73523809D01*
X122454819Y-73047618D02*
X123454819Y-72714285D01*
X123454819Y-72714285D02*
X122454819Y-72380952D01*
X123407200Y-72095237D02*
X123454819Y-71952380D01*
X123454819Y-71952380D02*
X123454819Y-71714285D01*
X123454819Y-71714285D02*
X123407200Y-71619047D01*
X123407200Y-71619047D02*
X123359580Y-71571428D01*
X123359580Y-71571428D02*
X123264342Y-71523809D01*
X123264342Y-71523809D02*
X123169104Y-71523809D01*
X123169104Y-71523809D02*
X123073866Y-71571428D01*
X123073866Y-71571428D02*
X123026247Y-71619047D01*
X123026247Y-71619047D02*
X122978628Y-71714285D01*
X122978628Y-71714285D02*
X122931009Y-71904761D01*
X122931009Y-71904761D02*
X122883390Y-71999999D01*
X122883390Y-71999999D02*
X122835771Y-72047618D01*
X122835771Y-72047618D02*
X122740533Y-72095237D01*
X122740533Y-72095237D02*
X122645295Y-72095237D01*
X122645295Y-72095237D02*
X122550057Y-72047618D01*
X122550057Y-72047618D02*
X122502438Y-71999999D01*
X122502438Y-71999999D02*
X122454819Y-71904761D01*
X122454819Y-71904761D02*
X122454819Y-71666666D01*
X122454819Y-71666666D02*
X122502438Y-71523809D01*
X127761905Y-73954819D02*
X127761905Y-72954819D01*
X127761905Y-72954819D02*
X128000000Y-72954819D01*
X128000000Y-72954819D02*
X128142857Y-73002438D01*
X128142857Y-73002438D02*
X128238095Y-73097676D01*
X128238095Y-73097676D02*
X128285714Y-73192914D01*
X128285714Y-73192914D02*
X128333333Y-73383390D01*
X128333333Y-73383390D02*
X128333333Y-73526247D01*
X128333333Y-73526247D02*
X128285714Y-73716723D01*
X128285714Y-73716723D02*
X128238095Y-73811961D01*
X128238095Y-73811961D02*
X128142857Y-73907200D01*
X128142857Y-73907200D02*
X128000000Y-73954819D01*
X128000000Y-73954819D02*
X127761905Y-73954819D01*
X129285714Y-73954819D02*
X128714286Y-73954819D01*
X129000000Y-73954819D02*
X129000000Y-72954819D01*
X129000000Y-72954819D02*
X128904762Y-73097676D01*
X128904762Y-73097676D02*
X128809524Y-73192914D01*
X128809524Y-73192914D02*
X128714286Y-73240533D01*
X138384819Y-78642857D02*
X138384819Y-79214285D01*
X138384819Y-78928571D02*
X137384819Y-78928571D01*
X137384819Y-78928571D02*
X137527676Y-79023809D01*
X137527676Y-79023809D02*
X137622914Y-79119047D01*
X137622914Y-79119047D02*
X137670533Y-79214285D01*
X137384819Y-78023809D02*
X137384819Y-77928571D01*
X137384819Y-77928571D02*
X137432438Y-77833333D01*
X137432438Y-77833333D02*
X137480057Y-77785714D01*
X137480057Y-77785714D02*
X137575295Y-77738095D01*
X137575295Y-77738095D02*
X137765771Y-77690476D01*
X137765771Y-77690476D02*
X138003866Y-77690476D01*
X138003866Y-77690476D02*
X138194342Y-77738095D01*
X138194342Y-77738095D02*
X138289580Y-77785714D01*
X138289580Y-77785714D02*
X138337200Y-77833333D01*
X138337200Y-77833333D02*
X138384819Y-77928571D01*
X138384819Y-77928571D02*
X138384819Y-78023809D01*
X138384819Y-78023809D02*
X138337200Y-78119047D01*
X138337200Y-78119047D02*
X138289580Y-78166666D01*
X138289580Y-78166666D02*
X138194342Y-78214285D01*
X138194342Y-78214285D02*
X138003866Y-78261904D01*
X138003866Y-78261904D02*
X137765771Y-78261904D01*
X137765771Y-78261904D02*
X137575295Y-78214285D01*
X137575295Y-78214285D02*
X137480057Y-78166666D01*
X137480057Y-78166666D02*
X137432438Y-78119047D01*
X137432438Y-78119047D02*
X137384819Y-78023809D01*
X137718152Y-76833333D02*
X138384819Y-76833333D01*
X137718152Y-77261904D02*
X138241961Y-77261904D01*
X138241961Y-77261904D02*
X138337200Y-77214285D01*
X138337200Y-77214285D02*
X138384819Y-77119047D01*
X138384819Y-77119047D02*
X138384819Y-76976190D01*
X138384819Y-76976190D02*
X138337200Y-76880952D01*
X138337200Y-76880952D02*
X138289580Y-76833333D01*
D12*
X136643832Y-78066666D02*
X136662880Y-78085714D01*
X136662880Y-78085714D02*
X136681927Y-78142856D01*
X136681927Y-78142856D02*
X136681927Y-78180952D01*
X136681927Y-78180952D02*
X136662880Y-78238095D01*
X136662880Y-78238095D02*
X136624784Y-78276190D01*
X136624784Y-78276190D02*
X136586689Y-78295237D01*
X136586689Y-78295237D02*
X136510499Y-78314285D01*
X136510499Y-78314285D02*
X136453356Y-78314285D01*
X136453356Y-78314285D02*
X136377165Y-78295237D01*
X136377165Y-78295237D02*
X136339070Y-78276190D01*
X136339070Y-78276190D02*
X136300975Y-78238095D01*
X136300975Y-78238095D02*
X136281927Y-78180952D01*
X136281927Y-78180952D02*
X136281927Y-78142856D01*
X136281927Y-78142856D02*
X136300975Y-78085714D01*
X136300975Y-78085714D02*
X136320022Y-78066666D01*
X136681927Y-77685714D02*
X136681927Y-77914285D01*
X136681927Y-77799999D02*
X136281927Y-77799999D01*
X136281927Y-77799999D02*
X136339070Y-77838095D01*
X136339070Y-77838095D02*
X136377165Y-77876190D01*
X136377165Y-77876190D02*
X136396213Y-77914285D01*
D10*
X155954819Y-88785714D02*
X156669104Y-88785714D01*
X156669104Y-88785714D02*
X156811961Y-88833333D01*
X156811961Y-88833333D02*
X156907200Y-88928571D01*
X156907200Y-88928571D02*
X156954819Y-89071428D01*
X156954819Y-89071428D02*
X156954819Y-89166666D01*
X157050057Y-88547619D02*
X157050057Y-87785714D01*
X156907200Y-87595237D02*
X156954819Y-87452380D01*
X156954819Y-87452380D02*
X156954819Y-87214285D01*
X156954819Y-87214285D02*
X156907200Y-87119047D01*
X156907200Y-87119047D02*
X156859580Y-87071428D01*
X156859580Y-87071428D02*
X156764342Y-87023809D01*
X156764342Y-87023809D02*
X156669104Y-87023809D01*
X156669104Y-87023809D02*
X156573866Y-87071428D01*
X156573866Y-87071428D02*
X156526247Y-87119047D01*
X156526247Y-87119047D02*
X156478628Y-87214285D01*
X156478628Y-87214285D02*
X156431009Y-87404761D01*
X156431009Y-87404761D02*
X156383390Y-87499999D01*
X156383390Y-87499999D02*
X156335771Y-87547618D01*
X156335771Y-87547618D02*
X156240533Y-87595237D01*
X156240533Y-87595237D02*
X156145295Y-87595237D01*
X156145295Y-87595237D02*
X156050057Y-87547618D01*
X156050057Y-87547618D02*
X156002438Y-87499999D01*
X156002438Y-87499999D02*
X155954819Y-87404761D01*
X155954819Y-87404761D02*
X155954819Y-87166666D01*
X155954819Y-87166666D02*
X156002438Y-87023809D01*
X155954819Y-86690475D02*
X156954819Y-86452380D01*
X156954819Y-86452380D02*
X156240533Y-86261904D01*
X156240533Y-86261904D02*
X156954819Y-86071428D01*
X156954819Y-86071428D02*
X155954819Y-85833333D01*
X156954819Y-85452380D02*
X155954819Y-85452380D01*
X155954819Y-85452380D02*
X155954819Y-85214285D01*
X155954819Y-85214285D02*
X156002438Y-85071428D01*
X156002438Y-85071428D02*
X156097676Y-84976190D01*
X156097676Y-84976190D02*
X156192914Y-84928571D01*
X156192914Y-84928571D02*
X156383390Y-84880952D01*
X156383390Y-84880952D02*
X156526247Y-84880952D01*
X156526247Y-84880952D02*
X156716723Y-84928571D01*
X156716723Y-84928571D02*
X156811961Y-84976190D01*
X156811961Y-84976190D02*
X156907200Y-85071428D01*
X156907200Y-85071428D02*
X156954819Y-85214285D01*
X156954819Y-85214285D02*
X156954819Y-85452380D01*
X148706666Y-86454819D02*
X148706666Y-87169104D01*
X148706666Y-87169104D02*
X148659047Y-87311961D01*
X148659047Y-87311961D02*
X148563809Y-87407200D01*
X148563809Y-87407200D02*
X148420952Y-87454819D01*
X148420952Y-87454819D02*
X148325714Y-87454819D01*
X149659047Y-86454819D02*
X149182857Y-86454819D01*
X149182857Y-86454819D02*
X149135238Y-86931009D01*
X149135238Y-86931009D02*
X149182857Y-86883390D01*
X149182857Y-86883390D02*
X149278095Y-86835771D01*
X149278095Y-86835771D02*
X149516190Y-86835771D01*
X149516190Y-86835771D02*
X149611428Y-86883390D01*
X149611428Y-86883390D02*
X149659047Y-86931009D01*
X149659047Y-86931009D02*
X149706666Y-87026247D01*
X149706666Y-87026247D02*
X149706666Y-87264342D01*
X149706666Y-87264342D02*
X149659047Y-87359580D01*
X149659047Y-87359580D02*
X149611428Y-87407200D01*
X149611428Y-87407200D02*
X149516190Y-87454819D01*
X149516190Y-87454819D02*
X149278095Y-87454819D01*
X149278095Y-87454819D02*
X149182857Y-87407200D01*
X149182857Y-87407200D02*
X149135238Y-87359580D01*
X143357142Y-71884819D02*
X142785714Y-71884819D01*
X143071428Y-71884819D02*
X143071428Y-70884819D01*
X143071428Y-70884819D02*
X142976190Y-71027676D01*
X142976190Y-71027676D02*
X142880952Y-71122914D01*
X142880952Y-71122914D02*
X142785714Y-71170533D01*
X143976190Y-70884819D02*
X144071428Y-70884819D01*
X144071428Y-70884819D02*
X144166666Y-70932438D01*
X144166666Y-70932438D02*
X144214285Y-70980057D01*
X144214285Y-70980057D02*
X144261904Y-71075295D01*
X144261904Y-71075295D02*
X144309523Y-71265771D01*
X144309523Y-71265771D02*
X144309523Y-71503866D01*
X144309523Y-71503866D02*
X144261904Y-71694342D01*
X144261904Y-71694342D02*
X144214285Y-71789580D01*
X144214285Y-71789580D02*
X144166666Y-71837200D01*
X144166666Y-71837200D02*
X144071428Y-71884819D01*
X144071428Y-71884819D02*
X143976190Y-71884819D01*
X143976190Y-71884819D02*
X143880952Y-71837200D01*
X143880952Y-71837200D02*
X143833333Y-71789580D01*
X143833333Y-71789580D02*
X143785714Y-71694342D01*
X143785714Y-71694342D02*
X143738095Y-71503866D01*
X143738095Y-71503866D02*
X143738095Y-71265771D01*
X143738095Y-71265771D02*
X143785714Y-71075295D01*
X143785714Y-71075295D02*
X143833333Y-70980057D01*
X143833333Y-70980057D02*
X143880952Y-70932438D01*
X143880952Y-70932438D02*
X143976190Y-70884819D01*
X145166666Y-71218152D02*
X145166666Y-71884819D01*
X144738095Y-71218152D02*
X144738095Y-71741961D01*
X144738095Y-71741961D02*
X144785714Y-71837200D01*
X144785714Y-71837200D02*
X144880952Y-71884819D01*
X144880952Y-71884819D02*
X145023809Y-71884819D01*
X145023809Y-71884819D02*
X145119047Y-71837200D01*
X145119047Y-71837200D02*
X145166666Y-71789580D01*
D12*
X143933333Y-70143832D02*
X143914285Y-70162880D01*
X143914285Y-70162880D02*
X143857143Y-70181927D01*
X143857143Y-70181927D02*
X143819047Y-70181927D01*
X143819047Y-70181927D02*
X143761904Y-70162880D01*
X143761904Y-70162880D02*
X143723809Y-70124784D01*
X143723809Y-70124784D02*
X143704762Y-70086689D01*
X143704762Y-70086689D02*
X143685714Y-70010499D01*
X143685714Y-70010499D02*
X143685714Y-69953356D01*
X143685714Y-69953356D02*
X143704762Y-69877165D01*
X143704762Y-69877165D02*
X143723809Y-69839070D01*
X143723809Y-69839070D02*
X143761904Y-69800975D01*
X143761904Y-69800975D02*
X143819047Y-69781927D01*
X143819047Y-69781927D02*
X143857143Y-69781927D01*
X143857143Y-69781927D02*
X143914285Y-69800975D01*
X143914285Y-69800975D02*
X143933333Y-69820022D01*
X144276190Y-69781927D02*
X144200000Y-69781927D01*
X144200000Y-69781927D02*
X144161904Y-69800975D01*
X144161904Y-69800975D02*
X144142857Y-69820022D01*
X144142857Y-69820022D02*
X144104762Y-69877165D01*
X144104762Y-69877165D02*
X144085714Y-69953356D01*
X144085714Y-69953356D02*
X144085714Y-70105737D01*
X144085714Y-70105737D02*
X144104762Y-70143832D01*
X144104762Y-70143832D02*
X144123809Y-70162880D01*
X144123809Y-70162880D02*
X144161904Y-70181927D01*
X144161904Y-70181927D02*
X144238095Y-70181927D01*
X144238095Y-70181927D02*
X144276190Y-70162880D01*
X144276190Y-70162880D02*
X144295238Y-70143832D01*
X144295238Y-70143832D02*
X144314285Y-70105737D01*
X144314285Y-70105737D02*
X144314285Y-70010499D01*
X144314285Y-70010499D02*
X144295238Y-69972403D01*
X144295238Y-69972403D02*
X144276190Y-69953356D01*
X144276190Y-69953356D02*
X144238095Y-69934308D01*
X144238095Y-69934308D02*
X144161904Y-69934308D01*
X144161904Y-69934308D02*
X144123809Y-69953356D01*
X144123809Y-69953356D02*
X144104762Y-69972403D01*
X144104762Y-69972403D02*
X144085714Y-70010499D01*
D10*
X131384819Y-79214285D02*
X131384819Y-79119047D01*
X131384819Y-79119047D02*
X131432438Y-79023809D01*
X131432438Y-79023809D02*
X131480057Y-78976190D01*
X131480057Y-78976190D02*
X131575295Y-78928571D01*
X131575295Y-78928571D02*
X131765771Y-78880952D01*
X131765771Y-78880952D02*
X132003866Y-78880952D01*
X132003866Y-78880952D02*
X132194342Y-78928571D01*
X132194342Y-78928571D02*
X132289580Y-78976190D01*
X132289580Y-78976190D02*
X132337200Y-79023809D01*
X132337200Y-79023809D02*
X132384819Y-79119047D01*
X132384819Y-79119047D02*
X132384819Y-79214285D01*
X132384819Y-79214285D02*
X132337200Y-79309523D01*
X132337200Y-79309523D02*
X132289580Y-79357142D01*
X132289580Y-79357142D02*
X132194342Y-79404761D01*
X132194342Y-79404761D02*
X132003866Y-79452380D01*
X132003866Y-79452380D02*
X131765771Y-79452380D01*
X131765771Y-79452380D02*
X131575295Y-79404761D01*
X131575295Y-79404761D02*
X131480057Y-79357142D01*
X131480057Y-79357142D02*
X131432438Y-79309523D01*
X131432438Y-79309523D02*
X131384819Y-79214285D01*
X132289580Y-78452380D02*
X132337200Y-78404761D01*
X132337200Y-78404761D02*
X132384819Y-78452380D01*
X132384819Y-78452380D02*
X132337200Y-78499999D01*
X132337200Y-78499999D02*
X132289580Y-78452380D01*
X132289580Y-78452380D02*
X132384819Y-78452380D01*
X132384819Y-77452381D02*
X132384819Y-78023809D01*
X132384819Y-77738095D02*
X131384819Y-77738095D01*
X131384819Y-77738095D02*
X131527676Y-77833333D01*
X131527676Y-77833333D02*
X131622914Y-77928571D01*
X131622914Y-77928571D02*
X131670533Y-78023809D01*
X131718152Y-76595238D02*
X132384819Y-76595238D01*
X131718152Y-77023809D02*
X132241961Y-77023809D01*
X132241961Y-77023809D02*
X132337200Y-76976190D01*
X132337200Y-76976190D02*
X132384819Y-76880952D01*
X132384819Y-76880952D02*
X132384819Y-76738095D01*
X132384819Y-76738095D02*
X132337200Y-76642857D01*
X132337200Y-76642857D02*
X132289580Y-76595238D01*
D12*
X130643832Y-78066666D02*
X130662880Y-78085714D01*
X130662880Y-78085714D02*
X130681927Y-78142856D01*
X130681927Y-78142856D02*
X130681927Y-78180952D01*
X130681927Y-78180952D02*
X130662880Y-78238095D01*
X130662880Y-78238095D02*
X130624784Y-78276190D01*
X130624784Y-78276190D02*
X130586689Y-78295237D01*
X130586689Y-78295237D02*
X130510499Y-78314285D01*
X130510499Y-78314285D02*
X130453356Y-78314285D01*
X130453356Y-78314285D02*
X130377165Y-78295237D01*
X130377165Y-78295237D02*
X130339070Y-78276190D01*
X130339070Y-78276190D02*
X130300975Y-78238095D01*
X130300975Y-78238095D02*
X130281927Y-78180952D01*
X130281927Y-78180952D02*
X130281927Y-78142856D01*
X130281927Y-78142856D02*
X130300975Y-78085714D01*
X130300975Y-78085714D02*
X130320022Y-78066666D01*
X130281927Y-77933333D02*
X130281927Y-77685714D01*
X130281927Y-77685714D02*
X130434308Y-77819047D01*
X130434308Y-77819047D02*
X130434308Y-77761904D01*
X130434308Y-77761904D02*
X130453356Y-77723809D01*
X130453356Y-77723809D02*
X130472403Y-77704761D01*
X130472403Y-77704761D02*
X130510499Y-77685714D01*
X130510499Y-77685714D02*
X130605737Y-77685714D01*
X130605737Y-77685714D02*
X130643832Y-77704761D01*
X130643832Y-77704761D02*
X130662880Y-77723809D01*
X130662880Y-77723809D02*
X130681927Y-77761904D01*
X130681927Y-77761904D02*
X130681927Y-77876190D01*
X130681927Y-77876190D02*
X130662880Y-77914285D01*
X130662880Y-77914285D02*
X130643832Y-77933333D01*
D10*
X134166667Y-75204819D02*
X134738095Y-75204819D01*
X134452381Y-76204819D02*
X134452381Y-75204819D01*
X135071429Y-76204819D02*
X135071429Y-75204819D01*
X135071429Y-75204819D02*
X135452381Y-75204819D01*
X135452381Y-75204819D02*
X135547619Y-75252438D01*
X135547619Y-75252438D02*
X135595238Y-75300057D01*
X135595238Y-75300057D02*
X135642857Y-75395295D01*
X135642857Y-75395295D02*
X135642857Y-75538152D01*
X135642857Y-75538152D02*
X135595238Y-75633390D01*
X135595238Y-75633390D02*
X135547619Y-75681009D01*
X135547619Y-75681009D02*
X135452381Y-75728628D01*
X135452381Y-75728628D02*
X135071429Y-75728628D01*
X135833334Y-76300057D02*
X136595238Y-76300057D01*
X136833334Y-75823866D02*
X137595239Y-75823866D01*
X137214286Y-76204819D02*
X137214286Y-75442914D01*
X138547619Y-75204819D02*
X138071429Y-75204819D01*
X138071429Y-75204819D02*
X138023810Y-75681009D01*
X138023810Y-75681009D02*
X138071429Y-75633390D01*
X138071429Y-75633390D02*
X138166667Y-75585771D01*
X138166667Y-75585771D02*
X138404762Y-75585771D01*
X138404762Y-75585771D02*
X138500000Y-75633390D01*
X138500000Y-75633390D02*
X138547619Y-75681009D01*
X138547619Y-75681009D02*
X138595238Y-75776247D01*
X138595238Y-75776247D02*
X138595238Y-76014342D01*
X138595238Y-76014342D02*
X138547619Y-76109580D01*
X138547619Y-76109580D02*
X138500000Y-76157200D01*
X138500000Y-76157200D02*
X138404762Y-76204819D01*
X138404762Y-76204819D02*
X138166667Y-76204819D01*
X138166667Y-76204819D02*
X138071429Y-76157200D01*
X138071429Y-76157200D02*
X138023810Y-76109580D01*
X138880953Y-75204819D02*
X139214286Y-76204819D01*
X139214286Y-76204819D02*
X139547619Y-75204819D01*
X139642858Y-76300057D02*
X140404762Y-76300057D01*
X140642858Y-76204819D02*
X140642858Y-75204819D01*
X141119048Y-76204819D02*
X141119048Y-75204819D01*
X141119048Y-75204819D02*
X141690476Y-76204819D01*
X141690476Y-76204819D02*
X141690476Y-75204819D01*
X136738095Y-71804819D02*
X137309523Y-71804819D01*
X137023809Y-72804819D02*
X137023809Y-71804819D01*
X137642857Y-72804819D02*
X137642857Y-71804819D01*
X137642857Y-71804819D02*
X138023809Y-71804819D01*
X138023809Y-71804819D02*
X138119047Y-71852438D01*
X138119047Y-71852438D02*
X138166666Y-71900057D01*
X138166666Y-71900057D02*
X138214285Y-71995295D01*
X138214285Y-71995295D02*
X138214285Y-72138152D01*
X138214285Y-72138152D02*
X138166666Y-72233390D01*
X138166666Y-72233390D02*
X138119047Y-72281009D01*
X138119047Y-72281009D02*
X138023809Y-72328628D01*
X138023809Y-72328628D02*
X137642857Y-72328628D01*
X138547619Y-71804819D02*
X139166666Y-71804819D01*
X139166666Y-71804819D02*
X138833333Y-72185771D01*
X138833333Y-72185771D02*
X138976190Y-72185771D01*
X138976190Y-72185771D02*
X139071428Y-72233390D01*
X139071428Y-72233390D02*
X139119047Y-72281009D01*
X139119047Y-72281009D02*
X139166666Y-72376247D01*
X139166666Y-72376247D02*
X139166666Y-72614342D01*
X139166666Y-72614342D02*
X139119047Y-72709580D01*
X139119047Y-72709580D02*
X139071428Y-72757200D01*
X139071428Y-72757200D02*
X138976190Y-72804819D01*
X138976190Y-72804819D02*
X138690476Y-72804819D01*
X138690476Y-72804819D02*
X138595238Y-72757200D01*
X138595238Y-72757200D02*
X138547619Y-72709580D01*
X125333333Y-82204819D02*
X125904761Y-82204819D01*
X125619047Y-83204819D02*
X125619047Y-82204819D01*
X126238095Y-83204819D02*
X126238095Y-82204819D01*
X126238095Y-82204819D02*
X126619047Y-82204819D01*
X126619047Y-82204819D02*
X126714285Y-82252438D01*
X126714285Y-82252438D02*
X126761904Y-82300057D01*
X126761904Y-82300057D02*
X126809523Y-82395295D01*
X126809523Y-82395295D02*
X126809523Y-82538152D01*
X126809523Y-82538152D02*
X126761904Y-82633390D01*
X126761904Y-82633390D02*
X126714285Y-82681009D01*
X126714285Y-82681009D02*
X126619047Y-82728628D01*
X126619047Y-82728628D02*
X126238095Y-82728628D01*
X127000000Y-83300057D02*
X127761904Y-83300057D01*
X128000000Y-82823866D02*
X128761905Y-82823866D01*
X128380952Y-83204819D02*
X128380952Y-82442914D01*
X129142857Y-82204819D02*
X129761904Y-82204819D01*
X129761904Y-82204819D02*
X129428571Y-82585771D01*
X129428571Y-82585771D02*
X129571428Y-82585771D01*
X129571428Y-82585771D02*
X129666666Y-82633390D01*
X129666666Y-82633390D02*
X129714285Y-82681009D01*
X129714285Y-82681009D02*
X129761904Y-82776247D01*
X129761904Y-82776247D02*
X129761904Y-83014342D01*
X129761904Y-83014342D02*
X129714285Y-83109580D01*
X129714285Y-83109580D02*
X129666666Y-83157200D01*
X129666666Y-83157200D02*
X129571428Y-83204819D01*
X129571428Y-83204819D02*
X129285714Y-83204819D01*
X129285714Y-83204819D02*
X129190476Y-83157200D01*
X129190476Y-83157200D02*
X129142857Y-83109580D01*
X130047619Y-82204819D02*
X130380952Y-83204819D01*
X130380952Y-83204819D02*
X130714285Y-82204819D01*
X130952381Y-82204819D02*
X131571428Y-82204819D01*
X131571428Y-82204819D02*
X131238095Y-82585771D01*
X131238095Y-82585771D02*
X131380952Y-82585771D01*
X131380952Y-82585771D02*
X131476190Y-82633390D01*
X131476190Y-82633390D02*
X131523809Y-82681009D01*
X131523809Y-82681009D02*
X131571428Y-82776247D01*
X131571428Y-82776247D02*
X131571428Y-83014342D01*
X131571428Y-83014342D02*
X131523809Y-83109580D01*
X131523809Y-83109580D02*
X131476190Y-83157200D01*
X131476190Y-83157200D02*
X131380952Y-83204819D01*
X131380952Y-83204819D02*
X131095238Y-83204819D01*
X131095238Y-83204819D02*
X131000000Y-83157200D01*
X131000000Y-83157200D02*
X130952381Y-83109580D01*
X127238095Y-82454819D02*
X127809523Y-82454819D01*
X127523809Y-83454819D02*
X127523809Y-82454819D01*
X128142857Y-83454819D02*
X128142857Y-82454819D01*
X128142857Y-82454819D02*
X128523809Y-82454819D01*
X128523809Y-82454819D02*
X128619047Y-82502438D01*
X128619047Y-82502438D02*
X128666666Y-82550057D01*
X128666666Y-82550057D02*
X128714285Y-82645295D01*
X128714285Y-82645295D02*
X128714285Y-82788152D01*
X128714285Y-82788152D02*
X128666666Y-82883390D01*
X128666666Y-82883390D02*
X128619047Y-82931009D01*
X128619047Y-82931009D02*
X128523809Y-82978628D01*
X128523809Y-82978628D02*
X128142857Y-82978628D01*
X129571428Y-82788152D02*
X129571428Y-83454819D01*
X129333333Y-82407200D02*
X129095238Y-83121485D01*
X129095238Y-83121485D02*
X129714285Y-83121485D01*
X142785714Y-66024819D02*
X142880952Y-66024819D01*
X142880952Y-66024819D02*
X142976190Y-66072438D01*
X142976190Y-66072438D02*
X143023809Y-66120057D01*
X143023809Y-66120057D02*
X143071428Y-66215295D01*
X143071428Y-66215295D02*
X143119047Y-66405771D01*
X143119047Y-66405771D02*
X143119047Y-66643866D01*
X143119047Y-66643866D02*
X143071428Y-66834342D01*
X143071428Y-66834342D02*
X143023809Y-66929580D01*
X143023809Y-66929580D02*
X142976190Y-66977200D01*
X142976190Y-66977200D02*
X142880952Y-67024819D01*
X142880952Y-67024819D02*
X142785714Y-67024819D01*
X142785714Y-67024819D02*
X142690476Y-66977200D01*
X142690476Y-66977200D02*
X142642857Y-66929580D01*
X142642857Y-66929580D02*
X142595238Y-66834342D01*
X142595238Y-66834342D02*
X142547619Y-66643866D01*
X142547619Y-66643866D02*
X142547619Y-66405771D01*
X142547619Y-66405771D02*
X142595238Y-66215295D01*
X142595238Y-66215295D02*
X142642857Y-66120057D01*
X142642857Y-66120057D02*
X142690476Y-66072438D01*
X142690476Y-66072438D02*
X142785714Y-66024819D01*
X143547619Y-66929580D02*
X143595238Y-66977200D01*
X143595238Y-66977200D02*
X143547619Y-67024819D01*
X143547619Y-67024819D02*
X143500000Y-66977200D01*
X143500000Y-66977200D02*
X143547619Y-66929580D01*
X143547619Y-66929580D02*
X143547619Y-67024819D01*
X144547618Y-67024819D02*
X143976190Y-67024819D01*
X144261904Y-67024819D02*
X144261904Y-66024819D01*
X144261904Y-66024819D02*
X144166666Y-66167676D01*
X144166666Y-66167676D02*
X144071428Y-66262914D01*
X144071428Y-66262914D02*
X143976190Y-66310533D01*
X145404761Y-66358152D02*
X145404761Y-67024819D01*
X144976190Y-66358152D02*
X144976190Y-66881961D01*
X144976190Y-66881961D02*
X145023809Y-66977200D01*
X145023809Y-66977200D02*
X145119047Y-67024819D01*
X145119047Y-67024819D02*
X145261904Y-67024819D01*
X145261904Y-67024819D02*
X145357142Y-66977200D01*
X145357142Y-66977200D02*
X145404761Y-66929580D01*
D12*
X143933333Y-68143832D02*
X143914285Y-68162880D01*
X143914285Y-68162880D02*
X143857143Y-68181927D01*
X143857143Y-68181927D02*
X143819047Y-68181927D01*
X143819047Y-68181927D02*
X143761904Y-68162880D01*
X143761904Y-68162880D02*
X143723809Y-68124784D01*
X143723809Y-68124784D02*
X143704762Y-68086689D01*
X143704762Y-68086689D02*
X143685714Y-68010499D01*
X143685714Y-68010499D02*
X143685714Y-67953356D01*
X143685714Y-67953356D02*
X143704762Y-67877165D01*
X143704762Y-67877165D02*
X143723809Y-67839070D01*
X143723809Y-67839070D02*
X143761904Y-67800975D01*
X143761904Y-67800975D02*
X143819047Y-67781927D01*
X143819047Y-67781927D02*
X143857143Y-67781927D01*
X143857143Y-67781927D02*
X143914285Y-67800975D01*
X143914285Y-67800975D02*
X143933333Y-67820022D01*
X144066666Y-67781927D02*
X144333333Y-67781927D01*
X144333333Y-67781927D02*
X144161904Y-68181927D01*
D10*
X116989522Y-61254819D02*
X116989522Y-62064342D01*
X116989522Y-62064342D02*
X117037141Y-62159580D01*
X117037141Y-62159580D02*
X117084760Y-62207200D01*
X117084760Y-62207200D02*
X117179998Y-62254819D01*
X117179998Y-62254819D02*
X117370474Y-62254819D01*
X117370474Y-62254819D02*
X117465712Y-62207200D01*
X117465712Y-62207200D02*
X117513331Y-62159580D01*
X117513331Y-62159580D02*
X117560950Y-62064342D01*
X117560950Y-62064342D02*
X117560950Y-61254819D01*
X117989522Y-62207200D02*
X118132379Y-62254819D01*
X118132379Y-62254819D02*
X118370474Y-62254819D01*
X118370474Y-62254819D02*
X118465712Y-62207200D01*
X118465712Y-62207200D02*
X118513331Y-62159580D01*
X118513331Y-62159580D02*
X118560950Y-62064342D01*
X118560950Y-62064342D02*
X118560950Y-61969104D01*
X118560950Y-61969104D02*
X118513331Y-61873866D01*
X118513331Y-61873866D02*
X118465712Y-61826247D01*
X118465712Y-61826247D02*
X118370474Y-61778628D01*
X118370474Y-61778628D02*
X118179998Y-61731009D01*
X118179998Y-61731009D02*
X118084760Y-61683390D01*
X118084760Y-61683390D02*
X118037141Y-61635771D01*
X118037141Y-61635771D02*
X117989522Y-61540533D01*
X117989522Y-61540533D02*
X117989522Y-61445295D01*
X117989522Y-61445295D02*
X118037141Y-61350057D01*
X118037141Y-61350057D02*
X118084760Y-61302438D01*
X118084760Y-61302438D02*
X118179998Y-61254819D01*
X118179998Y-61254819D02*
X118418093Y-61254819D01*
X118418093Y-61254819D02*
X118560950Y-61302438D01*
X119322855Y-61731009D02*
X119465712Y-61778628D01*
X119465712Y-61778628D02*
X119513331Y-61826247D01*
X119513331Y-61826247D02*
X119560950Y-61921485D01*
X119560950Y-61921485D02*
X119560950Y-62064342D01*
X119560950Y-62064342D02*
X119513331Y-62159580D01*
X119513331Y-62159580D02*
X119465712Y-62207200D01*
X119465712Y-62207200D02*
X119370474Y-62254819D01*
X119370474Y-62254819D02*
X118989522Y-62254819D01*
X118989522Y-62254819D02*
X118989522Y-61254819D01*
X118989522Y-61254819D02*
X119322855Y-61254819D01*
X119322855Y-61254819D02*
X119418093Y-61302438D01*
X119418093Y-61302438D02*
X119465712Y-61350057D01*
X119465712Y-61350057D02*
X119513331Y-61445295D01*
X119513331Y-61445295D02*
X119513331Y-61540533D01*
X119513331Y-61540533D02*
X119465712Y-61635771D01*
X119465712Y-61635771D02*
X119418093Y-61683390D01*
X119418093Y-61683390D02*
X119322855Y-61731009D01*
X119322855Y-61731009D02*
X118989522Y-61731009D01*
X119751427Y-62350057D02*
X120513331Y-62350057D01*
X121322855Y-62159580D02*
X121275236Y-62207200D01*
X121275236Y-62207200D02*
X121132379Y-62254819D01*
X121132379Y-62254819D02*
X121037141Y-62254819D01*
X121037141Y-62254819D02*
X120894284Y-62207200D01*
X120894284Y-62207200D02*
X120799046Y-62111961D01*
X120799046Y-62111961D02*
X120751427Y-62016723D01*
X120751427Y-62016723D02*
X120703808Y-61826247D01*
X120703808Y-61826247D02*
X120703808Y-61683390D01*
X120703808Y-61683390D02*
X120751427Y-61492914D01*
X120751427Y-61492914D02*
X120799046Y-61397676D01*
X120799046Y-61397676D02*
X120894284Y-61302438D01*
X120894284Y-61302438D02*
X121037141Y-61254819D01*
X121037141Y-61254819D02*
X121132379Y-61254819D01*
X121132379Y-61254819D02*
X121275236Y-61302438D01*
X121275236Y-61302438D02*
X121322855Y-61350057D01*
X121513332Y-62350057D02*
X122275236Y-62350057D01*
X123084760Y-62254819D02*
X122751427Y-61778628D01*
X122513332Y-62254819D02*
X122513332Y-61254819D01*
X122513332Y-61254819D02*
X122894284Y-61254819D01*
X122894284Y-61254819D02*
X122989522Y-61302438D01*
X122989522Y-61302438D02*
X123037141Y-61350057D01*
X123037141Y-61350057D02*
X123084760Y-61445295D01*
X123084760Y-61445295D02*
X123084760Y-61588152D01*
X123084760Y-61588152D02*
X123037141Y-61683390D01*
X123037141Y-61683390D02*
X122989522Y-61731009D01*
X122989522Y-61731009D02*
X122894284Y-61778628D01*
X122894284Y-61778628D02*
X122513332Y-61778628D01*
X123894284Y-62207200D02*
X123799046Y-62254819D01*
X123799046Y-62254819D02*
X123608570Y-62254819D01*
X123608570Y-62254819D02*
X123513332Y-62207200D01*
X123513332Y-62207200D02*
X123465713Y-62111961D01*
X123465713Y-62111961D02*
X123465713Y-61731009D01*
X123465713Y-61731009D02*
X123513332Y-61635771D01*
X123513332Y-61635771D02*
X123608570Y-61588152D01*
X123608570Y-61588152D02*
X123799046Y-61588152D01*
X123799046Y-61588152D02*
X123894284Y-61635771D01*
X123894284Y-61635771D02*
X123941903Y-61731009D01*
X123941903Y-61731009D02*
X123941903Y-61826247D01*
X123941903Y-61826247D02*
X123465713Y-61921485D01*
X124799046Y-62207200D02*
X124703808Y-62254819D01*
X124703808Y-62254819D02*
X124513332Y-62254819D01*
X124513332Y-62254819D02*
X124418094Y-62207200D01*
X124418094Y-62207200D02*
X124370475Y-62159580D01*
X124370475Y-62159580D02*
X124322856Y-62064342D01*
X124322856Y-62064342D02*
X124322856Y-61778628D01*
X124322856Y-61778628D02*
X124370475Y-61683390D01*
X124370475Y-61683390D02*
X124418094Y-61635771D01*
X124418094Y-61635771D02*
X124513332Y-61588152D01*
X124513332Y-61588152D02*
X124703808Y-61588152D01*
X124703808Y-61588152D02*
X124799046Y-61635771D01*
X125608570Y-62207200D02*
X125513332Y-62254819D01*
X125513332Y-62254819D02*
X125322856Y-62254819D01*
X125322856Y-62254819D02*
X125227618Y-62207200D01*
X125227618Y-62207200D02*
X125179999Y-62111961D01*
X125179999Y-62111961D02*
X125179999Y-61731009D01*
X125179999Y-61731009D02*
X125227618Y-61635771D01*
X125227618Y-61635771D02*
X125322856Y-61588152D01*
X125322856Y-61588152D02*
X125513332Y-61588152D01*
X125513332Y-61588152D02*
X125608570Y-61635771D01*
X125608570Y-61635771D02*
X125656189Y-61731009D01*
X125656189Y-61731009D02*
X125656189Y-61826247D01*
X125656189Y-61826247D02*
X125179999Y-61921485D01*
X126084761Y-61588152D02*
X126084761Y-62588152D01*
X126084761Y-61635771D02*
X126179999Y-61588152D01*
X126179999Y-61588152D02*
X126370475Y-61588152D01*
X126370475Y-61588152D02*
X126465713Y-61635771D01*
X126465713Y-61635771D02*
X126513332Y-61683390D01*
X126513332Y-61683390D02*
X126560951Y-61778628D01*
X126560951Y-61778628D02*
X126560951Y-62064342D01*
X126560951Y-62064342D02*
X126513332Y-62159580D01*
X126513332Y-62159580D02*
X126465713Y-62207200D01*
X126465713Y-62207200D02*
X126370475Y-62254819D01*
X126370475Y-62254819D02*
X126179999Y-62254819D01*
X126179999Y-62254819D02*
X126084761Y-62207200D01*
X126846666Y-61588152D02*
X127227618Y-61588152D01*
X126989523Y-61254819D02*
X126989523Y-62111961D01*
X126989523Y-62111961D02*
X127037142Y-62207200D01*
X127037142Y-62207200D02*
X127132380Y-62254819D01*
X127132380Y-62254819D02*
X127227618Y-62254819D01*
X127989523Y-62254819D02*
X127989523Y-61731009D01*
X127989523Y-61731009D02*
X127941904Y-61635771D01*
X127941904Y-61635771D02*
X127846666Y-61588152D01*
X127846666Y-61588152D02*
X127656190Y-61588152D01*
X127656190Y-61588152D02*
X127560952Y-61635771D01*
X127989523Y-62207200D02*
X127894285Y-62254819D01*
X127894285Y-62254819D02*
X127656190Y-62254819D01*
X127656190Y-62254819D02*
X127560952Y-62207200D01*
X127560952Y-62207200D02*
X127513333Y-62111961D01*
X127513333Y-62111961D02*
X127513333Y-62016723D01*
X127513333Y-62016723D02*
X127560952Y-61921485D01*
X127560952Y-61921485D02*
X127656190Y-61873866D01*
X127656190Y-61873866D02*
X127894285Y-61873866D01*
X127894285Y-61873866D02*
X127989523Y-61826247D01*
X128894285Y-62207200D02*
X128799047Y-62254819D01*
X128799047Y-62254819D02*
X128608571Y-62254819D01*
X128608571Y-62254819D02*
X128513333Y-62207200D01*
X128513333Y-62207200D02*
X128465714Y-62159580D01*
X128465714Y-62159580D02*
X128418095Y-62064342D01*
X128418095Y-62064342D02*
X128418095Y-61778628D01*
X128418095Y-61778628D02*
X128465714Y-61683390D01*
X128465714Y-61683390D02*
X128513333Y-61635771D01*
X128513333Y-61635771D02*
X128608571Y-61588152D01*
X128608571Y-61588152D02*
X128799047Y-61588152D01*
X128799047Y-61588152D02*
X128894285Y-61635771D01*
X129465714Y-62254819D02*
X129370476Y-62207200D01*
X129370476Y-62207200D02*
X129322857Y-62111961D01*
X129322857Y-62111961D02*
X129322857Y-61254819D01*
X130227619Y-62207200D02*
X130132381Y-62254819D01*
X130132381Y-62254819D02*
X129941905Y-62254819D01*
X129941905Y-62254819D02*
X129846667Y-62207200D01*
X129846667Y-62207200D02*
X129799048Y-62111961D01*
X129799048Y-62111961D02*
X129799048Y-61731009D01*
X129799048Y-61731009D02*
X129846667Y-61635771D01*
X129846667Y-61635771D02*
X129941905Y-61588152D01*
X129941905Y-61588152D02*
X130132381Y-61588152D01*
X130132381Y-61588152D02*
X130227619Y-61635771D01*
X130227619Y-61635771D02*
X130275238Y-61731009D01*
X130275238Y-61731009D02*
X130275238Y-61826247D01*
X130275238Y-61826247D02*
X129799048Y-61921485D01*
X130465715Y-62350057D02*
X131227619Y-62350057D01*
X131465715Y-62254819D02*
X131465715Y-61254819D01*
X131465715Y-61254819D02*
X131846667Y-61254819D01*
X131846667Y-61254819D02*
X131941905Y-61302438D01*
X131941905Y-61302438D02*
X131989524Y-61350057D01*
X131989524Y-61350057D02*
X132037143Y-61445295D01*
X132037143Y-61445295D02*
X132037143Y-61588152D01*
X132037143Y-61588152D02*
X131989524Y-61683390D01*
X131989524Y-61683390D02*
X131941905Y-61731009D01*
X131941905Y-61731009D02*
X131846667Y-61778628D01*
X131846667Y-61778628D02*
X131465715Y-61778628D01*
X132608572Y-62254819D02*
X132513334Y-62207200D01*
X132513334Y-62207200D02*
X132465715Y-62159580D01*
X132465715Y-62159580D02*
X132418096Y-62064342D01*
X132418096Y-62064342D02*
X132418096Y-61778628D01*
X132418096Y-61778628D02*
X132465715Y-61683390D01*
X132465715Y-61683390D02*
X132513334Y-61635771D01*
X132513334Y-61635771D02*
X132608572Y-61588152D01*
X132608572Y-61588152D02*
X132751429Y-61588152D01*
X132751429Y-61588152D02*
X132846667Y-61635771D01*
X132846667Y-61635771D02*
X132894286Y-61683390D01*
X132894286Y-61683390D02*
X132941905Y-61778628D01*
X132941905Y-61778628D02*
X132941905Y-62064342D01*
X132941905Y-62064342D02*
X132894286Y-62159580D01*
X132894286Y-62159580D02*
X132846667Y-62207200D01*
X132846667Y-62207200D02*
X132751429Y-62254819D01*
X132751429Y-62254819D02*
X132608572Y-62254819D01*
X133275239Y-61588152D02*
X133465715Y-62254819D01*
X133465715Y-62254819D02*
X133656191Y-61778628D01*
X133656191Y-61778628D02*
X133846667Y-62254819D01*
X133846667Y-62254819D02*
X134037143Y-61588152D01*
X134799048Y-62207200D02*
X134703810Y-62254819D01*
X134703810Y-62254819D02*
X134513334Y-62254819D01*
X134513334Y-62254819D02*
X134418096Y-62207200D01*
X134418096Y-62207200D02*
X134370477Y-62111961D01*
X134370477Y-62111961D02*
X134370477Y-61731009D01*
X134370477Y-61731009D02*
X134418096Y-61635771D01*
X134418096Y-61635771D02*
X134513334Y-61588152D01*
X134513334Y-61588152D02*
X134703810Y-61588152D01*
X134703810Y-61588152D02*
X134799048Y-61635771D01*
X134799048Y-61635771D02*
X134846667Y-61731009D01*
X134846667Y-61731009D02*
X134846667Y-61826247D01*
X134846667Y-61826247D02*
X134370477Y-61921485D01*
X135275239Y-62254819D02*
X135275239Y-61588152D01*
X135275239Y-61778628D02*
X135322858Y-61683390D01*
X135322858Y-61683390D02*
X135370477Y-61635771D01*
X135370477Y-61635771D02*
X135465715Y-61588152D01*
X135465715Y-61588152D02*
X135560953Y-61588152D01*
X136084763Y-61254819D02*
X136275239Y-61254819D01*
X136275239Y-61254819D02*
X136370477Y-61302438D01*
X136370477Y-61302438D02*
X136465715Y-61397676D01*
X136465715Y-61397676D02*
X136513334Y-61588152D01*
X136513334Y-61588152D02*
X136513334Y-61921485D01*
X136513334Y-61921485D02*
X136465715Y-62111961D01*
X136465715Y-62111961D02*
X136370477Y-62207200D01*
X136370477Y-62207200D02*
X136275239Y-62254819D01*
X136275239Y-62254819D02*
X136084763Y-62254819D01*
X136084763Y-62254819D02*
X135989525Y-62207200D01*
X135989525Y-62207200D02*
X135894287Y-62111961D01*
X135894287Y-62111961D02*
X135846668Y-61921485D01*
X135846668Y-61921485D02*
X135846668Y-61588152D01*
X135846668Y-61588152D02*
X135894287Y-61397676D01*
X135894287Y-61397676D02*
X135989525Y-61302438D01*
X135989525Y-61302438D02*
X136084763Y-61254819D01*
X136941906Y-61588152D02*
X136941906Y-62254819D01*
X136941906Y-61683390D02*
X136989525Y-61635771D01*
X136989525Y-61635771D02*
X137084763Y-61588152D01*
X137084763Y-61588152D02*
X137227620Y-61588152D01*
X137227620Y-61588152D02*
X137322858Y-61635771D01*
X137322858Y-61635771D02*
X137370477Y-61731009D01*
X137370477Y-61731009D02*
X137370477Y-62254819D01*
X137989525Y-62254819D02*
X137894287Y-62207200D01*
X137894287Y-62207200D02*
X137846668Y-62111961D01*
X137846668Y-62111961D02*
X137846668Y-61254819D01*
X138275240Y-61588152D02*
X138513335Y-62254819D01*
X138751430Y-61588152D02*
X138513335Y-62254819D01*
X138513335Y-62254819D02*
X138418097Y-62492914D01*
X138418097Y-62492914D02*
X138370478Y-62540533D01*
X138370478Y-62540533D02*
X138275240Y-62588152D01*
X138894288Y-62350057D02*
X139656192Y-62350057D01*
X140322859Y-61254819D02*
X140132383Y-61254819D01*
X140132383Y-61254819D02*
X140037145Y-61302438D01*
X140037145Y-61302438D02*
X139989526Y-61350057D01*
X139989526Y-61350057D02*
X139894288Y-61492914D01*
X139894288Y-61492914D02*
X139846669Y-61683390D01*
X139846669Y-61683390D02*
X139846669Y-62064342D01*
X139846669Y-62064342D02*
X139894288Y-62159580D01*
X139894288Y-62159580D02*
X139941907Y-62207200D01*
X139941907Y-62207200D02*
X140037145Y-62254819D01*
X140037145Y-62254819D02*
X140227621Y-62254819D01*
X140227621Y-62254819D02*
X140322859Y-62207200D01*
X140322859Y-62207200D02*
X140370478Y-62159580D01*
X140370478Y-62159580D02*
X140418097Y-62064342D01*
X140418097Y-62064342D02*
X140418097Y-61826247D01*
X140418097Y-61826247D02*
X140370478Y-61731009D01*
X140370478Y-61731009D02*
X140322859Y-61683390D01*
X140322859Y-61683390D02*
X140227621Y-61635771D01*
X140227621Y-61635771D02*
X140037145Y-61635771D01*
X140037145Y-61635771D02*
X139941907Y-61683390D01*
X139941907Y-61683390D02*
X139894288Y-61731009D01*
X139894288Y-61731009D02*
X139846669Y-61826247D01*
X140846669Y-62254819D02*
X140846669Y-61254819D01*
X140846669Y-61254819D02*
X141227621Y-61254819D01*
X141227621Y-61254819D02*
X141322859Y-61302438D01*
X141322859Y-61302438D02*
X141370478Y-61350057D01*
X141370478Y-61350057D02*
X141418097Y-61445295D01*
X141418097Y-61445295D02*
X141418097Y-61588152D01*
X141418097Y-61588152D02*
X141370478Y-61683390D01*
X141370478Y-61683390D02*
X141322859Y-61731009D01*
X141322859Y-61731009D02*
X141227621Y-61778628D01*
X141227621Y-61778628D02*
X140846669Y-61778628D01*
X128846666Y-66004819D02*
X128846666Y-66719104D01*
X128846666Y-66719104D02*
X128799047Y-66861961D01*
X128799047Y-66861961D02*
X128703809Y-66957200D01*
X128703809Y-66957200D02*
X128560952Y-67004819D01*
X128560952Y-67004819D02*
X128465714Y-67004819D01*
X129846666Y-67004819D02*
X129275238Y-67004819D01*
X129560952Y-67004819D02*
X129560952Y-66004819D01*
X129560952Y-66004819D02*
X129465714Y-66147676D01*
X129465714Y-66147676D02*
X129370476Y-66242914D01*
X129370476Y-66242914D02*
X129275238Y-66290533D01*
D14*
%TO.C,J4*%
X154715000Y-80730000D02*
X155350000Y-81365000D01*
X145190000Y-80730000D02*
X154715000Y-80730000D01*
X155350000Y-81365000D02*
X155350000Y-83270000D01*
X155350000Y-83270000D02*
X145190000Y-83270000D01*
X145190000Y-83270000D02*
X145190000Y-80730000D01*
%TO.C,F1*%
X129750000Y-72400000D02*
X134250000Y-72400000D01*
X134250000Y-75600000D01*
X129750000Y-75600000D01*
X129750000Y-72400000D01*
%TO.C,U3*%
X154300000Y-71500000D02*
X147300000Y-71500000D01*
X147300000Y-65500000D01*
X148300000Y-64500000D01*
X154300000Y-64500000D01*
X154300000Y-71500000D01*
%TO.C,U2*%
X135750000Y-87500000D02*
X135750000Y-84500000D01*
X138250000Y-87500000D02*
X135750000Y-87500000D01*
X138250000Y-85250000D02*
X138250000Y-87500000D01*
X138250000Y-85250000D02*
X137500000Y-84500000D01*
X135750000Y-84500000D02*
X137500000Y-84500000D01*
%TO.C,R2*%
X135700000Y-65087500D02*
X137300000Y-65087500D01*
X137300000Y-65912500D01*
X135700000Y-65912500D01*
X135700000Y-65087500D01*
%TO.C,R3*%
X142912500Y-64200000D02*
X142087500Y-64200000D01*
X142087500Y-65800000D01*
X142912500Y-65800000D01*
X142912500Y-64200000D01*
%TO.C,R4*%
X144087500Y-65800000D02*
X144912500Y-65800000D01*
X144912500Y-64200000D01*
X144087500Y-64200000D01*
X144087500Y-65800000D01*
%TO.C,J3*%
X145825000Y-78270000D02*
X145190000Y-77635000D01*
X155350000Y-78270000D02*
X145825000Y-78270000D01*
X145190000Y-77635000D02*
X145190000Y-75730000D01*
X145190000Y-75730000D02*
X155350000Y-75730000D01*
X155350000Y-75730000D02*
X155350000Y-78270000D01*
%TO.C,R6*%
X144700000Y-72087500D02*
X146300000Y-72087500D01*
X146300000Y-72912500D01*
X144700000Y-72912500D01*
X144700000Y-72087500D01*
%TO.C,R1*%
X135525000Y-63087500D02*
X137125000Y-63087500D01*
X137125000Y-63912500D01*
X135525000Y-63912500D01*
X135525000Y-63087500D01*
%TO.C,C5*%
X131100000Y-86800000D02*
X131900000Y-86800000D01*
X131900000Y-85200000D01*
X131100000Y-85200000D01*
X131100000Y-86800000D01*
%TO.C,C2*%
X132800000Y-80900000D02*
X131200000Y-80900000D01*
X131200000Y-80100000D01*
X132800000Y-80100000D01*
X132800000Y-80900000D01*
%TO.C,C4*%
X134400000Y-85200000D02*
X133600000Y-85200000D01*
X133600000Y-86800000D01*
X134400000Y-86800000D01*
X134400000Y-85200000D01*
%TO.C,U1*%
X134162500Y-79050000D02*
X133762500Y-79450000D01*
X132562500Y-79450000D01*
X132562500Y-76550000D01*
X134162500Y-76550000D01*
X134162500Y-79050000D01*
%TO.C,R5*%
X129912500Y-85200000D02*
X129087500Y-85200000D01*
X129087500Y-86800000D01*
X129912500Y-86800000D01*
X129912500Y-85200000D01*
%TO.C,D1*%
X127400000Y-72100000D02*
X127400000Y-74900000D01*
X125600000Y-72100000D02*
X127400000Y-72100000D01*
X126900000Y-73250000D02*
X126500000Y-73850000D01*
X126500000Y-73250000D02*
X126500000Y-72750000D01*
X126100000Y-73250000D02*
X126900000Y-73250000D01*
X126500000Y-73850000D02*
X126100000Y-73250000D01*
X126500000Y-73850000D02*
X127050000Y-73850000D01*
X126500000Y-73850000D02*
X125950000Y-73850000D01*
X126500000Y-74250000D02*
X126500000Y-73850000D01*
X127400000Y-74900000D02*
X125600000Y-74900000D01*
X125600000Y-74900000D02*
X125600000Y-72100000D01*
%TO.C,C1*%
X136100000Y-78800000D02*
X136900000Y-78800000D01*
X136900000Y-77200000D01*
X136100000Y-77200000D01*
X136100000Y-78800000D01*
%TO.C,J5*%
X143325000Y-88270000D02*
X142690000Y-87635000D01*
X155390000Y-88270000D02*
X143325000Y-88270000D01*
X142690000Y-87635000D02*
X142690000Y-85730000D01*
X142690000Y-85730000D02*
X155390000Y-85730000D01*
X155390000Y-85730000D02*
X155390000Y-88270000D01*
%TO.C,C6*%
X143200000Y-69600000D02*
X144800000Y-69600000D01*
X144800000Y-70400000D01*
X143200000Y-70400000D01*
X143200000Y-69600000D01*
%TO.C,C3*%
X130100000Y-78800000D02*
X130900000Y-78800000D01*
X130900000Y-77200000D01*
X130100000Y-77200000D01*
X130100000Y-78800000D01*
%TO.C,C7*%
X144800000Y-68400000D02*
X143200000Y-68400000D01*
X143200000Y-67600000D01*
X144800000Y-67600000D01*
X144800000Y-68400000D01*
%TO.C,J1*%
X133650000Y-69950000D02*
X133650000Y-63150000D01*
X133650000Y-69950000D02*
X124710000Y-69950000D01*
X133650000Y-63150000D02*
X124710000Y-63150000D01*
X124710000Y-69950000D02*
X124710000Y-63150000D01*
%TD*%
M02*
