%TF.GenerationSoftware,KiCad,Pcbnew,9.0.7*%
%TF.CreationDate,2026-02-19T23:59:13-05:00*%
%TF.ProjectId,usb_c_sensor_breakout,7573625f-635f-4736-956e-736f725f6272,rev?*%
%TF.SameCoordinates,Original*%
%TF.FileFunction,Drillmap*%
%TF.FilePolarity,Positive*%
%FSLAX45Y45*%
G04 Gerber Fmt 4.5, Leading zero omitted, Abs format (unit mm)*
G04 Created by KiCad (PCBNEW 9.0.7) date 2026-02-19 23:59:13*
%MOMM*%
%LPD*%
G01*
G04 APERTURE LIST*
%ADD10C,0.050000*%
%ADD11C,0.200000*%
G04 APERTURE END LIST*
D10*
X12350000Y-6150000D02*
X15650000Y-6150000D01*
X15650000Y-9000000D01*
X12350000Y-9000000D01*
X12350000Y-6150000D01*
D11*
X12608277Y-9313984D02*
X12608277Y-9113984D01*
X12608277Y-9113984D02*
X12655896Y-9113984D01*
X12655896Y-9113984D02*
X12684467Y-9123508D01*
X12684467Y-9123508D02*
X12703515Y-9142555D01*
X12703515Y-9142555D02*
X12713039Y-9161603D01*
X12713039Y-9161603D02*
X12722562Y-9199698D01*
X12722562Y-9199698D02*
X12722562Y-9228270D01*
X12722562Y-9228270D02*
X12713039Y-9266365D01*
X12713039Y-9266365D02*
X12703515Y-9285412D01*
X12703515Y-9285412D02*
X12684467Y-9304460D01*
X12684467Y-9304460D02*
X12655896Y-9313984D01*
X12655896Y-9313984D02*
X12608277Y-9313984D01*
X12808277Y-9313984D02*
X12808277Y-9180650D01*
X12808277Y-9218746D02*
X12817801Y-9199698D01*
X12817801Y-9199698D02*
X12827324Y-9190174D01*
X12827324Y-9190174D02*
X12846372Y-9180650D01*
X12846372Y-9180650D02*
X12865420Y-9180650D01*
X12932086Y-9313984D02*
X12932086Y-9180650D01*
X12932086Y-9113984D02*
X12922562Y-9123508D01*
X12922562Y-9123508D02*
X12932086Y-9133031D01*
X12932086Y-9133031D02*
X12941610Y-9123508D01*
X12941610Y-9123508D02*
X12932086Y-9113984D01*
X12932086Y-9113984D02*
X12932086Y-9133031D01*
X13055896Y-9313984D02*
X13036848Y-9304460D01*
X13036848Y-9304460D02*
X13027324Y-9285412D01*
X13027324Y-9285412D02*
X13027324Y-9113984D01*
X13160658Y-9313984D02*
X13141610Y-9304460D01*
X13141610Y-9304460D02*
X13132086Y-9285412D01*
X13132086Y-9285412D02*
X13132086Y-9113984D01*
X13389229Y-9313984D02*
X13389229Y-9113984D01*
X13389229Y-9113984D02*
X13455896Y-9256841D01*
X13455896Y-9256841D02*
X13522562Y-9113984D01*
X13522562Y-9113984D02*
X13522562Y-9313984D01*
X13703515Y-9313984D02*
X13703515Y-9209222D01*
X13703515Y-9209222D02*
X13693991Y-9190174D01*
X13693991Y-9190174D02*
X13674943Y-9180650D01*
X13674943Y-9180650D02*
X13636848Y-9180650D01*
X13636848Y-9180650D02*
X13617801Y-9190174D01*
X13703515Y-9304460D02*
X13684467Y-9313984D01*
X13684467Y-9313984D02*
X13636848Y-9313984D01*
X13636848Y-9313984D02*
X13617801Y-9304460D01*
X13617801Y-9304460D02*
X13608277Y-9285412D01*
X13608277Y-9285412D02*
X13608277Y-9266365D01*
X13608277Y-9266365D02*
X13617801Y-9247317D01*
X13617801Y-9247317D02*
X13636848Y-9237793D01*
X13636848Y-9237793D02*
X13684467Y-9237793D01*
X13684467Y-9237793D02*
X13703515Y-9228270D01*
X13798753Y-9180650D02*
X13798753Y-9380650D01*
X13798753Y-9190174D02*
X13817801Y-9180650D01*
X13817801Y-9180650D02*
X13855896Y-9180650D01*
X13855896Y-9180650D02*
X13874943Y-9190174D01*
X13874943Y-9190174D02*
X13884467Y-9199698D01*
X13884467Y-9199698D02*
X13893991Y-9218746D01*
X13893991Y-9218746D02*
X13893991Y-9275889D01*
X13893991Y-9275889D02*
X13884467Y-9294936D01*
X13884467Y-9294936D02*
X13874943Y-9304460D01*
X13874943Y-9304460D02*
X13855896Y-9313984D01*
X13855896Y-9313984D02*
X13817801Y-9313984D01*
X13817801Y-9313984D02*
X13798753Y-9304460D01*
X13979705Y-9294936D02*
X13989229Y-9304460D01*
X13989229Y-9304460D02*
X13979705Y-9313984D01*
X13979705Y-9313984D02*
X13970182Y-9304460D01*
X13970182Y-9304460D02*
X13979705Y-9294936D01*
X13979705Y-9294936D02*
X13979705Y-9313984D01*
X13979705Y-9190174D02*
X13989229Y-9199698D01*
X13989229Y-9199698D02*
X13979705Y-9209222D01*
X13979705Y-9209222D02*
X13970182Y-9199698D01*
X13970182Y-9199698D02*
X13979705Y-9190174D01*
X13979705Y-9190174D02*
X13979705Y-9209222D01*
M02*
