M48
; DRILL file {KiCad 9.0.7} date 2026-02-19T23:59:13-0500
; FORMAT={-:-/ absolute / metric / decimal}
; #@! TF.CreationDate,2026-02-19T23:59:13-05:00
; #@! TF.GenerationSoftware,Kicad,Pcbnew,9.0.7
; #@! TF.FileFunction,Plated,1,2,PTH
FMAT,2
METRIC
; #@! TA.AperFunction,Plated,PTH,ViaDrill
T1C0.300
; #@! TA.AperFunction,Plated,PTH,ComponentDrill
T2C0.500
; #@! TA.AperFunction,Plated,PTH,ComponentDrill
T3C1.000
%
G90
G05
T1
X124.5Y-71.85
X126.43Y-71.0
X129.5Y-77.0
X131.5Y-71.5
X132.47Y-87.53
X133.0Y-78.0
X135.0Y-86.5
X136.75Y-86.25
X138.0Y-84.0
X139.0Y-85.475
X139.0Y-86.275
X140.816Y-82.684
X141.645Y-83.655
X143.0Y-67.0
X143.0Y-71.0
X143.0Y-79.2
X144.401Y-82.0
X147.0Y-71.55
X148.0Y-68.35
X148.375Y-70.0
X148.5Y-65.0
X149.5Y-65.0
X149.5Y-69.0
X152.93Y-65.93
X154.0Y-84.5
X154.5Y-64.0
T3
X143.96Y-87.0
X146.46Y-77.0
X146.46Y-82.0
X146.5Y-87.0
X149.0Y-77.0
X149.0Y-82.0
X149.04Y-87.0
X151.54Y-77.0
X151.54Y-82.0
X151.58Y-87.0
X154.08Y-77.0
X154.08Y-82.0
X154.12Y-87.0
T2
G00X124.86Y-66.1
M15
G01X124.86Y-65.4
M16
G05
G00X124.86Y-69.9
M15
G01X124.86Y-69.2
M16
G05
G00X133.5Y-66.1
M15
G01X133.5Y-65.4
M16
G05
G00X133.5Y-69.9
M15
G01X133.5Y-69.2
M16
G05
M30
