%TF.GenerationSoftware,KiCad,Pcbnew,9.0.7*%
%TF.CreationDate,2026-02-19T23:59:13-05:00*%
%TF.ProjectId,usb_c_sensor_breakout,7573625f-635f-4736-956e-736f725f6272,rev?*%
%TF.SameCoordinates,Original*%
%TF.FileFunction,Drillmap*%
%TF.FilePolarity,Positive*%
%FSLAX45Y45*%
G04 Gerber Fmt 4.5, Leading zero omitted, Abs format (unit mm)*
G04 Created by KiCad (PCBNEW 9.0.7) date 2026-02-19 23:59:13*
%MOMM*%
%LPD*%
G01*
G04 APERTURE LIST*
%ADD10C,0.050000*%
%ADD11C,0.200000*%
%ADD12C,0.100000*%
G04 APERTURE END LIST*
D10*
X12350000Y-6150000D02*
X15650000Y-6150000D01*
X15650000Y-9000000D01*
X12350000Y-9000000D01*
X12350000Y-6150000D01*
D11*
D12*
X12435000Y-7170000D02*
X12465000Y-7200000D01*
X12465000Y-7170000D02*
X12435000Y-7200000D01*
X12628000Y-7085000D02*
X12658000Y-7115000D01*
X12658000Y-7085000D02*
X12628000Y-7115000D01*
X12935000Y-7685000D02*
X12965000Y-7715000D01*
X12965000Y-7685000D02*
X12935000Y-7715000D01*
X13135000Y-7135000D02*
X13165000Y-7165000D01*
X13165000Y-7135000D02*
X13135000Y-7165000D01*
X13231961Y-8738039D02*
X13261961Y-8768039D01*
X13261961Y-8738039D02*
X13231961Y-8768039D01*
X13285000Y-7785000D02*
X13315000Y-7815000D01*
X13315000Y-7785000D02*
X13285000Y-7815000D01*
X13485000Y-8635000D02*
X13515000Y-8665000D01*
X13515000Y-8635000D02*
X13485000Y-8665000D01*
X13660000Y-8610000D02*
X13690000Y-8640000D01*
X13690000Y-8610000D02*
X13660000Y-8640000D01*
X13785000Y-8385000D02*
X13815000Y-8415000D01*
X13815000Y-8385000D02*
X13785000Y-8415000D01*
X13885000Y-8532500D02*
X13915000Y-8562500D01*
X13915000Y-8532500D02*
X13885000Y-8562500D01*
X13885000Y-8612500D02*
X13915000Y-8642500D01*
X13915000Y-8612500D02*
X13885000Y-8642500D01*
X14066569Y-8253431D02*
X14096569Y-8283431D01*
X14096569Y-8253431D02*
X14066569Y-8283431D01*
X14149497Y-8350502D02*
X14179497Y-8380502D01*
X14179497Y-8350502D02*
X14149497Y-8380502D01*
X14285000Y-6685000D02*
X14315000Y-6715000D01*
X14315000Y-6685000D02*
X14285000Y-6715000D01*
X14285000Y-7085000D02*
X14315000Y-7115000D01*
X14315000Y-7085000D02*
X14285000Y-7115000D01*
X14285000Y-7905000D02*
X14315000Y-7935000D01*
X14315000Y-7905000D02*
X14285000Y-7935000D01*
X14425100Y-8185000D02*
X14455100Y-8215000D01*
X14455100Y-8185000D02*
X14425100Y-8215000D01*
X14685000Y-7140000D02*
X14715000Y-7170000D01*
X14715000Y-7140000D02*
X14685000Y-7170000D01*
X14785000Y-6820000D02*
X14815000Y-6850000D01*
X14815000Y-6820000D02*
X14785000Y-6850000D01*
X14822500Y-6985000D02*
X14852500Y-7015000D01*
X14852500Y-6985000D02*
X14822500Y-7015000D01*
X14835000Y-6485000D02*
X14865000Y-6515000D01*
X14865000Y-6485000D02*
X14835000Y-6515000D01*
X14935000Y-6485000D02*
X14965000Y-6515000D01*
X14965000Y-6485000D02*
X14935000Y-6515000D01*
X14935000Y-6885000D02*
X14965000Y-6915000D01*
X14965000Y-6885000D02*
X14935000Y-6915000D01*
X15278000Y-6578000D02*
X15308000Y-6608000D01*
X15308000Y-6578000D02*
X15278000Y-6608000D01*
X15385000Y-8435000D02*
X15415000Y-8465000D01*
X15415000Y-8435000D02*
X15385000Y-8465000D01*
X15435000Y-6385000D02*
X15465000Y-6415000D01*
X15465000Y-6385000D02*
X15435000Y-6415000D01*
X12511000Y-6575000D02*
G75*
G02*
X12461000Y-6575000I-25000J0D01*
G01*
X12461000Y-6575000D02*
G75*
G02*
X12511000Y-6575000I25000J0D01*
G01*
X12511000Y-6610000D02*
X12511000Y-6540000D01*
X12461000Y-6540000D02*
G75*
G02*
X12511000Y-6540000I25000J0D01*
G01*
X12461000Y-6540000D02*
X12461000Y-6610000D01*
X12461000Y-6610000D02*
G75*
G03*
X12511000Y-6610000I25000J0D01*
G01*
X12511000Y-6955000D02*
G75*
G02*
X12461000Y-6955000I-25000J0D01*
G01*
X12461000Y-6955000D02*
G75*
G02*
X12511000Y-6955000I25000J0D01*
G01*
X12511000Y-6990000D02*
X12511000Y-6920000D01*
X12461000Y-6920000D02*
G75*
G02*
X12511000Y-6920000I25000J0D01*
G01*
X12461000Y-6920000D02*
X12461000Y-6990000D01*
X12461000Y-6990000D02*
G75*
G03*
X12511000Y-6990000I25000J0D01*
G01*
X13375000Y-6575000D02*
G75*
G02*
X13325000Y-6575000I-25000J0D01*
G01*
X13325000Y-6575000D02*
G75*
G02*
X13375000Y-6575000I25000J0D01*
G01*
X13375000Y-6610000D02*
X13375000Y-6540000D01*
X13325000Y-6540000D02*
G75*
G02*
X13375000Y-6540000I25000J0D01*
G01*
X13325000Y-6540000D02*
X13325000Y-6610000D01*
X13325000Y-6610000D02*
G75*
G03*
X13375000Y-6610000I25000J0D01*
G01*
X13375000Y-6955000D02*
G75*
G02*
X13325000Y-6955000I-25000J0D01*
G01*
X13325000Y-6955000D02*
G75*
G02*
X13375000Y-6955000I25000J0D01*
G01*
X13375000Y-6990000D02*
X13375000Y-6920000D01*
X13325000Y-6920000D02*
G75*
G02*
X13375000Y-6920000I25000J0D01*
G01*
X13325000Y-6920000D02*
X13325000Y-6990000D01*
X13325000Y-6990000D02*
G75*
G03*
X13375000Y-6990000I25000J0D01*
G01*
X14396000Y-8650000D02*
X14396000Y-8750000D01*
X14346000Y-8700000D02*
X14446000Y-8700000D01*
X14646000Y-7650000D02*
X14646000Y-7750000D01*
X14596000Y-7700000D02*
X14696000Y-7700000D01*
X14646000Y-8150000D02*
X14646000Y-8250000D01*
X14596000Y-8200000D02*
X14696000Y-8200000D01*
X14650000Y-8650000D02*
X14650000Y-8750000D01*
X14600000Y-8700000D02*
X14700000Y-8700000D01*
X14900000Y-7650000D02*
X14900000Y-7750000D01*
X14850000Y-7700000D02*
X14950000Y-7700000D01*
X14900000Y-8150000D02*
X14900000Y-8250000D01*
X14850000Y-8200000D02*
X14950000Y-8200000D01*
X14904000Y-8650000D02*
X14904000Y-8750000D01*
X14854000Y-8700000D02*
X14954000Y-8700000D01*
X15154000Y-7650000D02*
X15154000Y-7750000D01*
X15104000Y-7700000D02*
X15204000Y-7700000D01*
X15154000Y-8150000D02*
X15154000Y-8250000D01*
X15104000Y-8200000D02*
X15204000Y-8200000D01*
X15158000Y-8650000D02*
X15158000Y-8750000D01*
X15108000Y-8700000D02*
X15208000Y-8700000D01*
X15408000Y-7650000D02*
X15408000Y-7750000D01*
X15358000Y-7700000D02*
X15458000Y-7700000D01*
X15408000Y-8150000D02*
X15408000Y-8250000D01*
X15358000Y-8200000D02*
X15458000Y-8200000D01*
X15412000Y-8650000D02*
X15412000Y-8750000D01*
X15362000Y-8700000D02*
X15462000Y-8700000D01*
D11*
X12608277Y-9313984D02*
X12608277Y-9113984D01*
X12608277Y-9113984D02*
X12655896Y-9113984D01*
X12655896Y-9113984D02*
X12684467Y-9123508D01*
X12684467Y-9123508D02*
X12703515Y-9142555D01*
X12703515Y-9142555D02*
X12713039Y-9161603D01*
X12713039Y-9161603D02*
X12722562Y-9199698D01*
X12722562Y-9199698D02*
X12722562Y-9228270D01*
X12722562Y-9228270D02*
X12713039Y-9266365D01*
X12713039Y-9266365D02*
X12703515Y-9285412D01*
X12703515Y-9285412D02*
X12684467Y-9304460D01*
X12684467Y-9304460D02*
X12655896Y-9313984D01*
X12655896Y-9313984D02*
X12608277Y-9313984D01*
X12808277Y-9313984D02*
X12808277Y-9180650D01*
X12808277Y-9218746D02*
X12817801Y-9199698D01*
X12817801Y-9199698D02*
X12827324Y-9190174D01*
X12827324Y-9190174D02*
X12846372Y-9180650D01*
X12846372Y-9180650D02*
X12865420Y-9180650D01*
X12932086Y-9313984D02*
X12932086Y-9180650D01*
X12932086Y-9113984D02*
X12922562Y-9123508D01*
X12922562Y-9123508D02*
X12932086Y-9133031D01*
X12932086Y-9133031D02*
X12941610Y-9123508D01*
X12941610Y-9123508D02*
X12932086Y-9113984D01*
X12932086Y-9113984D02*
X12932086Y-9133031D01*
X13055896Y-9313984D02*
X13036848Y-9304460D01*
X13036848Y-9304460D02*
X13027324Y-9285412D01*
X13027324Y-9285412D02*
X13027324Y-9113984D01*
X13160658Y-9313984D02*
X13141610Y-9304460D01*
X13141610Y-9304460D02*
X13132086Y-9285412D01*
X13132086Y-9285412D02*
X13132086Y-9113984D01*
X13389229Y-9313984D02*
X13389229Y-9113984D01*
X13389229Y-9113984D02*
X13455896Y-9256841D01*
X13455896Y-9256841D02*
X13522562Y-9113984D01*
X13522562Y-9113984D02*
X13522562Y-9313984D01*
X13703515Y-9313984D02*
X13703515Y-9209222D01*
X13703515Y-9209222D02*
X13693991Y-9190174D01*
X13693991Y-9190174D02*
X13674943Y-9180650D01*
X13674943Y-9180650D02*
X13636848Y-9180650D01*
X13636848Y-9180650D02*
X13617801Y-9190174D01*
X13703515Y-9304460D02*
X13684467Y-9313984D01*
X13684467Y-9313984D02*
X13636848Y-9313984D01*
X13636848Y-9313984D02*
X13617801Y-9304460D01*
X13617801Y-9304460D02*
X13608277Y-9285412D01*
X13608277Y-9285412D02*
X13608277Y-9266365D01*
X13608277Y-9266365D02*
X13617801Y-9247317D01*
X13617801Y-9247317D02*
X13636848Y-9237793D01*
X13636848Y-9237793D02*
X13684467Y-9237793D01*
X13684467Y-9237793D02*
X13703515Y-9228270D01*
X13798753Y-9180650D02*
X13798753Y-9380650D01*
X13798753Y-9190174D02*
X13817801Y-9180650D01*
X13817801Y-9180650D02*
X13855896Y-9180650D01*
X13855896Y-9180650D02*
X13874943Y-9190174D01*
X13874943Y-9190174D02*
X13884467Y-9199698D01*
X13884467Y-9199698D02*
X13893991Y-9218746D01*
X13893991Y-9218746D02*
X13893991Y-9275889D01*
X13893991Y-9275889D02*
X13884467Y-9294936D01*
X13884467Y-9294936D02*
X13874943Y-9304460D01*
X13874943Y-9304460D02*
X13855896Y-9313984D01*
X13855896Y-9313984D02*
X13817801Y-9313984D01*
X13817801Y-9313984D02*
X13798753Y-9304460D01*
X13979705Y-9294936D02*
X13989229Y-9304460D01*
X13989229Y-9304460D02*
X13979705Y-9313984D01*
X13979705Y-9313984D02*
X13970182Y-9304460D01*
X13970182Y-9304460D02*
X13979705Y-9294936D01*
X13979705Y-9294936D02*
X13979705Y-9313984D01*
X13979705Y-9190174D02*
X13989229Y-9199698D01*
X13989229Y-9199698D02*
X13979705Y-9209222D01*
X13979705Y-9209222D02*
X13970182Y-9199698D01*
X13970182Y-9199698D02*
X13979705Y-9190174D01*
X13979705Y-9190174D02*
X13979705Y-9209222D01*
D12*
X12317500Y-9627500D02*
X12347500Y-9657500D01*
X12347500Y-9627500D02*
X12317500Y-9657500D01*
D11*
X12646372Y-9533984D02*
X12665420Y-9533984D01*
X12665420Y-9533984D02*
X12684467Y-9543508D01*
X12684467Y-9543508D02*
X12693991Y-9553031D01*
X12693991Y-9553031D02*
X12703515Y-9572079D01*
X12703515Y-9572079D02*
X12713039Y-9610174D01*
X12713039Y-9610174D02*
X12713039Y-9657793D01*
X12713039Y-9657793D02*
X12703515Y-9695889D01*
X12703515Y-9695889D02*
X12693991Y-9714936D01*
X12693991Y-9714936D02*
X12684467Y-9724460D01*
X12684467Y-9724460D02*
X12665420Y-9733984D01*
X12665420Y-9733984D02*
X12646372Y-9733984D01*
X12646372Y-9733984D02*
X12627324Y-9724460D01*
X12627324Y-9724460D02*
X12617801Y-9714936D01*
X12617801Y-9714936D02*
X12608277Y-9695889D01*
X12608277Y-9695889D02*
X12598753Y-9657793D01*
X12598753Y-9657793D02*
X12598753Y-9610174D01*
X12598753Y-9610174D02*
X12608277Y-9572079D01*
X12608277Y-9572079D02*
X12617801Y-9553031D01*
X12617801Y-9553031D02*
X12627324Y-9543508D01*
X12627324Y-9543508D02*
X12646372Y-9533984D01*
X12798753Y-9714936D02*
X12808277Y-9724460D01*
X12808277Y-9724460D02*
X12798753Y-9733984D01*
X12798753Y-9733984D02*
X12789229Y-9724460D01*
X12789229Y-9724460D02*
X12798753Y-9714936D01*
X12798753Y-9714936D02*
X12798753Y-9733984D01*
X12874943Y-9533984D02*
X12998753Y-9533984D01*
X12998753Y-9533984D02*
X12932086Y-9610174D01*
X12932086Y-9610174D02*
X12960658Y-9610174D01*
X12960658Y-9610174D02*
X12979705Y-9619698D01*
X12979705Y-9619698D02*
X12989229Y-9629222D01*
X12989229Y-9629222D02*
X12998753Y-9648270D01*
X12998753Y-9648270D02*
X12998753Y-9695889D01*
X12998753Y-9695889D02*
X12989229Y-9714936D01*
X12989229Y-9714936D02*
X12979705Y-9724460D01*
X12979705Y-9724460D02*
X12960658Y-9733984D01*
X12960658Y-9733984D02*
X12903515Y-9733984D01*
X12903515Y-9733984D02*
X12884467Y-9724460D01*
X12884467Y-9724460D02*
X12874943Y-9714936D01*
X13122562Y-9533984D02*
X13141610Y-9533984D01*
X13141610Y-9533984D02*
X13160658Y-9543508D01*
X13160658Y-9543508D02*
X13170182Y-9553031D01*
X13170182Y-9553031D02*
X13179705Y-9572079D01*
X13179705Y-9572079D02*
X13189229Y-9610174D01*
X13189229Y-9610174D02*
X13189229Y-9657793D01*
X13189229Y-9657793D02*
X13179705Y-9695889D01*
X13179705Y-9695889D02*
X13170182Y-9714936D01*
X13170182Y-9714936D02*
X13160658Y-9724460D01*
X13160658Y-9724460D02*
X13141610Y-9733984D01*
X13141610Y-9733984D02*
X13122562Y-9733984D01*
X13122562Y-9733984D02*
X13103515Y-9724460D01*
X13103515Y-9724460D02*
X13093991Y-9714936D01*
X13093991Y-9714936D02*
X13084467Y-9695889D01*
X13084467Y-9695889D02*
X13074943Y-9657793D01*
X13074943Y-9657793D02*
X13074943Y-9610174D01*
X13074943Y-9610174D02*
X13084467Y-9572079D01*
X13084467Y-9572079D02*
X13093991Y-9553031D01*
X13093991Y-9553031D02*
X13103515Y-9543508D01*
X13103515Y-9543508D02*
X13122562Y-9533984D01*
X13313039Y-9533984D02*
X13332086Y-9533984D01*
X13332086Y-9533984D02*
X13351134Y-9543508D01*
X13351134Y-9543508D02*
X13360658Y-9553031D01*
X13360658Y-9553031D02*
X13370182Y-9572079D01*
X13370182Y-9572079D02*
X13379705Y-9610174D01*
X13379705Y-9610174D02*
X13379705Y-9657793D01*
X13379705Y-9657793D02*
X13370182Y-9695889D01*
X13370182Y-9695889D02*
X13360658Y-9714936D01*
X13360658Y-9714936D02*
X13351134Y-9724460D01*
X13351134Y-9724460D02*
X13332086Y-9733984D01*
X13332086Y-9733984D02*
X13313039Y-9733984D01*
X13313039Y-9733984D02*
X13293991Y-9724460D01*
X13293991Y-9724460D02*
X13284467Y-9714936D01*
X13284467Y-9714936D02*
X13274943Y-9695889D01*
X13274943Y-9695889D02*
X13265420Y-9657793D01*
X13265420Y-9657793D02*
X13265420Y-9610174D01*
X13265420Y-9610174D02*
X13274943Y-9572079D01*
X13274943Y-9572079D02*
X13284467Y-9553031D01*
X13284467Y-9553031D02*
X13293991Y-9543508D01*
X13293991Y-9543508D02*
X13313039Y-9533984D01*
X13465420Y-9733984D02*
X13465420Y-9600650D01*
X13465420Y-9619698D02*
X13474943Y-9610174D01*
X13474943Y-9610174D02*
X13493991Y-9600650D01*
X13493991Y-9600650D02*
X13522563Y-9600650D01*
X13522563Y-9600650D02*
X13541610Y-9610174D01*
X13541610Y-9610174D02*
X13551134Y-9629222D01*
X13551134Y-9629222D02*
X13551134Y-9733984D01*
X13551134Y-9629222D02*
X13560658Y-9610174D01*
X13560658Y-9610174D02*
X13579705Y-9600650D01*
X13579705Y-9600650D02*
X13608277Y-9600650D01*
X13608277Y-9600650D02*
X13627324Y-9610174D01*
X13627324Y-9610174D02*
X13636848Y-9629222D01*
X13636848Y-9629222D02*
X13636848Y-9733984D01*
X13732086Y-9733984D02*
X13732086Y-9600650D01*
X13732086Y-9619698D02*
X13741610Y-9610174D01*
X13741610Y-9610174D02*
X13760658Y-9600650D01*
X13760658Y-9600650D02*
X13789229Y-9600650D01*
X13789229Y-9600650D02*
X13808277Y-9610174D01*
X13808277Y-9610174D02*
X13817801Y-9629222D01*
X13817801Y-9629222D02*
X13817801Y-9733984D01*
X13817801Y-9629222D02*
X13827324Y-9610174D01*
X13827324Y-9610174D02*
X13846372Y-9600650D01*
X13846372Y-9600650D02*
X13874943Y-9600650D01*
X13874943Y-9600650D02*
X13893991Y-9610174D01*
X13893991Y-9610174D02*
X13903515Y-9629222D01*
X13903515Y-9629222D02*
X13903515Y-9733984D01*
X14293991Y-9524460D02*
X14122563Y-9781603D01*
X14551134Y-9533984D02*
X14570182Y-9533984D01*
X14570182Y-9533984D02*
X14589229Y-9543508D01*
X14589229Y-9543508D02*
X14598753Y-9553031D01*
X14598753Y-9553031D02*
X14608277Y-9572079D01*
X14608277Y-9572079D02*
X14617801Y-9610174D01*
X14617801Y-9610174D02*
X14617801Y-9657793D01*
X14617801Y-9657793D02*
X14608277Y-9695889D01*
X14608277Y-9695889D02*
X14598753Y-9714936D01*
X14598753Y-9714936D02*
X14589229Y-9724460D01*
X14589229Y-9724460D02*
X14570182Y-9733984D01*
X14570182Y-9733984D02*
X14551134Y-9733984D01*
X14551134Y-9733984D02*
X14532086Y-9724460D01*
X14532086Y-9724460D02*
X14522563Y-9714936D01*
X14522563Y-9714936D02*
X14513039Y-9695889D01*
X14513039Y-9695889D02*
X14503515Y-9657793D01*
X14503515Y-9657793D02*
X14503515Y-9610174D01*
X14503515Y-9610174D02*
X14513039Y-9572079D01*
X14513039Y-9572079D02*
X14522563Y-9553031D01*
X14522563Y-9553031D02*
X14532086Y-9543508D01*
X14532086Y-9543508D02*
X14551134Y-9533984D01*
X14703515Y-9714936D02*
X14713039Y-9724460D01*
X14713039Y-9724460D02*
X14703515Y-9733984D01*
X14703515Y-9733984D02*
X14693991Y-9724460D01*
X14693991Y-9724460D02*
X14703515Y-9714936D01*
X14703515Y-9714936D02*
X14703515Y-9733984D01*
X14836848Y-9533984D02*
X14855896Y-9533984D01*
X14855896Y-9533984D02*
X14874944Y-9543508D01*
X14874944Y-9543508D02*
X14884467Y-9553031D01*
X14884467Y-9553031D02*
X14893991Y-9572079D01*
X14893991Y-9572079D02*
X14903515Y-9610174D01*
X14903515Y-9610174D02*
X14903515Y-9657793D01*
X14903515Y-9657793D02*
X14893991Y-9695889D01*
X14893991Y-9695889D02*
X14884467Y-9714936D01*
X14884467Y-9714936D02*
X14874944Y-9724460D01*
X14874944Y-9724460D02*
X14855896Y-9733984D01*
X14855896Y-9733984D02*
X14836848Y-9733984D01*
X14836848Y-9733984D02*
X14817801Y-9724460D01*
X14817801Y-9724460D02*
X14808277Y-9714936D01*
X14808277Y-9714936D02*
X14798753Y-9695889D01*
X14798753Y-9695889D02*
X14789229Y-9657793D01*
X14789229Y-9657793D02*
X14789229Y-9610174D01*
X14789229Y-9610174D02*
X14798753Y-9572079D01*
X14798753Y-9572079D02*
X14808277Y-9553031D01*
X14808277Y-9553031D02*
X14817801Y-9543508D01*
X14817801Y-9543508D02*
X14836848Y-9533984D01*
X15093991Y-9733984D02*
X14979706Y-9733984D01*
X15036848Y-9733984D02*
X15036848Y-9533984D01*
X15036848Y-9533984D02*
X15017801Y-9562555D01*
X15017801Y-9562555D02*
X14998753Y-9581603D01*
X14998753Y-9581603D02*
X14979706Y-9591127D01*
X15284467Y-9733984D02*
X15170182Y-9733984D01*
X15227325Y-9733984D02*
X15227325Y-9533984D01*
X15227325Y-9533984D02*
X15208277Y-9562555D01*
X15208277Y-9562555D02*
X15189229Y-9581603D01*
X15189229Y-9581603D02*
X15170182Y-9591127D01*
X15398753Y-9619698D02*
X15379706Y-9610174D01*
X15379706Y-9610174D02*
X15370182Y-9600650D01*
X15370182Y-9600650D02*
X15360658Y-9581603D01*
X15360658Y-9581603D02*
X15360658Y-9572079D01*
X15360658Y-9572079D02*
X15370182Y-9553031D01*
X15370182Y-9553031D02*
X15379706Y-9543508D01*
X15379706Y-9543508D02*
X15398753Y-9533984D01*
X15398753Y-9533984D02*
X15436848Y-9533984D01*
X15436848Y-9533984D02*
X15455896Y-9543508D01*
X15455896Y-9543508D02*
X15465420Y-9553031D01*
X15465420Y-9553031D02*
X15474944Y-9572079D01*
X15474944Y-9572079D02*
X15474944Y-9581603D01*
X15474944Y-9581603D02*
X15465420Y-9600650D01*
X15465420Y-9600650D02*
X15455896Y-9610174D01*
X15455896Y-9610174D02*
X15436848Y-9619698D01*
X15436848Y-9619698D02*
X15398753Y-9619698D01*
X15398753Y-9619698D02*
X15379706Y-9629222D01*
X15379706Y-9629222D02*
X15370182Y-9638746D01*
X15370182Y-9638746D02*
X15360658Y-9657793D01*
X15360658Y-9657793D02*
X15360658Y-9695889D01*
X15360658Y-9695889D02*
X15370182Y-9714936D01*
X15370182Y-9714936D02*
X15379706Y-9724460D01*
X15379706Y-9724460D02*
X15398753Y-9733984D01*
X15398753Y-9733984D02*
X15436848Y-9733984D01*
X15436848Y-9733984D02*
X15455896Y-9724460D01*
X15455896Y-9724460D02*
X15465420Y-9714936D01*
X15465420Y-9714936D02*
X15474944Y-9695889D01*
X15474944Y-9695889D02*
X15474944Y-9657793D01*
X15474944Y-9657793D02*
X15465420Y-9638746D01*
X15465420Y-9638746D02*
X15455896Y-9629222D01*
X15455896Y-9629222D02*
X15436848Y-9619698D01*
X15551134Y-9533984D02*
X15551134Y-9572079D01*
X15627325Y-9533984D02*
X15627325Y-9572079D01*
X15922563Y-9810174D02*
X15913039Y-9800650D01*
X15913039Y-9800650D02*
X15893991Y-9772079D01*
X15893991Y-9772079D02*
X15884468Y-9753031D01*
X15884468Y-9753031D02*
X15874944Y-9724460D01*
X15874944Y-9724460D02*
X15865420Y-9676841D01*
X15865420Y-9676841D02*
X15865420Y-9638746D01*
X15865420Y-9638746D02*
X15874944Y-9591127D01*
X15874944Y-9591127D02*
X15884468Y-9562555D01*
X15884468Y-9562555D02*
X15893991Y-9543508D01*
X15893991Y-9543508D02*
X15913039Y-9514936D01*
X15913039Y-9514936D02*
X15922563Y-9505412D01*
X15989229Y-9553031D02*
X15998753Y-9543508D01*
X15998753Y-9543508D02*
X16017801Y-9533984D01*
X16017801Y-9533984D02*
X16065420Y-9533984D01*
X16065420Y-9533984D02*
X16084468Y-9543508D01*
X16084468Y-9543508D02*
X16093991Y-9553031D01*
X16093991Y-9553031D02*
X16103515Y-9572079D01*
X16103515Y-9572079D02*
X16103515Y-9591127D01*
X16103515Y-9591127D02*
X16093991Y-9619698D01*
X16093991Y-9619698D02*
X15979706Y-9733984D01*
X15979706Y-9733984D02*
X16103515Y-9733984D01*
X16274944Y-9533984D02*
X16236848Y-9533984D01*
X16236848Y-9533984D02*
X16217801Y-9543508D01*
X16217801Y-9543508D02*
X16208277Y-9553031D01*
X16208277Y-9553031D02*
X16189229Y-9581603D01*
X16189229Y-9581603D02*
X16179706Y-9619698D01*
X16179706Y-9619698D02*
X16179706Y-9695889D01*
X16179706Y-9695889D02*
X16189229Y-9714936D01*
X16189229Y-9714936D02*
X16198753Y-9724460D01*
X16198753Y-9724460D02*
X16217801Y-9733984D01*
X16217801Y-9733984D02*
X16255896Y-9733984D01*
X16255896Y-9733984D02*
X16274944Y-9724460D01*
X16274944Y-9724460D02*
X16284468Y-9714936D01*
X16284468Y-9714936D02*
X16293991Y-9695889D01*
X16293991Y-9695889D02*
X16293991Y-9648270D01*
X16293991Y-9648270D02*
X16284468Y-9629222D01*
X16284468Y-9629222D02*
X16274944Y-9619698D01*
X16274944Y-9619698D02*
X16255896Y-9610174D01*
X16255896Y-9610174D02*
X16217801Y-9610174D01*
X16217801Y-9610174D02*
X16198753Y-9619698D01*
X16198753Y-9619698D02*
X16189229Y-9629222D01*
X16189229Y-9629222D02*
X16179706Y-9648270D01*
X16532087Y-9733984D02*
X16532087Y-9533984D01*
X16617801Y-9733984D02*
X16617801Y-9629222D01*
X16617801Y-9629222D02*
X16608277Y-9610174D01*
X16608277Y-9610174D02*
X16589230Y-9600650D01*
X16589230Y-9600650D02*
X16560658Y-9600650D01*
X16560658Y-9600650D02*
X16541610Y-9610174D01*
X16541610Y-9610174D02*
X16532087Y-9619698D01*
X16741610Y-9733984D02*
X16722563Y-9724460D01*
X16722563Y-9724460D02*
X16713039Y-9714936D01*
X16713039Y-9714936D02*
X16703515Y-9695889D01*
X16703515Y-9695889D02*
X16703515Y-9638746D01*
X16703515Y-9638746D02*
X16713039Y-9619698D01*
X16713039Y-9619698D02*
X16722563Y-9610174D01*
X16722563Y-9610174D02*
X16741610Y-9600650D01*
X16741610Y-9600650D02*
X16770182Y-9600650D01*
X16770182Y-9600650D02*
X16789230Y-9610174D01*
X16789230Y-9610174D02*
X16798753Y-9619698D01*
X16798753Y-9619698D02*
X16808277Y-9638746D01*
X16808277Y-9638746D02*
X16808277Y-9695889D01*
X16808277Y-9695889D02*
X16798753Y-9714936D01*
X16798753Y-9714936D02*
X16789230Y-9724460D01*
X16789230Y-9724460D02*
X16770182Y-9733984D01*
X16770182Y-9733984D02*
X16741610Y-9733984D01*
X16922563Y-9733984D02*
X16903515Y-9724460D01*
X16903515Y-9724460D02*
X16893992Y-9705412D01*
X16893992Y-9705412D02*
X16893992Y-9533984D01*
X17074944Y-9724460D02*
X17055896Y-9733984D01*
X17055896Y-9733984D02*
X17017801Y-9733984D01*
X17017801Y-9733984D02*
X16998753Y-9724460D01*
X16998753Y-9724460D02*
X16989230Y-9705412D01*
X16989230Y-9705412D02*
X16989230Y-9629222D01*
X16989230Y-9629222D02*
X16998753Y-9610174D01*
X16998753Y-9610174D02*
X17017801Y-9600650D01*
X17017801Y-9600650D02*
X17055896Y-9600650D01*
X17055896Y-9600650D02*
X17074944Y-9610174D01*
X17074944Y-9610174D02*
X17084468Y-9629222D01*
X17084468Y-9629222D02*
X17084468Y-9648270D01*
X17084468Y-9648270D02*
X16989230Y-9667317D01*
X17160658Y-9724460D02*
X17179706Y-9733984D01*
X17179706Y-9733984D02*
X17217801Y-9733984D01*
X17217801Y-9733984D02*
X17236849Y-9724460D01*
X17236849Y-9724460D02*
X17246373Y-9705412D01*
X17246373Y-9705412D02*
X17246373Y-9695889D01*
X17246373Y-9695889D02*
X17236849Y-9676841D01*
X17236849Y-9676841D02*
X17217801Y-9667317D01*
X17217801Y-9667317D02*
X17189230Y-9667317D01*
X17189230Y-9667317D02*
X17170182Y-9657793D01*
X17170182Y-9657793D02*
X17160658Y-9638746D01*
X17160658Y-9638746D02*
X17160658Y-9629222D01*
X17160658Y-9629222D02*
X17170182Y-9610174D01*
X17170182Y-9610174D02*
X17189230Y-9600650D01*
X17189230Y-9600650D02*
X17217801Y-9600650D01*
X17217801Y-9600650D02*
X17236849Y-9610174D01*
X17313039Y-9810174D02*
X17322563Y-9800650D01*
X17322563Y-9800650D02*
X17341611Y-9772079D01*
X17341611Y-9772079D02*
X17351134Y-9753031D01*
X17351134Y-9753031D02*
X17360658Y-9724460D01*
X17360658Y-9724460D02*
X17370182Y-9676841D01*
X17370182Y-9676841D02*
X17370182Y-9638746D01*
X17370182Y-9638746D02*
X17360658Y-9591127D01*
X17360658Y-9591127D02*
X17351134Y-9562555D01*
X17351134Y-9562555D02*
X17341611Y-9543508D01*
X17341611Y-9543508D02*
X17322563Y-9514936D01*
X17322563Y-9514936D02*
X17313039Y-9505412D01*
D12*
X12347500Y-9906500D02*
G75*
G02*
X12297500Y-9906500I-25000J0D01*
G01*
X12297500Y-9906500D02*
G75*
G02*
X12347500Y-9906500I25000J0D01*
G01*
D11*
X12646372Y-9797984D02*
X12665420Y-9797984D01*
X12665420Y-9797984D02*
X12684467Y-9807508D01*
X12684467Y-9807508D02*
X12693991Y-9817031D01*
X12693991Y-9817031D02*
X12703515Y-9836079D01*
X12703515Y-9836079D02*
X12713039Y-9874174D01*
X12713039Y-9874174D02*
X12713039Y-9921793D01*
X12713039Y-9921793D02*
X12703515Y-9959889D01*
X12703515Y-9959889D02*
X12693991Y-9978936D01*
X12693991Y-9978936D02*
X12684467Y-9988460D01*
X12684467Y-9988460D02*
X12665420Y-9997984D01*
X12665420Y-9997984D02*
X12646372Y-9997984D01*
X12646372Y-9997984D02*
X12627324Y-9988460D01*
X12627324Y-9988460D02*
X12617801Y-9978936D01*
X12617801Y-9978936D02*
X12608277Y-9959889D01*
X12608277Y-9959889D02*
X12598753Y-9921793D01*
X12598753Y-9921793D02*
X12598753Y-9874174D01*
X12598753Y-9874174D02*
X12608277Y-9836079D01*
X12608277Y-9836079D02*
X12617801Y-9817031D01*
X12617801Y-9817031D02*
X12627324Y-9807508D01*
X12627324Y-9807508D02*
X12646372Y-9797984D01*
X12798753Y-9978936D02*
X12808277Y-9988460D01*
X12808277Y-9988460D02*
X12798753Y-9997984D01*
X12798753Y-9997984D02*
X12789229Y-9988460D01*
X12789229Y-9988460D02*
X12798753Y-9978936D01*
X12798753Y-9978936D02*
X12798753Y-9997984D01*
X12989229Y-9797984D02*
X12893991Y-9797984D01*
X12893991Y-9797984D02*
X12884467Y-9893222D01*
X12884467Y-9893222D02*
X12893991Y-9883698D01*
X12893991Y-9883698D02*
X12913039Y-9874174D01*
X12913039Y-9874174D02*
X12960658Y-9874174D01*
X12960658Y-9874174D02*
X12979705Y-9883698D01*
X12979705Y-9883698D02*
X12989229Y-9893222D01*
X12989229Y-9893222D02*
X12998753Y-9912270D01*
X12998753Y-9912270D02*
X12998753Y-9959889D01*
X12998753Y-9959889D02*
X12989229Y-9978936D01*
X12989229Y-9978936D02*
X12979705Y-9988460D01*
X12979705Y-9988460D02*
X12960658Y-9997984D01*
X12960658Y-9997984D02*
X12913039Y-9997984D01*
X12913039Y-9997984D02*
X12893991Y-9988460D01*
X12893991Y-9988460D02*
X12884467Y-9978936D01*
X13122562Y-9797984D02*
X13141610Y-9797984D01*
X13141610Y-9797984D02*
X13160658Y-9807508D01*
X13160658Y-9807508D02*
X13170182Y-9817031D01*
X13170182Y-9817031D02*
X13179705Y-9836079D01*
X13179705Y-9836079D02*
X13189229Y-9874174D01*
X13189229Y-9874174D02*
X13189229Y-9921793D01*
X13189229Y-9921793D02*
X13179705Y-9959889D01*
X13179705Y-9959889D02*
X13170182Y-9978936D01*
X13170182Y-9978936D02*
X13160658Y-9988460D01*
X13160658Y-9988460D02*
X13141610Y-9997984D01*
X13141610Y-9997984D02*
X13122562Y-9997984D01*
X13122562Y-9997984D02*
X13103515Y-9988460D01*
X13103515Y-9988460D02*
X13093991Y-9978936D01*
X13093991Y-9978936D02*
X13084467Y-9959889D01*
X13084467Y-9959889D02*
X13074943Y-9921793D01*
X13074943Y-9921793D02*
X13074943Y-9874174D01*
X13074943Y-9874174D02*
X13084467Y-9836079D01*
X13084467Y-9836079D02*
X13093991Y-9817031D01*
X13093991Y-9817031D02*
X13103515Y-9807508D01*
X13103515Y-9807508D02*
X13122562Y-9797984D01*
X13313039Y-9797984D02*
X13332086Y-9797984D01*
X13332086Y-9797984D02*
X13351134Y-9807508D01*
X13351134Y-9807508D02*
X13360658Y-9817031D01*
X13360658Y-9817031D02*
X13370182Y-9836079D01*
X13370182Y-9836079D02*
X13379705Y-9874174D01*
X13379705Y-9874174D02*
X13379705Y-9921793D01*
X13379705Y-9921793D02*
X13370182Y-9959889D01*
X13370182Y-9959889D02*
X13360658Y-9978936D01*
X13360658Y-9978936D02*
X13351134Y-9988460D01*
X13351134Y-9988460D02*
X13332086Y-9997984D01*
X13332086Y-9997984D02*
X13313039Y-9997984D01*
X13313039Y-9997984D02*
X13293991Y-9988460D01*
X13293991Y-9988460D02*
X13284467Y-9978936D01*
X13284467Y-9978936D02*
X13274943Y-9959889D01*
X13274943Y-9959889D02*
X13265420Y-9921793D01*
X13265420Y-9921793D02*
X13265420Y-9874174D01*
X13265420Y-9874174D02*
X13274943Y-9836079D01*
X13274943Y-9836079D02*
X13284467Y-9817031D01*
X13284467Y-9817031D02*
X13293991Y-9807508D01*
X13293991Y-9807508D02*
X13313039Y-9797984D01*
X13465420Y-9997984D02*
X13465420Y-9864650D01*
X13465420Y-9883698D02*
X13474943Y-9874174D01*
X13474943Y-9874174D02*
X13493991Y-9864650D01*
X13493991Y-9864650D02*
X13522563Y-9864650D01*
X13522563Y-9864650D02*
X13541610Y-9874174D01*
X13541610Y-9874174D02*
X13551134Y-9893222D01*
X13551134Y-9893222D02*
X13551134Y-9997984D01*
X13551134Y-9893222D02*
X13560658Y-9874174D01*
X13560658Y-9874174D02*
X13579705Y-9864650D01*
X13579705Y-9864650D02*
X13608277Y-9864650D01*
X13608277Y-9864650D02*
X13627324Y-9874174D01*
X13627324Y-9874174D02*
X13636848Y-9893222D01*
X13636848Y-9893222D02*
X13636848Y-9997984D01*
X13732086Y-9997984D02*
X13732086Y-9864650D01*
X13732086Y-9883698D02*
X13741610Y-9874174D01*
X13741610Y-9874174D02*
X13760658Y-9864650D01*
X13760658Y-9864650D02*
X13789229Y-9864650D01*
X13789229Y-9864650D02*
X13808277Y-9874174D01*
X13808277Y-9874174D02*
X13817801Y-9893222D01*
X13817801Y-9893222D02*
X13817801Y-9997984D01*
X13817801Y-9893222D02*
X13827324Y-9874174D01*
X13827324Y-9874174D02*
X13846372Y-9864650D01*
X13846372Y-9864650D02*
X13874943Y-9864650D01*
X13874943Y-9864650D02*
X13893991Y-9874174D01*
X13893991Y-9874174D02*
X13903515Y-9893222D01*
X13903515Y-9893222D02*
X13903515Y-9997984D01*
X14293991Y-9788460D02*
X14122563Y-10045603D01*
X14551134Y-9797984D02*
X14570182Y-9797984D01*
X14570182Y-9797984D02*
X14589229Y-9807508D01*
X14589229Y-9807508D02*
X14598753Y-9817031D01*
X14598753Y-9817031D02*
X14608277Y-9836079D01*
X14608277Y-9836079D02*
X14617801Y-9874174D01*
X14617801Y-9874174D02*
X14617801Y-9921793D01*
X14617801Y-9921793D02*
X14608277Y-9959889D01*
X14608277Y-9959889D02*
X14598753Y-9978936D01*
X14598753Y-9978936D02*
X14589229Y-9988460D01*
X14589229Y-9988460D02*
X14570182Y-9997984D01*
X14570182Y-9997984D02*
X14551134Y-9997984D01*
X14551134Y-9997984D02*
X14532086Y-9988460D01*
X14532086Y-9988460D02*
X14522563Y-9978936D01*
X14522563Y-9978936D02*
X14513039Y-9959889D01*
X14513039Y-9959889D02*
X14503515Y-9921793D01*
X14503515Y-9921793D02*
X14503515Y-9874174D01*
X14503515Y-9874174D02*
X14513039Y-9836079D01*
X14513039Y-9836079D02*
X14522563Y-9817031D01*
X14522563Y-9817031D02*
X14532086Y-9807508D01*
X14532086Y-9807508D02*
X14551134Y-9797984D01*
X14703515Y-9978936D02*
X14713039Y-9988460D01*
X14713039Y-9988460D02*
X14703515Y-9997984D01*
X14703515Y-9997984D02*
X14693991Y-9988460D01*
X14693991Y-9988460D02*
X14703515Y-9978936D01*
X14703515Y-9978936D02*
X14703515Y-9997984D01*
X14836848Y-9797984D02*
X14855896Y-9797984D01*
X14855896Y-9797984D02*
X14874944Y-9807508D01*
X14874944Y-9807508D02*
X14884467Y-9817031D01*
X14884467Y-9817031D02*
X14893991Y-9836079D01*
X14893991Y-9836079D02*
X14903515Y-9874174D01*
X14903515Y-9874174D02*
X14903515Y-9921793D01*
X14903515Y-9921793D02*
X14893991Y-9959889D01*
X14893991Y-9959889D02*
X14884467Y-9978936D01*
X14884467Y-9978936D02*
X14874944Y-9988460D01*
X14874944Y-9988460D02*
X14855896Y-9997984D01*
X14855896Y-9997984D02*
X14836848Y-9997984D01*
X14836848Y-9997984D02*
X14817801Y-9988460D01*
X14817801Y-9988460D02*
X14808277Y-9978936D01*
X14808277Y-9978936D02*
X14798753Y-9959889D01*
X14798753Y-9959889D02*
X14789229Y-9921793D01*
X14789229Y-9921793D02*
X14789229Y-9874174D01*
X14789229Y-9874174D02*
X14798753Y-9836079D01*
X14798753Y-9836079D02*
X14808277Y-9817031D01*
X14808277Y-9817031D02*
X14817801Y-9807508D01*
X14817801Y-9807508D02*
X14836848Y-9797984D01*
X15093991Y-9997984D02*
X14979706Y-9997984D01*
X15036848Y-9997984D02*
X15036848Y-9797984D01*
X15036848Y-9797984D02*
X15017801Y-9826555D01*
X15017801Y-9826555D02*
X14998753Y-9845603D01*
X14998753Y-9845603D02*
X14979706Y-9855127D01*
X15189229Y-9997984D02*
X15227325Y-9997984D01*
X15227325Y-9997984D02*
X15246372Y-9988460D01*
X15246372Y-9988460D02*
X15255896Y-9978936D01*
X15255896Y-9978936D02*
X15274944Y-9950365D01*
X15274944Y-9950365D02*
X15284467Y-9912270D01*
X15284467Y-9912270D02*
X15284467Y-9836079D01*
X15284467Y-9836079D02*
X15274944Y-9817031D01*
X15274944Y-9817031D02*
X15265420Y-9807508D01*
X15265420Y-9807508D02*
X15246372Y-9797984D01*
X15246372Y-9797984D02*
X15208277Y-9797984D01*
X15208277Y-9797984D02*
X15189229Y-9807508D01*
X15189229Y-9807508D02*
X15179706Y-9817031D01*
X15179706Y-9817031D02*
X15170182Y-9836079D01*
X15170182Y-9836079D02*
X15170182Y-9883698D01*
X15170182Y-9883698D02*
X15179706Y-9902746D01*
X15179706Y-9902746D02*
X15189229Y-9912270D01*
X15189229Y-9912270D02*
X15208277Y-9921793D01*
X15208277Y-9921793D02*
X15246372Y-9921793D01*
X15246372Y-9921793D02*
X15265420Y-9912270D01*
X15265420Y-9912270D02*
X15274944Y-9902746D01*
X15274944Y-9902746D02*
X15284467Y-9883698D01*
X15351134Y-9797984D02*
X15484467Y-9797984D01*
X15484467Y-9797984D02*
X15398753Y-9997984D01*
X15551134Y-9797984D02*
X15551134Y-9836079D01*
X15627325Y-9797984D02*
X15627325Y-9836079D01*
X15922563Y-10074174D02*
X15913039Y-10064650D01*
X15913039Y-10064650D02*
X15893991Y-10036079D01*
X15893991Y-10036079D02*
X15884468Y-10017031D01*
X15884468Y-10017031D02*
X15874944Y-9988460D01*
X15874944Y-9988460D02*
X15865420Y-9940841D01*
X15865420Y-9940841D02*
X15865420Y-9902746D01*
X15865420Y-9902746D02*
X15874944Y-9855127D01*
X15874944Y-9855127D02*
X15884468Y-9826555D01*
X15884468Y-9826555D02*
X15893991Y-9807508D01*
X15893991Y-9807508D02*
X15913039Y-9778936D01*
X15913039Y-9778936D02*
X15922563Y-9769412D01*
X16036848Y-9797984D02*
X16055896Y-9797984D01*
X16055896Y-9797984D02*
X16074944Y-9807508D01*
X16074944Y-9807508D02*
X16084468Y-9817031D01*
X16084468Y-9817031D02*
X16093991Y-9836079D01*
X16093991Y-9836079D02*
X16103515Y-9874174D01*
X16103515Y-9874174D02*
X16103515Y-9921793D01*
X16103515Y-9921793D02*
X16093991Y-9959889D01*
X16093991Y-9959889D02*
X16084468Y-9978936D01*
X16084468Y-9978936D02*
X16074944Y-9988460D01*
X16074944Y-9988460D02*
X16055896Y-9997984D01*
X16055896Y-9997984D02*
X16036848Y-9997984D01*
X16036848Y-9997984D02*
X16017801Y-9988460D01*
X16017801Y-9988460D02*
X16008277Y-9978936D01*
X16008277Y-9978936D02*
X15998753Y-9959889D01*
X15998753Y-9959889D02*
X15989229Y-9921793D01*
X15989229Y-9921793D02*
X15989229Y-9874174D01*
X15989229Y-9874174D02*
X15998753Y-9836079D01*
X15998753Y-9836079D02*
X16008277Y-9817031D01*
X16008277Y-9817031D02*
X16017801Y-9807508D01*
X16017801Y-9807508D02*
X16036848Y-9797984D01*
X16341610Y-9997984D02*
X16341610Y-9797984D01*
X16427325Y-9997984D02*
X16427325Y-9893222D01*
X16427325Y-9893222D02*
X16417801Y-9874174D01*
X16417801Y-9874174D02*
X16398753Y-9864650D01*
X16398753Y-9864650D02*
X16370182Y-9864650D01*
X16370182Y-9864650D02*
X16351134Y-9874174D01*
X16351134Y-9874174D02*
X16341610Y-9883698D01*
X16551134Y-9997984D02*
X16532087Y-9988460D01*
X16532087Y-9988460D02*
X16522563Y-9978936D01*
X16522563Y-9978936D02*
X16513039Y-9959889D01*
X16513039Y-9959889D02*
X16513039Y-9902746D01*
X16513039Y-9902746D02*
X16522563Y-9883698D01*
X16522563Y-9883698D02*
X16532087Y-9874174D01*
X16532087Y-9874174D02*
X16551134Y-9864650D01*
X16551134Y-9864650D02*
X16579706Y-9864650D01*
X16579706Y-9864650D02*
X16598753Y-9874174D01*
X16598753Y-9874174D02*
X16608277Y-9883698D01*
X16608277Y-9883698D02*
X16617801Y-9902746D01*
X16617801Y-9902746D02*
X16617801Y-9959889D01*
X16617801Y-9959889D02*
X16608277Y-9978936D01*
X16608277Y-9978936D02*
X16598753Y-9988460D01*
X16598753Y-9988460D02*
X16579706Y-9997984D01*
X16579706Y-9997984D02*
X16551134Y-9997984D01*
X16732087Y-9997984D02*
X16713039Y-9988460D01*
X16713039Y-9988460D02*
X16703515Y-9969412D01*
X16703515Y-9969412D02*
X16703515Y-9797984D01*
X16884468Y-9988460D02*
X16865420Y-9997984D01*
X16865420Y-9997984D02*
X16827325Y-9997984D01*
X16827325Y-9997984D02*
X16808277Y-9988460D01*
X16808277Y-9988460D02*
X16798753Y-9969412D01*
X16798753Y-9969412D02*
X16798753Y-9893222D01*
X16798753Y-9893222D02*
X16808277Y-9874174D01*
X16808277Y-9874174D02*
X16827325Y-9864650D01*
X16827325Y-9864650D02*
X16865420Y-9864650D01*
X16865420Y-9864650D02*
X16884468Y-9874174D01*
X16884468Y-9874174D02*
X16893992Y-9893222D01*
X16893992Y-9893222D02*
X16893992Y-9912270D01*
X16893992Y-9912270D02*
X16798753Y-9931317D01*
X16970182Y-9988460D02*
X16989230Y-9997984D01*
X16989230Y-9997984D02*
X17027325Y-9997984D01*
X17027325Y-9997984D02*
X17046373Y-9988460D01*
X17046373Y-9988460D02*
X17055896Y-9969412D01*
X17055896Y-9969412D02*
X17055896Y-9959889D01*
X17055896Y-9959889D02*
X17046373Y-9940841D01*
X17046373Y-9940841D02*
X17027325Y-9931317D01*
X17027325Y-9931317D02*
X16998753Y-9931317D01*
X16998753Y-9931317D02*
X16979706Y-9921793D01*
X16979706Y-9921793D02*
X16970182Y-9902746D01*
X16970182Y-9902746D02*
X16970182Y-9893222D01*
X16970182Y-9893222D02*
X16979706Y-9874174D01*
X16979706Y-9874174D02*
X16998753Y-9864650D01*
X16998753Y-9864650D02*
X17027325Y-9864650D01*
X17027325Y-9864650D02*
X17046373Y-9874174D01*
X17293992Y-9921793D02*
X17446373Y-9921793D01*
X17370182Y-9997984D02*
X17370182Y-9845603D01*
X17779706Y-9864650D02*
X17779706Y-9997984D01*
X17732087Y-9788460D02*
X17684468Y-9931317D01*
X17684468Y-9931317D02*
X17808277Y-9931317D01*
X18027325Y-9988460D02*
X18046373Y-9997984D01*
X18046373Y-9997984D02*
X18084468Y-9997984D01*
X18084468Y-9997984D02*
X18103516Y-9988460D01*
X18103516Y-9988460D02*
X18113039Y-9969412D01*
X18113039Y-9969412D02*
X18113039Y-9959889D01*
X18113039Y-9959889D02*
X18103516Y-9940841D01*
X18103516Y-9940841D02*
X18084468Y-9931317D01*
X18084468Y-9931317D02*
X18055896Y-9931317D01*
X18055896Y-9931317D02*
X18036849Y-9921793D01*
X18036849Y-9921793D02*
X18027325Y-9902746D01*
X18027325Y-9902746D02*
X18027325Y-9893222D01*
X18027325Y-9893222D02*
X18036849Y-9874174D01*
X18036849Y-9874174D02*
X18055896Y-9864650D01*
X18055896Y-9864650D02*
X18084468Y-9864650D01*
X18084468Y-9864650D02*
X18103516Y-9874174D01*
X18227325Y-9997984D02*
X18208277Y-9988460D01*
X18208277Y-9988460D02*
X18198754Y-9969412D01*
X18198754Y-9969412D02*
X18198754Y-9797984D01*
X18332087Y-9997984D02*
X18313039Y-9988460D01*
X18313039Y-9988460D02*
X18303516Y-9978936D01*
X18303516Y-9978936D02*
X18293992Y-9959889D01*
X18293992Y-9959889D02*
X18293992Y-9902746D01*
X18293992Y-9902746D02*
X18303516Y-9883698D01*
X18303516Y-9883698D02*
X18313039Y-9874174D01*
X18313039Y-9874174D02*
X18332087Y-9864650D01*
X18332087Y-9864650D02*
X18360658Y-9864650D01*
X18360658Y-9864650D02*
X18379706Y-9874174D01*
X18379706Y-9874174D02*
X18389230Y-9883698D01*
X18389230Y-9883698D02*
X18398754Y-9902746D01*
X18398754Y-9902746D02*
X18398754Y-9959889D01*
X18398754Y-9959889D02*
X18389230Y-9978936D01*
X18389230Y-9978936D02*
X18379706Y-9988460D01*
X18379706Y-9988460D02*
X18360658Y-9997984D01*
X18360658Y-9997984D02*
X18332087Y-9997984D01*
X18455897Y-9864650D02*
X18532087Y-9864650D01*
X18484468Y-9797984D02*
X18484468Y-9969412D01*
X18484468Y-9969412D02*
X18493992Y-9988460D01*
X18493992Y-9988460D02*
X18513039Y-9997984D01*
X18513039Y-9997984D02*
X18532087Y-9997984D01*
X18589230Y-9988460D02*
X18608277Y-9997984D01*
X18608277Y-9997984D02*
X18646373Y-9997984D01*
X18646373Y-9997984D02*
X18665420Y-9988460D01*
X18665420Y-9988460D02*
X18674944Y-9969412D01*
X18674944Y-9969412D02*
X18674944Y-9959889D01*
X18674944Y-9959889D02*
X18665420Y-9940841D01*
X18665420Y-9940841D02*
X18646373Y-9931317D01*
X18646373Y-9931317D02*
X18617801Y-9931317D01*
X18617801Y-9931317D02*
X18598754Y-9921793D01*
X18598754Y-9921793D02*
X18589230Y-9902746D01*
X18589230Y-9902746D02*
X18589230Y-9893222D01*
X18589230Y-9893222D02*
X18598754Y-9874174D01*
X18598754Y-9874174D02*
X18617801Y-9864650D01*
X18617801Y-9864650D02*
X18646373Y-9864650D01*
X18646373Y-9864650D02*
X18665420Y-9874174D01*
X18741611Y-10074174D02*
X18751135Y-10064650D01*
X18751135Y-10064650D02*
X18770182Y-10036079D01*
X18770182Y-10036079D02*
X18779706Y-10017031D01*
X18779706Y-10017031D02*
X18789230Y-9988460D01*
X18789230Y-9988460D02*
X18798754Y-9940841D01*
X18798754Y-9940841D02*
X18798754Y-9902746D01*
X18798754Y-9902746D02*
X18789230Y-9855127D01*
X18789230Y-9855127D02*
X18779706Y-9826555D01*
X18779706Y-9826555D02*
X18770182Y-9807508D01*
X18770182Y-9807508D02*
X18751135Y-9778936D01*
X18751135Y-9778936D02*
X18741611Y-9769412D01*
D12*
X12297500Y-10120500D02*
X12297500Y-10220500D01*
X12247500Y-10170500D02*
X12347500Y-10170500D01*
D11*
X12713039Y-10261984D02*
X12598753Y-10261984D01*
X12655896Y-10261984D02*
X12655896Y-10061984D01*
X12655896Y-10061984D02*
X12636848Y-10090555D01*
X12636848Y-10090555D02*
X12617801Y-10109603D01*
X12617801Y-10109603D02*
X12598753Y-10119127D01*
X12798753Y-10242936D02*
X12808277Y-10252460D01*
X12808277Y-10252460D02*
X12798753Y-10261984D01*
X12798753Y-10261984D02*
X12789229Y-10252460D01*
X12789229Y-10252460D02*
X12798753Y-10242936D01*
X12798753Y-10242936D02*
X12798753Y-10261984D01*
X12932086Y-10061984D02*
X12951134Y-10061984D01*
X12951134Y-10061984D02*
X12970182Y-10071508D01*
X12970182Y-10071508D02*
X12979705Y-10081031D01*
X12979705Y-10081031D02*
X12989229Y-10100079D01*
X12989229Y-10100079D02*
X12998753Y-10138174D01*
X12998753Y-10138174D02*
X12998753Y-10185793D01*
X12998753Y-10185793D02*
X12989229Y-10223889D01*
X12989229Y-10223889D02*
X12979705Y-10242936D01*
X12979705Y-10242936D02*
X12970182Y-10252460D01*
X12970182Y-10252460D02*
X12951134Y-10261984D01*
X12951134Y-10261984D02*
X12932086Y-10261984D01*
X12932086Y-10261984D02*
X12913039Y-10252460D01*
X12913039Y-10252460D02*
X12903515Y-10242936D01*
X12903515Y-10242936D02*
X12893991Y-10223889D01*
X12893991Y-10223889D02*
X12884467Y-10185793D01*
X12884467Y-10185793D02*
X12884467Y-10138174D01*
X12884467Y-10138174D02*
X12893991Y-10100079D01*
X12893991Y-10100079D02*
X12903515Y-10081031D01*
X12903515Y-10081031D02*
X12913039Y-10071508D01*
X12913039Y-10071508D02*
X12932086Y-10061984D01*
X13122562Y-10061984D02*
X13141610Y-10061984D01*
X13141610Y-10061984D02*
X13160658Y-10071508D01*
X13160658Y-10071508D02*
X13170182Y-10081031D01*
X13170182Y-10081031D02*
X13179705Y-10100079D01*
X13179705Y-10100079D02*
X13189229Y-10138174D01*
X13189229Y-10138174D02*
X13189229Y-10185793D01*
X13189229Y-10185793D02*
X13179705Y-10223889D01*
X13179705Y-10223889D02*
X13170182Y-10242936D01*
X13170182Y-10242936D02*
X13160658Y-10252460D01*
X13160658Y-10252460D02*
X13141610Y-10261984D01*
X13141610Y-10261984D02*
X13122562Y-10261984D01*
X13122562Y-10261984D02*
X13103515Y-10252460D01*
X13103515Y-10252460D02*
X13093991Y-10242936D01*
X13093991Y-10242936D02*
X13084467Y-10223889D01*
X13084467Y-10223889D02*
X13074943Y-10185793D01*
X13074943Y-10185793D02*
X13074943Y-10138174D01*
X13074943Y-10138174D02*
X13084467Y-10100079D01*
X13084467Y-10100079D02*
X13093991Y-10081031D01*
X13093991Y-10081031D02*
X13103515Y-10071508D01*
X13103515Y-10071508D02*
X13122562Y-10061984D01*
X13313039Y-10061984D02*
X13332086Y-10061984D01*
X13332086Y-10061984D02*
X13351134Y-10071508D01*
X13351134Y-10071508D02*
X13360658Y-10081031D01*
X13360658Y-10081031D02*
X13370182Y-10100079D01*
X13370182Y-10100079D02*
X13379705Y-10138174D01*
X13379705Y-10138174D02*
X13379705Y-10185793D01*
X13379705Y-10185793D02*
X13370182Y-10223889D01*
X13370182Y-10223889D02*
X13360658Y-10242936D01*
X13360658Y-10242936D02*
X13351134Y-10252460D01*
X13351134Y-10252460D02*
X13332086Y-10261984D01*
X13332086Y-10261984D02*
X13313039Y-10261984D01*
X13313039Y-10261984D02*
X13293991Y-10252460D01*
X13293991Y-10252460D02*
X13284467Y-10242936D01*
X13284467Y-10242936D02*
X13274943Y-10223889D01*
X13274943Y-10223889D02*
X13265420Y-10185793D01*
X13265420Y-10185793D02*
X13265420Y-10138174D01*
X13265420Y-10138174D02*
X13274943Y-10100079D01*
X13274943Y-10100079D02*
X13284467Y-10081031D01*
X13284467Y-10081031D02*
X13293991Y-10071508D01*
X13293991Y-10071508D02*
X13313039Y-10061984D01*
X13465420Y-10261984D02*
X13465420Y-10128650D01*
X13465420Y-10147698D02*
X13474943Y-10138174D01*
X13474943Y-10138174D02*
X13493991Y-10128650D01*
X13493991Y-10128650D02*
X13522563Y-10128650D01*
X13522563Y-10128650D02*
X13541610Y-10138174D01*
X13541610Y-10138174D02*
X13551134Y-10157222D01*
X13551134Y-10157222D02*
X13551134Y-10261984D01*
X13551134Y-10157222D02*
X13560658Y-10138174D01*
X13560658Y-10138174D02*
X13579705Y-10128650D01*
X13579705Y-10128650D02*
X13608277Y-10128650D01*
X13608277Y-10128650D02*
X13627324Y-10138174D01*
X13627324Y-10138174D02*
X13636848Y-10157222D01*
X13636848Y-10157222D02*
X13636848Y-10261984D01*
X13732086Y-10261984D02*
X13732086Y-10128650D01*
X13732086Y-10147698D02*
X13741610Y-10138174D01*
X13741610Y-10138174D02*
X13760658Y-10128650D01*
X13760658Y-10128650D02*
X13789229Y-10128650D01*
X13789229Y-10128650D02*
X13808277Y-10138174D01*
X13808277Y-10138174D02*
X13817801Y-10157222D01*
X13817801Y-10157222D02*
X13817801Y-10261984D01*
X13817801Y-10157222D02*
X13827324Y-10138174D01*
X13827324Y-10138174D02*
X13846372Y-10128650D01*
X13846372Y-10128650D02*
X13874943Y-10128650D01*
X13874943Y-10128650D02*
X13893991Y-10138174D01*
X13893991Y-10138174D02*
X13903515Y-10157222D01*
X13903515Y-10157222D02*
X13903515Y-10261984D01*
X14293991Y-10052460D02*
X14122563Y-10309603D01*
X14551134Y-10061984D02*
X14570182Y-10061984D01*
X14570182Y-10061984D02*
X14589229Y-10071508D01*
X14589229Y-10071508D02*
X14598753Y-10081031D01*
X14598753Y-10081031D02*
X14608277Y-10100079D01*
X14608277Y-10100079D02*
X14617801Y-10138174D01*
X14617801Y-10138174D02*
X14617801Y-10185793D01*
X14617801Y-10185793D02*
X14608277Y-10223889D01*
X14608277Y-10223889D02*
X14598753Y-10242936D01*
X14598753Y-10242936D02*
X14589229Y-10252460D01*
X14589229Y-10252460D02*
X14570182Y-10261984D01*
X14570182Y-10261984D02*
X14551134Y-10261984D01*
X14551134Y-10261984D02*
X14532086Y-10252460D01*
X14532086Y-10252460D02*
X14522563Y-10242936D01*
X14522563Y-10242936D02*
X14513039Y-10223889D01*
X14513039Y-10223889D02*
X14503515Y-10185793D01*
X14503515Y-10185793D02*
X14503515Y-10138174D01*
X14503515Y-10138174D02*
X14513039Y-10100079D01*
X14513039Y-10100079D02*
X14522563Y-10081031D01*
X14522563Y-10081031D02*
X14532086Y-10071508D01*
X14532086Y-10071508D02*
X14551134Y-10061984D01*
X14703515Y-10242936D02*
X14713039Y-10252460D01*
X14713039Y-10252460D02*
X14703515Y-10261984D01*
X14703515Y-10261984D02*
X14693991Y-10252460D01*
X14693991Y-10252460D02*
X14703515Y-10242936D01*
X14703515Y-10242936D02*
X14703515Y-10261984D01*
X14836848Y-10061984D02*
X14855896Y-10061984D01*
X14855896Y-10061984D02*
X14874944Y-10071508D01*
X14874944Y-10071508D02*
X14884467Y-10081031D01*
X14884467Y-10081031D02*
X14893991Y-10100079D01*
X14893991Y-10100079D02*
X14903515Y-10138174D01*
X14903515Y-10138174D02*
X14903515Y-10185793D01*
X14903515Y-10185793D02*
X14893991Y-10223889D01*
X14893991Y-10223889D02*
X14884467Y-10242936D01*
X14884467Y-10242936D02*
X14874944Y-10252460D01*
X14874944Y-10252460D02*
X14855896Y-10261984D01*
X14855896Y-10261984D02*
X14836848Y-10261984D01*
X14836848Y-10261984D02*
X14817801Y-10252460D01*
X14817801Y-10252460D02*
X14808277Y-10242936D01*
X14808277Y-10242936D02*
X14798753Y-10223889D01*
X14798753Y-10223889D02*
X14789229Y-10185793D01*
X14789229Y-10185793D02*
X14789229Y-10138174D01*
X14789229Y-10138174D02*
X14798753Y-10100079D01*
X14798753Y-10100079D02*
X14808277Y-10081031D01*
X14808277Y-10081031D02*
X14817801Y-10071508D01*
X14817801Y-10071508D02*
X14836848Y-10061984D01*
X14970182Y-10061984D02*
X15093991Y-10061984D01*
X15093991Y-10061984D02*
X15027325Y-10138174D01*
X15027325Y-10138174D02*
X15055896Y-10138174D01*
X15055896Y-10138174D02*
X15074944Y-10147698D01*
X15074944Y-10147698D02*
X15084467Y-10157222D01*
X15084467Y-10157222D02*
X15093991Y-10176270D01*
X15093991Y-10176270D02*
X15093991Y-10223889D01*
X15093991Y-10223889D02*
X15084467Y-10242936D01*
X15084467Y-10242936D02*
X15074944Y-10252460D01*
X15074944Y-10252460D02*
X15055896Y-10261984D01*
X15055896Y-10261984D02*
X14998753Y-10261984D01*
X14998753Y-10261984D02*
X14979706Y-10252460D01*
X14979706Y-10252460D02*
X14970182Y-10242936D01*
X15189229Y-10261984D02*
X15227325Y-10261984D01*
X15227325Y-10261984D02*
X15246372Y-10252460D01*
X15246372Y-10252460D02*
X15255896Y-10242936D01*
X15255896Y-10242936D02*
X15274944Y-10214365D01*
X15274944Y-10214365D02*
X15284467Y-10176270D01*
X15284467Y-10176270D02*
X15284467Y-10100079D01*
X15284467Y-10100079D02*
X15274944Y-10081031D01*
X15274944Y-10081031D02*
X15265420Y-10071508D01*
X15265420Y-10071508D02*
X15246372Y-10061984D01*
X15246372Y-10061984D02*
X15208277Y-10061984D01*
X15208277Y-10061984D02*
X15189229Y-10071508D01*
X15189229Y-10071508D02*
X15179706Y-10081031D01*
X15179706Y-10081031D02*
X15170182Y-10100079D01*
X15170182Y-10100079D02*
X15170182Y-10147698D01*
X15170182Y-10147698D02*
X15179706Y-10166746D01*
X15179706Y-10166746D02*
X15189229Y-10176270D01*
X15189229Y-10176270D02*
X15208277Y-10185793D01*
X15208277Y-10185793D02*
X15246372Y-10185793D01*
X15246372Y-10185793D02*
X15265420Y-10176270D01*
X15265420Y-10176270D02*
X15274944Y-10166746D01*
X15274944Y-10166746D02*
X15284467Y-10147698D01*
X15455896Y-10128650D02*
X15455896Y-10261984D01*
X15408277Y-10052460D02*
X15360658Y-10195317D01*
X15360658Y-10195317D02*
X15484467Y-10195317D01*
X15551134Y-10061984D02*
X15551134Y-10100079D01*
X15627325Y-10061984D02*
X15627325Y-10100079D01*
X15922563Y-10338174D02*
X15913039Y-10328650D01*
X15913039Y-10328650D02*
X15893991Y-10300079D01*
X15893991Y-10300079D02*
X15884468Y-10281031D01*
X15884468Y-10281031D02*
X15874944Y-10252460D01*
X15874944Y-10252460D02*
X15865420Y-10204841D01*
X15865420Y-10204841D02*
X15865420Y-10166746D01*
X15865420Y-10166746D02*
X15874944Y-10119127D01*
X15874944Y-10119127D02*
X15884468Y-10090555D01*
X15884468Y-10090555D02*
X15893991Y-10071508D01*
X15893991Y-10071508D02*
X15913039Y-10042936D01*
X15913039Y-10042936D02*
X15922563Y-10033412D01*
X16103515Y-10261984D02*
X15989229Y-10261984D01*
X16046372Y-10261984D02*
X16046372Y-10061984D01*
X16046372Y-10061984D02*
X16027325Y-10090555D01*
X16027325Y-10090555D02*
X16008277Y-10109603D01*
X16008277Y-10109603D02*
X15989229Y-10119127D01*
X16170182Y-10061984D02*
X16293991Y-10061984D01*
X16293991Y-10061984D02*
X16227325Y-10138174D01*
X16227325Y-10138174D02*
X16255896Y-10138174D01*
X16255896Y-10138174D02*
X16274944Y-10147698D01*
X16274944Y-10147698D02*
X16284468Y-10157222D01*
X16284468Y-10157222D02*
X16293991Y-10176270D01*
X16293991Y-10176270D02*
X16293991Y-10223889D01*
X16293991Y-10223889D02*
X16284468Y-10242936D01*
X16284468Y-10242936D02*
X16274944Y-10252460D01*
X16274944Y-10252460D02*
X16255896Y-10261984D01*
X16255896Y-10261984D02*
X16198753Y-10261984D01*
X16198753Y-10261984D02*
X16179706Y-10252460D01*
X16179706Y-10252460D02*
X16170182Y-10242936D01*
X16532087Y-10261984D02*
X16532087Y-10061984D01*
X16617801Y-10261984D02*
X16617801Y-10157222D01*
X16617801Y-10157222D02*
X16608277Y-10138174D01*
X16608277Y-10138174D02*
X16589230Y-10128650D01*
X16589230Y-10128650D02*
X16560658Y-10128650D01*
X16560658Y-10128650D02*
X16541610Y-10138174D01*
X16541610Y-10138174D02*
X16532087Y-10147698D01*
X16741610Y-10261984D02*
X16722563Y-10252460D01*
X16722563Y-10252460D02*
X16713039Y-10242936D01*
X16713039Y-10242936D02*
X16703515Y-10223889D01*
X16703515Y-10223889D02*
X16703515Y-10166746D01*
X16703515Y-10166746D02*
X16713039Y-10147698D01*
X16713039Y-10147698D02*
X16722563Y-10138174D01*
X16722563Y-10138174D02*
X16741610Y-10128650D01*
X16741610Y-10128650D02*
X16770182Y-10128650D01*
X16770182Y-10128650D02*
X16789230Y-10138174D01*
X16789230Y-10138174D02*
X16798753Y-10147698D01*
X16798753Y-10147698D02*
X16808277Y-10166746D01*
X16808277Y-10166746D02*
X16808277Y-10223889D01*
X16808277Y-10223889D02*
X16798753Y-10242936D01*
X16798753Y-10242936D02*
X16789230Y-10252460D01*
X16789230Y-10252460D02*
X16770182Y-10261984D01*
X16770182Y-10261984D02*
X16741610Y-10261984D01*
X16922563Y-10261984D02*
X16903515Y-10252460D01*
X16903515Y-10252460D02*
X16893992Y-10233412D01*
X16893992Y-10233412D02*
X16893992Y-10061984D01*
X17074944Y-10252460D02*
X17055896Y-10261984D01*
X17055896Y-10261984D02*
X17017801Y-10261984D01*
X17017801Y-10261984D02*
X16998753Y-10252460D01*
X16998753Y-10252460D02*
X16989230Y-10233412D01*
X16989230Y-10233412D02*
X16989230Y-10157222D01*
X16989230Y-10157222D02*
X16998753Y-10138174D01*
X16998753Y-10138174D02*
X17017801Y-10128650D01*
X17017801Y-10128650D02*
X17055896Y-10128650D01*
X17055896Y-10128650D02*
X17074944Y-10138174D01*
X17074944Y-10138174D02*
X17084468Y-10157222D01*
X17084468Y-10157222D02*
X17084468Y-10176270D01*
X17084468Y-10176270D02*
X16989230Y-10195317D01*
X17160658Y-10252460D02*
X17179706Y-10261984D01*
X17179706Y-10261984D02*
X17217801Y-10261984D01*
X17217801Y-10261984D02*
X17236849Y-10252460D01*
X17236849Y-10252460D02*
X17246373Y-10233412D01*
X17246373Y-10233412D02*
X17246373Y-10223889D01*
X17246373Y-10223889D02*
X17236849Y-10204841D01*
X17236849Y-10204841D02*
X17217801Y-10195317D01*
X17217801Y-10195317D02*
X17189230Y-10195317D01*
X17189230Y-10195317D02*
X17170182Y-10185793D01*
X17170182Y-10185793D02*
X17160658Y-10166746D01*
X17160658Y-10166746D02*
X17160658Y-10157222D01*
X17160658Y-10157222D02*
X17170182Y-10138174D01*
X17170182Y-10138174D02*
X17189230Y-10128650D01*
X17189230Y-10128650D02*
X17217801Y-10128650D01*
X17217801Y-10128650D02*
X17236849Y-10138174D01*
X17313039Y-10338174D02*
X17322563Y-10328650D01*
X17322563Y-10328650D02*
X17341611Y-10300079D01*
X17341611Y-10300079D02*
X17351134Y-10281031D01*
X17351134Y-10281031D02*
X17360658Y-10252460D01*
X17360658Y-10252460D02*
X17370182Y-10204841D01*
X17370182Y-10204841D02*
X17370182Y-10166746D01*
X17370182Y-10166746D02*
X17360658Y-10119127D01*
X17360658Y-10119127D02*
X17351134Y-10090555D01*
X17351134Y-10090555D02*
X17341611Y-10071508D01*
X17341611Y-10071508D02*
X17322563Y-10042936D01*
X17322563Y-10042936D02*
X17313039Y-10033412D01*
M02*
