%TF.GenerationSoftware,KiCad,Pcbnew,9.0.7*%
%TF.CreationDate,2026-02-19T23:57:08-05:00*%
%TF.ProjectId,usb_c_sensor_breakout,7573625f-635f-4736-956e-736f725f6272,rev?*%
%TF.SameCoordinates,Original*%
%TF.FileFunction,Legend,Top*%
%TF.FilePolarity,Positive*%
%FSLAX46Y46*%
G04 Gerber Fmt 4.6, Leading zero omitted, Abs format (unit mm)*
G04 Created by KiCad (PCBNEW 9.0.7) date 2026-02-19 23:57:08*
%MOMM*%
%LPD*%
G01*
G04 APERTURE LIST*
%ADD10C,0.150000*%
%ADD11C,0.120000*%
%ADD12C,0.100000*%
G04 APERTURE END LIST*
D10*
X149246666Y-79454819D02*
X149246666Y-80169104D01*
X149246666Y-80169104D02*
X149199047Y-80311961D01*
X149199047Y-80311961D02*
X149103809Y-80407200D01*
X149103809Y-80407200D02*
X148960952Y-80454819D01*
X148960952Y-80454819D02*
X148865714Y-80454819D01*
X150151428Y-79788152D02*
X150151428Y-80454819D01*
X149913333Y-79407200D02*
X149675238Y-80121485D01*
X149675238Y-80121485D02*
X150294285Y-80121485D01*
X131666666Y-73931009D02*
X131333333Y-73931009D01*
X131333333Y-74454819D02*
X131333333Y-73454819D01*
X131333333Y-73454819D02*
X131809523Y-73454819D01*
X132714285Y-74454819D02*
X132142857Y-74454819D01*
X132428571Y-74454819D02*
X132428571Y-73454819D01*
X132428571Y-73454819D02*
X132333333Y-73597676D01*
X132333333Y-73597676D02*
X132238095Y-73692914D01*
X132238095Y-73692914D02*
X132142857Y-73740533D01*
X154238095Y-62954819D02*
X154238095Y-63764342D01*
X154238095Y-63764342D02*
X154285714Y-63859580D01*
X154285714Y-63859580D02*
X154333333Y-63907200D01*
X154333333Y-63907200D02*
X154428571Y-63954819D01*
X154428571Y-63954819D02*
X154619047Y-63954819D01*
X154619047Y-63954819D02*
X154714285Y-63907200D01*
X154714285Y-63907200D02*
X154761904Y-63859580D01*
X154761904Y-63859580D02*
X154809523Y-63764342D01*
X154809523Y-63764342D02*
X154809523Y-62954819D01*
X155190476Y-62954819D02*
X155809523Y-62954819D01*
X155809523Y-62954819D02*
X155476190Y-63335771D01*
X155476190Y-63335771D02*
X155619047Y-63335771D01*
X155619047Y-63335771D02*
X155714285Y-63383390D01*
X155714285Y-63383390D02*
X155761904Y-63431009D01*
X155761904Y-63431009D02*
X155809523Y-63526247D01*
X155809523Y-63526247D02*
X155809523Y-63764342D01*
X155809523Y-63764342D02*
X155761904Y-63859580D01*
X155761904Y-63859580D02*
X155714285Y-63907200D01*
X155714285Y-63907200D02*
X155619047Y-63954819D01*
X155619047Y-63954819D02*
X155333333Y-63954819D01*
X155333333Y-63954819D02*
X155238095Y-63907200D01*
X155238095Y-63907200D02*
X155190476Y-63859580D01*
X139238095Y-79954819D02*
X139809523Y-79954819D01*
X139523809Y-80954819D02*
X139523809Y-79954819D01*
X140142857Y-80954819D02*
X140142857Y-79954819D01*
X140142857Y-79954819D02*
X140523809Y-79954819D01*
X140523809Y-79954819D02*
X140619047Y-80002438D01*
X140619047Y-80002438D02*
X140666666Y-80050057D01*
X140666666Y-80050057D02*
X140714285Y-80145295D01*
X140714285Y-80145295D02*
X140714285Y-80288152D01*
X140714285Y-80288152D02*
X140666666Y-80383390D01*
X140666666Y-80383390D02*
X140619047Y-80431009D01*
X140619047Y-80431009D02*
X140523809Y-80478628D01*
X140523809Y-80478628D02*
X140142857Y-80478628D01*
X141666666Y-80954819D02*
X141095238Y-80954819D01*
X141380952Y-80954819D02*
X141380952Y-79954819D01*
X141380952Y-79954819D02*
X141285714Y-80097676D01*
X141285714Y-80097676D02*
X141190476Y-80192914D01*
X141190476Y-80192914D02*
X141095238Y-80240533D01*
X139238095Y-82456819D02*
X139809523Y-82456819D01*
X139523809Y-83456819D02*
X139523809Y-82456819D01*
X140142857Y-83456819D02*
X140142857Y-82456819D01*
X140142857Y-82456819D02*
X140523809Y-82456819D01*
X140523809Y-82456819D02*
X140619047Y-82504438D01*
X140619047Y-82504438D02*
X140666666Y-82552057D01*
X140666666Y-82552057D02*
X140714285Y-82647295D01*
X140714285Y-82647295D02*
X140714285Y-82790152D01*
X140714285Y-82790152D02*
X140666666Y-82885390D01*
X140666666Y-82885390D02*
X140619047Y-82933009D01*
X140619047Y-82933009D02*
X140523809Y-82980628D01*
X140523809Y-82980628D02*
X140142857Y-82980628D01*
X141095238Y-82552057D02*
X141142857Y-82504438D01*
X141142857Y-82504438D02*
X141238095Y-82456819D01*
X141238095Y-82456819D02*
X141476190Y-82456819D01*
X141476190Y-82456819D02*
X141571428Y-82504438D01*
X141571428Y-82504438D02*
X141619047Y-82552057D01*
X141619047Y-82552057D02*
X141666666Y-82647295D01*
X141666666Y-82647295D02*
X141666666Y-82742533D01*
X141666666Y-82742533D02*
X141619047Y-82885390D01*
X141619047Y-82885390D02*
X141047619Y-83456819D01*
X141047619Y-83456819D02*
X141666666Y-83456819D01*
X136238095Y-87954819D02*
X136238095Y-88764342D01*
X136238095Y-88764342D02*
X136285714Y-88859580D01*
X136285714Y-88859580D02*
X136333333Y-88907200D01*
X136333333Y-88907200D02*
X136428571Y-88954819D01*
X136428571Y-88954819D02*
X136619047Y-88954819D01*
X136619047Y-88954819D02*
X136714285Y-88907200D01*
X136714285Y-88907200D02*
X136761904Y-88859580D01*
X136761904Y-88859580D02*
X136809523Y-88764342D01*
X136809523Y-88764342D02*
X136809523Y-87954819D01*
X137238095Y-88050057D02*
X137285714Y-88002438D01*
X137285714Y-88002438D02*
X137380952Y-87954819D01*
X137380952Y-87954819D02*
X137619047Y-87954819D01*
X137619047Y-87954819D02*
X137714285Y-88002438D01*
X137714285Y-88002438D02*
X137761904Y-88050057D01*
X137761904Y-88050057D02*
X137809523Y-88145295D01*
X137809523Y-88145295D02*
X137809523Y-88240533D01*
X137809523Y-88240533D02*
X137761904Y-88383390D01*
X137761904Y-88383390D02*
X137190476Y-88954819D01*
X137190476Y-88954819D02*
X137809523Y-88954819D01*
X138833333Y-65954819D02*
X138500000Y-65478628D01*
X138261905Y-65954819D02*
X138261905Y-64954819D01*
X138261905Y-64954819D02*
X138642857Y-64954819D01*
X138642857Y-64954819D02*
X138738095Y-65002438D01*
X138738095Y-65002438D02*
X138785714Y-65050057D01*
X138785714Y-65050057D02*
X138833333Y-65145295D01*
X138833333Y-65145295D02*
X138833333Y-65288152D01*
X138833333Y-65288152D02*
X138785714Y-65383390D01*
X138785714Y-65383390D02*
X138738095Y-65431009D01*
X138738095Y-65431009D02*
X138642857Y-65478628D01*
X138642857Y-65478628D02*
X138261905Y-65478628D01*
X139214286Y-65050057D02*
X139261905Y-65002438D01*
X139261905Y-65002438D02*
X139357143Y-64954819D01*
X139357143Y-64954819D02*
X139595238Y-64954819D01*
X139595238Y-64954819D02*
X139690476Y-65002438D01*
X139690476Y-65002438D02*
X139738095Y-65050057D01*
X139738095Y-65050057D02*
X139785714Y-65145295D01*
X139785714Y-65145295D02*
X139785714Y-65240533D01*
X139785714Y-65240533D02*
X139738095Y-65383390D01*
X139738095Y-65383390D02*
X139166667Y-65954819D01*
X139166667Y-65954819D02*
X139785714Y-65954819D01*
X142333333Y-63454819D02*
X142000000Y-62978628D01*
X141761905Y-63454819D02*
X141761905Y-62454819D01*
X141761905Y-62454819D02*
X142142857Y-62454819D01*
X142142857Y-62454819D02*
X142238095Y-62502438D01*
X142238095Y-62502438D02*
X142285714Y-62550057D01*
X142285714Y-62550057D02*
X142333333Y-62645295D01*
X142333333Y-62645295D02*
X142333333Y-62788152D01*
X142333333Y-62788152D02*
X142285714Y-62883390D01*
X142285714Y-62883390D02*
X142238095Y-62931009D01*
X142238095Y-62931009D02*
X142142857Y-62978628D01*
X142142857Y-62978628D02*
X141761905Y-62978628D01*
X142666667Y-62454819D02*
X143285714Y-62454819D01*
X143285714Y-62454819D02*
X142952381Y-62835771D01*
X142952381Y-62835771D02*
X143095238Y-62835771D01*
X143095238Y-62835771D02*
X143190476Y-62883390D01*
X143190476Y-62883390D02*
X143238095Y-62931009D01*
X143238095Y-62931009D02*
X143285714Y-63026247D01*
X143285714Y-63026247D02*
X143285714Y-63264342D01*
X143285714Y-63264342D02*
X143238095Y-63359580D01*
X143238095Y-63359580D02*
X143190476Y-63407200D01*
X143190476Y-63407200D02*
X143095238Y-63454819D01*
X143095238Y-63454819D02*
X142809524Y-63454819D01*
X142809524Y-63454819D02*
X142714286Y-63407200D01*
X142714286Y-63407200D02*
X142666667Y-63359580D01*
X144333333Y-63454819D02*
X144000000Y-62978628D01*
X143761905Y-63454819D02*
X143761905Y-62454819D01*
X143761905Y-62454819D02*
X144142857Y-62454819D01*
X144142857Y-62454819D02*
X144238095Y-62502438D01*
X144238095Y-62502438D02*
X144285714Y-62550057D01*
X144285714Y-62550057D02*
X144333333Y-62645295D01*
X144333333Y-62645295D02*
X144333333Y-62788152D01*
X144333333Y-62788152D02*
X144285714Y-62883390D01*
X144285714Y-62883390D02*
X144238095Y-62931009D01*
X144238095Y-62931009D02*
X144142857Y-62978628D01*
X144142857Y-62978628D02*
X143761905Y-62978628D01*
X145190476Y-62788152D02*
X145190476Y-63454819D01*
X144952381Y-62407200D02*
X144714286Y-63121485D01*
X144714286Y-63121485D02*
X145333333Y-63121485D01*
X149666666Y-74454819D02*
X149666666Y-75169104D01*
X149666666Y-75169104D02*
X149619047Y-75311961D01*
X149619047Y-75311961D02*
X149523809Y-75407200D01*
X149523809Y-75407200D02*
X149380952Y-75454819D01*
X149380952Y-75454819D02*
X149285714Y-75454819D01*
X150047619Y-74454819D02*
X150666666Y-74454819D01*
X150666666Y-74454819D02*
X150333333Y-74835771D01*
X150333333Y-74835771D02*
X150476190Y-74835771D01*
X150476190Y-74835771D02*
X150571428Y-74883390D01*
X150571428Y-74883390D02*
X150619047Y-74931009D01*
X150619047Y-74931009D02*
X150666666Y-75026247D01*
X150666666Y-75026247D02*
X150666666Y-75264342D01*
X150666666Y-75264342D02*
X150619047Y-75359580D01*
X150619047Y-75359580D02*
X150571428Y-75407200D01*
X150571428Y-75407200D02*
X150476190Y-75454819D01*
X150476190Y-75454819D02*
X150190476Y-75454819D01*
X150190476Y-75454819D02*
X150095238Y-75407200D01*
X150095238Y-75407200D02*
X150047619Y-75359580D01*
X145333333Y-74454819D02*
X145000000Y-73978628D01*
X144761905Y-74454819D02*
X144761905Y-73454819D01*
X144761905Y-73454819D02*
X145142857Y-73454819D01*
X145142857Y-73454819D02*
X145238095Y-73502438D01*
X145238095Y-73502438D02*
X145285714Y-73550057D01*
X145285714Y-73550057D02*
X145333333Y-73645295D01*
X145333333Y-73645295D02*
X145333333Y-73788152D01*
X145333333Y-73788152D02*
X145285714Y-73883390D01*
X145285714Y-73883390D02*
X145238095Y-73931009D01*
X145238095Y-73931009D02*
X145142857Y-73978628D01*
X145142857Y-73978628D02*
X144761905Y-73978628D01*
X146190476Y-73454819D02*
X146000000Y-73454819D01*
X146000000Y-73454819D02*
X145904762Y-73502438D01*
X145904762Y-73502438D02*
X145857143Y-73550057D01*
X145857143Y-73550057D02*
X145761905Y-73692914D01*
X145761905Y-73692914D02*
X145714286Y-73883390D01*
X145714286Y-73883390D02*
X145714286Y-74264342D01*
X145714286Y-74264342D02*
X145761905Y-74359580D01*
X145761905Y-74359580D02*
X145809524Y-74407200D01*
X145809524Y-74407200D02*
X145904762Y-74454819D01*
X145904762Y-74454819D02*
X146095238Y-74454819D01*
X146095238Y-74454819D02*
X146190476Y-74407200D01*
X146190476Y-74407200D02*
X146238095Y-74359580D01*
X146238095Y-74359580D02*
X146285714Y-74264342D01*
X146285714Y-74264342D02*
X146285714Y-74026247D01*
X146285714Y-74026247D02*
X146238095Y-73931009D01*
X146238095Y-73931009D02*
X146190476Y-73883390D01*
X146190476Y-73883390D02*
X146095238Y-73835771D01*
X146095238Y-73835771D02*
X145904762Y-73835771D01*
X145904762Y-73835771D02*
X145809524Y-73883390D01*
X145809524Y-73883390D02*
X145761905Y-73931009D01*
X145761905Y-73931009D02*
X145714286Y-74026247D01*
X124238095Y-82456819D02*
X124809523Y-82456819D01*
X124523809Y-83456819D02*
X124523809Y-82456819D01*
X125142857Y-83456819D02*
X125142857Y-82456819D01*
X125142857Y-82456819D02*
X125523809Y-82456819D01*
X125523809Y-82456819D02*
X125619047Y-82504438D01*
X125619047Y-82504438D02*
X125666666Y-82552057D01*
X125666666Y-82552057D02*
X125714285Y-82647295D01*
X125714285Y-82647295D02*
X125714285Y-82790152D01*
X125714285Y-82790152D02*
X125666666Y-82885390D01*
X125666666Y-82885390D02*
X125619047Y-82933009D01*
X125619047Y-82933009D02*
X125523809Y-82980628D01*
X125523809Y-82980628D02*
X125142857Y-82980628D01*
X126619047Y-82456819D02*
X126142857Y-82456819D01*
X126142857Y-82456819D02*
X126095238Y-82933009D01*
X126095238Y-82933009D02*
X126142857Y-82885390D01*
X126142857Y-82885390D02*
X126238095Y-82837771D01*
X126238095Y-82837771D02*
X126476190Y-82837771D01*
X126476190Y-82837771D02*
X126571428Y-82885390D01*
X126571428Y-82885390D02*
X126619047Y-82933009D01*
X126619047Y-82933009D02*
X126666666Y-83028247D01*
X126666666Y-83028247D02*
X126666666Y-83266342D01*
X126666666Y-83266342D02*
X126619047Y-83361580D01*
X126619047Y-83361580D02*
X126571428Y-83409200D01*
X126571428Y-83409200D02*
X126476190Y-83456819D01*
X126476190Y-83456819D02*
X126238095Y-83456819D01*
X126238095Y-83456819D02*
X126142857Y-83409200D01*
X126142857Y-83409200D02*
X126095238Y-83361580D01*
X138833333Y-63954819D02*
X138500000Y-63478628D01*
X138261905Y-63954819D02*
X138261905Y-62954819D01*
X138261905Y-62954819D02*
X138642857Y-62954819D01*
X138642857Y-62954819D02*
X138738095Y-63002438D01*
X138738095Y-63002438D02*
X138785714Y-63050057D01*
X138785714Y-63050057D02*
X138833333Y-63145295D01*
X138833333Y-63145295D02*
X138833333Y-63288152D01*
X138833333Y-63288152D02*
X138785714Y-63383390D01*
X138785714Y-63383390D02*
X138738095Y-63431009D01*
X138738095Y-63431009D02*
X138642857Y-63478628D01*
X138642857Y-63478628D02*
X138261905Y-63478628D01*
X139785714Y-63954819D02*
X139214286Y-63954819D01*
X139500000Y-63954819D02*
X139500000Y-62954819D01*
X139500000Y-62954819D02*
X139404762Y-63097676D01*
X139404762Y-63097676D02*
X139309524Y-63192914D01*
X139309524Y-63192914D02*
X139214286Y-63240533D01*
X130833333Y-88859580D02*
X130785714Y-88907200D01*
X130785714Y-88907200D02*
X130642857Y-88954819D01*
X130642857Y-88954819D02*
X130547619Y-88954819D01*
X130547619Y-88954819D02*
X130404762Y-88907200D01*
X130404762Y-88907200D02*
X130309524Y-88811961D01*
X130309524Y-88811961D02*
X130261905Y-88716723D01*
X130261905Y-88716723D02*
X130214286Y-88526247D01*
X130214286Y-88526247D02*
X130214286Y-88383390D01*
X130214286Y-88383390D02*
X130261905Y-88192914D01*
X130261905Y-88192914D02*
X130309524Y-88097676D01*
X130309524Y-88097676D02*
X130404762Y-88002438D01*
X130404762Y-88002438D02*
X130547619Y-87954819D01*
X130547619Y-87954819D02*
X130642857Y-87954819D01*
X130642857Y-87954819D02*
X130785714Y-88002438D01*
X130785714Y-88002438D02*
X130833333Y-88050057D01*
X131738095Y-87954819D02*
X131261905Y-87954819D01*
X131261905Y-87954819D02*
X131214286Y-88431009D01*
X131214286Y-88431009D02*
X131261905Y-88383390D01*
X131261905Y-88383390D02*
X131357143Y-88335771D01*
X131357143Y-88335771D02*
X131595238Y-88335771D01*
X131595238Y-88335771D02*
X131690476Y-88383390D01*
X131690476Y-88383390D02*
X131738095Y-88431009D01*
X131738095Y-88431009D02*
X131785714Y-88526247D01*
X131785714Y-88526247D02*
X131785714Y-88764342D01*
X131785714Y-88764342D02*
X131738095Y-88859580D01*
X131738095Y-88859580D02*
X131690476Y-88907200D01*
X131690476Y-88907200D02*
X131595238Y-88954819D01*
X131595238Y-88954819D02*
X131357143Y-88954819D01*
X131357143Y-88954819D02*
X131261905Y-88907200D01*
X131261905Y-88907200D02*
X131214286Y-88859580D01*
X131833333Y-82289580D02*
X131785714Y-82337200D01*
X131785714Y-82337200D02*
X131642857Y-82384819D01*
X131642857Y-82384819D02*
X131547619Y-82384819D01*
X131547619Y-82384819D02*
X131404762Y-82337200D01*
X131404762Y-82337200D02*
X131309524Y-82241961D01*
X131309524Y-82241961D02*
X131261905Y-82146723D01*
X131261905Y-82146723D02*
X131214286Y-81956247D01*
X131214286Y-81956247D02*
X131214286Y-81813390D01*
X131214286Y-81813390D02*
X131261905Y-81622914D01*
X131261905Y-81622914D02*
X131309524Y-81527676D01*
X131309524Y-81527676D02*
X131404762Y-81432438D01*
X131404762Y-81432438D02*
X131547619Y-81384819D01*
X131547619Y-81384819D02*
X131642857Y-81384819D01*
X131642857Y-81384819D02*
X131785714Y-81432438D01*
X131785714Y-81432438D02*
X131833333Y-81480057D01*
X132214286Y-81480057D02*
X132261905Y-81432438D01*
X132261905Y-81432438D02*
X132357143Y-81384819D01*
X132357143Y-81384819D02*
X132595238Y-81384819D01*
X132595238Y-81384819D02*
X132690476Y-81432438D01*
X132690476Y-81432438D02*
X132738095Y-81480057D01*
X132738095Y-81480057D02*
X132785714Y-81575295D01*
X132785714Y-81575295D02*
X132785714Y-81670533D01*
X132785714Y-81670533D02*
X132738095Y-81813390D01*
X132738095Y-81813390D02*
X132166667Y-82384819D01*
X132166667Y-82384819D02*
X132785714Y-82384819D01*
X133833333Y-88859580D02*
X133785714Y-88907200D01*
X133785714Y-88907200D02*
X133642857Y-88954819D01*
X133642857Y-88954819D02*
X133547619Y-88954819D01*
X133547619Y-88954819D02*
X133404762Y-88907200D01*
X133404762Y-88907200D02*
X133309524Y-88811961D01*
X133309524Y-88811961D02*
X133261905Y-88716723D01*
X133261905Y-88716723D02*
X133214286Y-88526247D01*
X133214286Y-88526247D02*
X133214286Y-88383390D01*
X133214286Y-88383390D02*
X133261905Y-88192914D01*
X133261905Y-88192914D02*
X133309524Y-88097676D01*
X133309524Y-88097676D02*
X133404762Y-88002438D01*
X133404762Y-88002438D02*
X133547619Y-87954819D01*
X133547619Y-87954819D02*
X133642857Y-87954819D01*
X133642857Y-87954819D02*
X133785714Y-88002438D01*
X133785714Y-88002438D02*
X133833333Y-88050057D01*
X134690476Y-88288152D02*
X134690476Y-88954819D01*
X134452381Y-87907200D02*
X134214286Y-88621485D01*
X134214286Y-88621485D02*
X134833333Y-88621485D01*
X134738095Y-80454819D02*
X134738095Y-81264342D01*
X134738095Y-81264342D02*
X134785714Y-81359580D01*
X134785714Y-81359580D02*
X134833333Y-81407200D01*
X134833333Y-81407200D02*
X134928571Y-81454819D01*
X134928571Y-81454819D02*
X135119047Y-81454819D01*
X135119047Y-81454819D02*
X135214285Y-81407200D01*
X135214285Y-81407200D02*
X135261904Y-81359580D01*
X135261904Y-81359580D02*
X135309523Y-81264342D01*
X135309523Y-81264342D02*
X135309523Y-80454819D01*
X136309523Y-81454819D02*
X135738095Y-81454819D01*
X136023809Y-81454819D02*
X136023809Y-80454819D01*
X136023809Y-80454819D02*
X135928571Y-80597676D01*
X135928571Y-80597676D02*
X135833333Y-80692914D01*
X135833333Y-80692914D02*
X135738095Y-80740533D01*
X128454819Y-86166666D02*
X127978628Y-86499999D01*
X128454819Y-86738094D02*
X127454819Y-86738094D01*
X127454819Y-86738094D02*
X127454819Y-86357142D01*
X127454819Y-86357142D02*
X127502438Y-86261904D01*
X127502438Y-86261904D02*
X127550057Y-86214285D01*
X127550057Y-86214285D02*
X127645295Y-86166666D01*
X127645295Y-86166666D02*
X127788152Y-86166666D01*
X127788152Y-86166666D02*
X127883390Y-86214285D01*
X127883390Y-86214285D02*
X127931009Y-86261904D01*
X127931009Y-86261904D02*
X127978628Y-86357142D01*
X127978628Y-86357142D02*
X127978628Y-86738094D01*
X127454819Y-85261904D02*
X127454819Y-85738094D01*
X127454819Y-85738094D02*
X127931009Y-85785713D01*
X127931009Y-85785713D02*
X127883390Y-85738094D01*
X127883390Y-85738094D02*
X127835771Y-85642856D01*
X127835771Y-85642856D02*
X127835771Y-85404761D01*
X127835771Y-85404761D02*
X127883390Y-85309523D01*
X127883390Y-85309523D02*
X127931009Y-85261904D01*
X127931009Y-85261904D02*
X128026247Y-85214285D01*
X128026247Y-85214285D02*
X128264342Y-85214285D01*
X128264342Y-85214285D02*
X128359580Y-85261904D01*
X128359580Y-85261904D02*
X128407200Y-85309523D01*
X128407200Y-85309523D02*
X128454819Y-85404761D01*
X128454819Y-85404761D02*
X128454819Y-85642856D01*
X128454819Y-85642856D02*
X128407200Y-85738094D01*
X128407200Y-85738094D02*
X128359580Y-85785713D01*
X123761905Y-73954819D02*
X123761905Y-72954819D01*
X123761905Y-72954819D02*
X124000000Y-72954819D01*
X124000000Y-72954819D02*
X124142857Y-73002438D01*
X124142857Y-73002438D02*
X124238095Y-73097676D01*
X124238095Y-73097676D02*
X124285714Y-73192914D01*
X124285714Y-73192914D02*
X124333333Y-73383390D01*
X124333333Y-73383390D02*
X124333333Y-73526247D01*
X124333333Y-73526247D02*
X124285714Y-73716723D01*
X124285714Y-73716723D02*
X124238095Y-73811961D01*
X124238095Y-73811961D02*
X124142857Y-73907200D01*
X124142857Y-73907200D02*
X124000000Y-73954819D01*
X124000000Y-73954819D02*
X123761905Y-73954819D01*
X125285714Y-73954819D02*
X124714286Y-73954819D01*
X125000000Y-73954819D02*
X125000000Y-72954819D01*
X125000000Y-72954819D02*
X124904762Y-73097676D01*
X124904762Y-73097676D02*
X124809524Y-73192914D01*
X124809524Y-73192914D02*
X124714286Y-73240533D01*
X138359580Y-78166666D02*
X138407200Y-78214285D01*
X138407200Y-78214285D02*
X138454819Y-78357142D01*
X138454819Y-78357142D02*
X138454819Y-78452380D01*
X138454819Y-78452380D02*
X138407200Y-78595237D01*
X138407200Y-78595237D02*
X138311961Y-78690475D01*
X138311961Y-78690475D02*
X138216723Y-78738094D01*
X138216723Y-78738094D02*
X138026247Y-78785713D01*
X138026247Y-78785713D02*
X137883390Y-78785713D01*
X137883390Y-78785713D02*
X137692914Y-78738094D01*
X137692914Y-78738094D02*
X137597676Y-78690475D01*
X137597676Y-78690475D02*
X137502438Y-78595237D01*
X137502438Y-78595237D02*
X137454819Y-78452380D01*
X137454819Y-78452380D02*
X137454819Y-78357142D01*
X137454819Y-78357142D02*
X137502438Y-78214285D01*
X137502438Y-78214285D02*
X137550057Y-78166666D01*
X138454819Y-77214285D02*
X138454819Y-77785713D01*
X138454819Y-77499999D02*
X137454819Y-77499999D01*
X137454819Y-77499999D02*
X137597676Y-77595237D01*
X137597676Y-77595237D02*
X137692914Y-77690475D01*
X137692914Y-77690475D02*
X137740533Y-77785713D01*
X149666666Y-84454819D02*
X149666666Y-85169104D01*
X149666666Y-85169104D02*
X149619047Y-85311961D01*
X149619047Y-85311961D02*
X149523809Y-85407200D01*
X149523809Y-85407200D02*
X149380952Y-85454819D01*
X149380952Y-85454819D02*
X149285714Y-85454819D01*
X150619047Y-84454819D02*
X150142857Y-84454819D01*
X150142857Y-84454819D02*
X150095238Y-84931009D01*
X150095238Y-84931009D02*
X150142857Y-84883390D01*
X150142857Y-84883390D02*
X150238095Y-84835771D01*
X150238095Y-84835771D02*
X150476190Y-84835771D01*
X150476190Y-84835771D02*
X150571428Y-84883390D01*
X150571428Y-84883390D02*
X150619047Y-84931009D01*
X150619047Y-84931009D02*
X150666666Y-85026247D01*
X150666666Y-85026247D02*
X150666666Y-85264342D01*
X150666666Y-85264342D02*
X150619047Y-85359580D01*
X150619047Y-85359580D02*
X150571428Y-85407200D01*
X150571428Y-85407200D02*
X150476190Y-85454819D01*
X150476190Y-85454819D02*
X150238095Y-85454819D01*
X150238095Y-85454819D02*
X150142857Y-85407200D01*
X150142857Y-85407200D02*
X150095238Y-85359580D01*
X141383333Y-70359580D02*
X141350000Y-70407200D01*
X141350000Y-70407200D02*
X141250000Y-70454819D01*
X141250000Y-70454819D02*
X141183333Y-70454819D01*
X141183333Y-70454819D02*
X141083333Y-70407200D01*
X141083333Y-70407200D02*
X141016667Y-70311961D01*
X141016667Y-70311961D02*
X140983333Y-70216723D01*
X140983333Y-70216723D02*
X140950000Y-70026247D01*
X140950000Y-70026247D02*
X140950000Y-69883390D01*
X140950000Y-69883390D02*
X140983333Y-69692914D01*
X140983333Y-69692914D02*
X141016667Y-69597676D01*
X141016667Y-69597676D02*
X141083333Y-69502438D01*
X141083333Y-69502438D02*
X141183333Y-69454819D01*
X141183333Y-69454819D02*
X141250000Y-69454819D01*
X141250000Y-69454819D02*
X141350000Y-69502438D01*
X141350000Y-69502438D02*
X141383333Y-69550057D01*
X141983333Y-69454819D02*
X141850000Y-69454819D01*
X141850000Y-69454819D02*
X141783333Y-69502438D01*
X141783333Y-69502438D02*
X141750000Y-69550057D01*
X141750000Y-69550057D02*
X141683333Y-69692914D01*
X141683333Y-69692914D02*
X141650000Y-69883390D01*
X141650000Y-69883390D02*
X141650000Y-70264342D01*
X141650000Y-70264342D02*
X141683333Y-70359580D01*
X141683333Y-70359580D02*
X141716667Y-70407200D01*
X141716667Y-70407200D02*
X141783333Y-70454819D01*
X141783333Y-70454819D02*
X141916667Y-70454819D01*
X141916667Y-70454819D02*
X141983333Y-70407200D01*
X141983333Y-70407200D02*
X142016667Y-70359580D01*
X142016667Y-70359580D02*
X142050000Y-70264342D01*
X142050000Y-70264342D02*
X142050000Y-70026247D01*
X142050000Y-70026247D02*
X142016667Y-69931009D01*
X142016667Y-69931009D02*
X141983333Y-69883390D01*
X141983333Y-69883390D02*
X141916667Y-69835771D01*
X141916667Y-69835771D02*
X141783333Y-69835771D01*
X141783333Y-69835771D02*
X141716667Y-69883390D01*
X141716667Y-69883390D02*
X141683333Y-69931009D01*
X141683333Y-69931009D02*
X141650000Y-70026247D01*
X129359580Y-78166666D02*
X129407200Y-78214285D01*
X129407200Y-78214285D02*
X129454819Y-78357142D01*
X129454819Y-78357142D02*
X129454819Y-78452380D01*
X129454819Y-78452380D02*
X129407200Y-78595237D01*
X129407200Y-78595237D02*
X129311961Y-78690475D01*
X129311961Y-78690475D02*
X129216723Y-78738094D01*
X129216723Y-78738094D02*
X129026247Y-78785713D01*
X129026247Y-78785713D02*
X128883390Y-78785713D01*
X128883390Y-78785713D02*
X128692914Y-78738094D01*
X128692914Y-78738094D02*
X128597676Y-78690475D01*
X128597676Y-78690475D02*
X128502438Y-78595237D01*
X128502438Y-78595237D02*
X128454819Y-78452380D01*
X128454819Y-78452380D02*
X128454819Y-78357142D01*
X128454819Y-78357142D02*
X128502438Y-78214285D01*
X128502438Y-78214285D02*
X128550057Y-78166666D01*
X128454819Y-77833332D02*
X128454819Y-77214285D01*
X128454819Y-77214285D02*
X128835771Y-77547618D01*
X128835771Y-77547618D02*
X128835771Y-77404761D01*
X128835771Y-77404761D02*
X128883390Y-77309523D01*
X128883390Y-77309523D02*
X128931009Y-77261904D01*
X128931009Y-77261904D02*
X129026247Y-77214285D01*
X129026247Y-77214285D02*
X129264342Y-77214285D01*
X129264342Y-77214285D02*
X129359580Y-77261904D01*
X129359580Y-77261904D02*
X129407200Y-77309523D01*
X129407200Y-77309523D02*
X129454819Y-77404761D01*
X129454819Y-77404761D02*
X129454819Y-77690475D01*
X129454819Y-77690475D02*
X129407200Y-77785713D01*
X129407200Y-77785713D02*
X129359580Y-77833332D01*
X139238095Y-73454819D02*
X139809523Y-73454819D01*
X139523809Y-74454819D02*
X139523809Y-73454819D01*
X140142857Y-74454819D02*
X140142857Y-73454819D01*
X140142857Y-73454819D02*
X140523809Y-73454819D01*
X140523809Y-73454819D02*
X140619047Y-73502438D01*
X140619047Y-73502438D02*
X140666666Y-73550057D01*
X140666666Y-73550057D02*
X140714285Y-73645295D01*
X140714285Y-73645295D02*
X140714285Y-73788152D01*
X140714285Y-73788152D02*
X140666666Y-73883390D01*
X140666666Y-73883390D02*
X140619047Y-73931009D01*
X140619047Y-73931009D02*
X140523809Y-73978628D01*
X140523809Y-73978628D02*
X140142857Y-73978628D01*
X141047619Y-73454819D02*
X141666666Y-73454819D01*
X141666666Y-73454819D02*
X141333333Y-73835771D01*
X141333333Y-73835771D02*
X141476190Y-73835771D01*
X141476190Y-73835771D02*
X141571428Y-73883390D01*
X141571428Y-73883390D02*
X141619047Y-73931009D01*
X141619047Y-73931009D02*
X141666666Y-74026247D01*
X141666666Y-74026247D02*
X141666666Y-74264342D01*
X141666666Y-74264342D02*
X141619047Y-74359580D01*
X141619047Y-74359580D02*
X141571428Y-74407200D01*
X141571428Y-74407200D02*
X141476190Y-74454819D01*
X141476190Y-74454819D02*
X141190476Y-74454819D01*
X141190476Y-74454819D02*
X141095238Y-74407200D01*
X141095238Y-74407200D02*
X141047619Y-74359580D01*
X127238095Y-82456819D02*
X127809523Y-82456819D01*
X127523809Y-83456819D02*
X127523809Y-82456819D01*
X128142857Y-83456819D02*
X128142857Y-82456819D01*
X128142857Y-82456819D02*
X128523809Y-82456819D01*
X128523809Y-82456819D02*
X128619047Y-82504438D01*
X128619047Y-82504438D02*
X128666666Y-82552057D01*
X128666666Y-82552057D02*
X128714285Y-82647295D01*
X128714285Y-82647295D02*
X128714285Y-82790152D01*
X128714285Y-82790152D02*
X128666666Y-82885390D01*
X128666666Y-82885390D02*
X128619047Y-82933009D01*
X128619047Y-82933009D02*
X128523809Y-82980628D01*
X128523809Y-82980628D02*
X128142857Y-82980628D01*
X129571428Y-82790152D02*
X129571428Y-83456819D01*
X129333333Y-82409200D02*
X129095238Y-83123485D01*
X129095238Y-83123485D02*
X129714285Y-83123485D01*
X141383333Y-68359580D02*
X141350000Y-68407200D01*
X141350000Y-68407200D02*
X141250000Y-68454819D01*
X141250000Y-68454819D02*
X141183333Y-68454819D01*
X141183333Y-68454819D02*
X141083333Y-68407200D01*
X141083333Y-68407200D02*
X141016667Y-68311961D01*
X141016667Y-68311961D02*
X140983333Y-68216723D01*
X140983333Y-68216723D02*
X140950000Y-68026247D01*
X140950000Y-68026247D02*
X140950000Y-67883390D01*
X140950000Y-67883390D02*
X140983333Y-67692914D01*
X140983333Y-67692914D02*
X141016667Y-67597676D01*
X141016667Y-67597676D02*
X141083333Y-67502438D01*
X141083333Y-67502438D02*
X141183333Y-67454819D01*
X141183333Y-67454819D02*
X141250000Y-67454819D01*
X141250000Y-67454819D02*
X141350000Y-67502438D01*
X141350000Y-67502438D02*
X141383333Y-67550057D01*
X141616667Y-67454819D02*
X142083333Y-67454819D01*
X142083333Y-67454819D02*
X141783333Y-68454819D01*
X135166666Y-67454819D02*
X135166666Y-68169104D01*
X135166666Y-68169104D02*
X135119047Y-68311961D01*
X135119047Y-68311961D02*
X135023809Y-68407200D01*
X135023809Y-68407200D02*
X134880952Y-68454819D01*
X134880952Y-68454819D02*
X134785714Y-68454819D01*
X136166666Y-68454819D02*
X135595238Y-68454819D01*
X135880952Y-68454819D02*
X135880952Y-67454819D01*
X135880952Y-67454819D02*
X135785714Y-67597676D01*
X135785714Y-67597676D02*
X135690476Y-67692914D01*
X135690476Y-67692914D02*
X135595238Y-67740533D01*
D11*
%TO.C,J4*%
X155460000Y-80620000D02*
X155460000Y-82000000D01*
X154080000Y-80620000D02*
X155460000Y-80620000D01*
X152810000Y-80620000D02*
X145080000Y-80620000D01*
X152810000Y-80620000D02*
X152810000Y-83380000D01*
X145080000Y-80620000D02*
X145080000Y-83380000D01*
X152810000Y-83380000D02*
X145080000Y-83380000D01*
%TO.C,F1*%
X130613748Y-75710000D02*
X133386252Y-75710000D01*
X130613748Y-72290000D02*
X133386252Y-72290000D01*
%TO.C,U3*%
X146550000Y-64680000D02*
X146210000Y-64210000D01*
X146890000Y-64210000D01*
X146550000Y-64680000D01*
G36*
X146550000Y-64680000D02*
G01*
X146210000Y-64210000D01*
X146890000Y-64210000D01*
X146550000Y-64680000D01*
G37*
X154410000Y-71610000D02*
X154110000Y-71610000D01*
X154410000Y-71310000D02*
X154410000Y-71610000D01*
X154410000Y-64390000D02*
X154410000Y-64690000D01*
X154110000Y-64390000D02*
X154410000Y-64390000D01*
X147490000Y-71610000D02*
X147190000Y-71610000D01*
X147190000Y-71610000D02*
X147190000Y-71310000D01*
X147190000Y-64690000D02*
X147190000Y-64390000D01*
X147190000Y-64390000D02*
X147490000Y-64390000D01*
%TO.C,TP1*%
X143950000Y-80500000D02*
G75*
G02*
X142050000Y-80500000I-950000J0D01*
G01*
X142050000Y-80500000D02*
G75*
G02*
X143950000Y-80500000I950000J0D01*
G01*
%TO.C,TP2*%
X143950000Y-83000000D02*
G75*
G02*
X142050000Y-83000000I-950000J0D01*
G01*
X142050000Y-83000000D02*
G75*
G02*
X143950000Y-83000000I950000J0D01*
G01*
D12*
%TO.C,U2*%
X138710000Y-84400000D02*
X138350000Y-84400000D01*
X138350000Y-84040000D01*
X138710000Y-84400000D01*
G36*
X138710000Y-84400000D02*
G01*
X138350000Y-84400000D01*
X138350000Y-84040000D01*
X138710000Y-84400000D01*
G37*
X135650000Y-87600000D02*
X135650000Y-86880000D01*
X135870000Y-87600000D02*
X135650000Y-87600000D01*
X138350000Y-87600000D02*
X138130000Y-87600000D01*
X138350000Y-86880000D02*
X138350000Y-87600000D01*
X138350000Y-84600000D02*
X138350000Y-85120000D01*
X135650000Y-84400000D02*
X135650000Y-85120000D01*
X135650000Y-84400000D02*
X135870000Y-84400000D01*
D11*
%TO.C,R2*%
X136262742Y-66022500D02*
X136737258Y-66022500D01*
X136262742Y-64977500D02*
X136737258Y-64977500D01*
%TO.C,R3*%
X143022500Y-64762742D02*
X143022500Y-65237258D01*
X141977500Y-64762742D02*
X141977500Y-65237258D01*
%TO.C,R4*%
X143977500Y-65237258D02*
X143977500Y-64762742D01*
X145022500Y-65237258D02*
X145022500Y-64762742D01*
%TO.C,J3*%
X145080000Y-78380000D02*
X145080000Y-77000000D01*
X146460000Y-78380000D02*
X145080000Y-78380000D01*
X147730000Y-78380000D02*
X155460000Y-78380000D01*
X147730000Y-78380000D02*
X147730000Y-75620000D01*
X155460000Y-78380000D02*
X155460000Y-75620000D01*
X147730000Y-75620000D02*
X155460000Y-75620000D01*
%TO.C,R6*%
X145262742Y-71977500D02*
X145737258Y-71977500D01*
X145262742Y-73022500D02*
X145737258Y-73022500D01*
%TO.C,TP5*%
X126450000Y-81000000D02*
G75*
G02*
X124550000Y-81000000I-950000J0D01*
G01*
X124550000Y-81000000D02*
G75*
G02*
X126450000Y-81000000I950000J0D01*
G01*
%TO.C,R1*%
X136087742Y-62977500D02*
X136562258Y-62977500D01*
X136087742Y-64022500D02*
X136562258Y-64022500D01*
%TO.C,C5*%
X130990000Y-86140580D02*
X130990000Y-85859420D01*
X132010000Y-86140580D02*
X132010000Y-85859420D01*
%TO.C,C2*%
X132140580Y-81010000D02*
X131859420Y-81010000D01*
X132140580Y-79990000D02*
X131859420Y-79990000D01*
%TO.C,C4*%
X134510000Y-85859420D02*
X134510000Y-86140580D01*
X133490000Y-85859420D02*
X133490000Y-86140580D01*
%TO.C,U1*%
X134272500Y-79560000D02*
X132452500Y-79560000D01*
X134272500Y-79510000D02*
X134272500Y-79560000D01*
X134272500Y-76440000D02*
X134272500Y-76490000D01*
X132452500Y-79560000D02*
X132452500Y-79510000D01*
X132452500Y-78390000D02*
X132452500Y-77610000D01*
X132452500Y-76490000D02*
X132452500Y-76440000D01*
X132452500Y-76440000D02*
X134272500Y-76440000D01*
X135052500Y-79840000D02*
X134572500Y-79840000D01*
X134812500Y-79510000D01*
X135052500Y-79840000D01*
G36*
X135052500Y-79840000D02*
G01*
X134572500Y-79840000D01*
X134812500Y-79510000D01*
X135052500Y-79840000D01*
G37*
%TO.C,R5*%
X130022500Y-85762742D02*
X130022500Y-86237258D01*
X128977500Y-85762742D02*
X128977500Y-86237258D01*
%TO.C,D1*%
X127500000Y-75860000D02*
X127500000Y-71850000D01*
X125500000Y-75860000D02*
X125500000Y-71850000D01*
X125500000Y-75860000D02*
X127500000Y-75860000D01*
%TO.C,C1*%
X135990000Y-78140580D02*
X135990000Y-77859420D01*
X137010000Y-78140580D02*
X137010000Y-77859420D01*
%TO.C,J5*%
X142580000Y-88380000D02*
X142580000Y-87000000D01*
X143960000Y-88380000D02*
X142580000Y-88380000D01*
X145230000Y-88380000D02*
X155500000Y-88380000D01*
X145230000Y-88380000D02*
X145230000Y-85620000D01*
X155500000Y-88380000D02*
X155500000Y-85620000D01*
X145230000Y-85620000D02*
X155500000Y-85620000D01*
%TO.C,C6*%
X143859420Y-69490000D02*
X144140580Y-69490000D01*
X143859420Y-70510000D02*
X144140580Y-70510000D01*
%TO.C,C3*%
X129990000Y-78140580D02*
X129990000Y-77859420D01*
X131010000Y-78140580D02*
X131010000Y-77859420D01*
%TO.C,TP3*%
X138950000Y-74000000D02*
G75*
G02*
X137050000Y-74000000I-950000J0D01*
G01*
X137050000Y-74000000D02*
G75*
G02*
X138950000Y-74000000I950000J0D01*
G01*
%TO.C,TP4*%
X129450000Y-81000000D02*
G75*
G02*
X127550000Y-81000000I-950000J0D01*
G01*
X127550000Y-81000000D02*
G75*
G02*
X129450000Y-81000000I950000J0D01*
G01*
%TO.C,C7*%
X144140580Y-68510000D02*
X143859420Y-68510000D01*
X144140580Y-67490000D02*
X143859420Y-67490000D01*
%TO.C,J1*%
X133760000Y-68450000D02*
X133760000Y-66450000D01*
X133760000Y-64550000D02*
X133760000Y-63040000D01*
X133760000Y-63040000D02*
X124600000Y-63040000D01*
X124600000Y-68450000D02*
X124600000Y-66450000D01*
X124600000Y-64550000D02*
X124600000Y-63040000D01*
%TD*%
M02*
