%TF.GenerationSoftware,KiCad,Pcbnew,9.0.7*%
%TF.CreationDate,2026-02-19T23:57:08-05:00*%
%TF.ProjectId,usb_c_sensor_breakout,7573625f-635f-4736-956e-736f725f6272,rev?*%
%TF.SameCoordinates,Original*%
%TF.FileFunction,Copper,L1,Top*%
%TF.FilePolarity,Positive*%
%FSLAX46Y46*%
G04 Gerber Fmt 4.6, Leading zero omitted, Abs format (unit mm)*
G04 Created by KiCad (PCBNEW 9.0.7) date 2026-02-19 23:57:08*
%MOMM*%
%LPD*%
G01*
G04 APERTURE LIST*
G04 Aperture macros list*
%AMRoundRect*
0 Rectangle with rounded corners*
0 $1 Rounding radius*
0 $2 $3 $4 $5 $6 $7 $8 $9 X,Y pos of 4 corners*
0 Add a 4 corners polygon primitive as box body*
4,1,4,$2,$3,$4,$5,$6,$7,$8,$9,$2,$3,0*
0 Add four circle primitives for the rounded corners*
1,1,$1+$1,$2,$3*
1,1,$1+$1,$4,$5*
1,1,$1+$1,$6,$7*
1,1,$1+$1,$8,$9*
0 Add four rect primitives between the rounded corners*
20,1,$1+$1,$2,$3,$4,$5,0*
20,1,$1+$1,$4,$5,$6,$7,0*
20,1,$1+$1,$6,$7,$8,$9,0*
20,1,$1+$1,$8,$9,$2,$3,0*%
G04 Aperture macros list end*
%TA.AperFunction,ComponentPad*%
%ADD10R,1.700000X1.700000*%
%TD*%
%TA.AperFunction,ComponentPad*%
%ADD11C,1.700000*%
%TD*%
%TA.AperFunction,SMDPad,CuDef*%
%ADD12RoundRect,0.250000X-0.312500X-1.450000X0.312500X-1.450000X0.312500X1.450000X-0.312500X1.450000X0*%
%TD*%
%TA.AperFunction,SMDPad,CuDef*%
%ADD13RoundRect,0.125000X-0.125000X-0.625000X0.125000X-0.625000X0.125000X0.625000X-0.125000X0.625000X0*%
%TD*%
%TA.AperFunction,SMDPad,CuDef*%
%ADD14RoundRect,0.125000X-0.625000X-0.125000X0.625000X-0.125000X0.625000X0.125000X-0.625000X0.125000X0*%
%TD*%
%TA.AperFunction,SMDPad,CuDef*%
%ADD15C,1.500000*%
%TD*%
%TA.AperFunction,SMDPad,CuDef*%
%ADD16R,0.675000X0.250000*%
%TD*%
%TA.AperFunction,SMDPad,CuDef*%
%ADD17R,0.250000X0.675000*%
%TD*%
%TA.AperFunction,SMDPad,CuDef*%
%ADD18RoundRect,0.200000X-0.200000X-0.275000X0.200000X-0.275000X0.200000X0.275000X-0.200000X0.275000X0*%
%TD*%
%TA.AperFunction,SMDPad,CuDef*%
%ADD19RoundRect,0.200000X-0.275000X0.200000X-0.275000X-0.200000X0.275000X-0.200000X0.275000X0.200000X0*%
%TD*%
%TA.AperFunction,SMDPad,CuDef*%
%ADD20RoundRect,0.200000X0.275000X-0.200000X0.275000X0.200000X-0.275000X0.200000X-0.275000X-0.200000X0*%
%TD*%
%TA.AperFunction,SMDPad,CuDef*%
%ADD21RoundRect,0.225000X0.250000X-0.225000X0.250000X0.225000X-0.250000X0.225000X-0.250000X-0.225000X0*%
%TD*%
%TA.AperFunction,SMDPad,CuDef*%
%ADD22RoundRect,0.225000X0.225000X0.250000X-0.225000X0.250000X-0.225000X-0.250000X0.225000X-0.250000X0*%
%TD*%
%TA.AperFunction,SMDPad,CuDef*%
%ADD23RoundRect,0.225000X-0.250000X0.225000X-0.250000X-0.225000X0.250000X-0.225000X0.250000X0.225000X0*%
%TD*%
%TA.AperFunction,SMDPad,CuDef*%
%ADD24RoundRect,0.150000X0.512500X0.150000X-0.512500X0.150000X-0.512500X-0.150000X0.512500X-0.150000X0*%
%TD*%
%TA.AperFunction,SMDPad,CuDef*%
%ADD25RoundRect,0.225000X0.375000X-0.225000X0.375000X0.225000X-0.375000X0.225000X-0.375000X-0.225000X0*%
%TD*%
%TA.AperFunction,SMDPad,CuDef*%
%ADD26RoundRect,0.225000X-0.225000X-0.250000X0.225000X-0.250000X0.225000X0.250000X-0.225000X0.250000X0*%
%TD*%
%TA.AperFunction,SMDPad,CuDef*%
%ADD27RoundRect,0.175000X0.175000X0.625000X-0.175000X0.625000X-0.175000X-0.625000X0.175000X-0.625000X0*%
%TD*%
%TA.AperFunction,SMDPad,CuDef*%
%ADD28RoundRect,0.200000X0.200000X0.600000X-0.200000X0.600000X-0.200000X-0.600000X0.200000X-0.600000X0*%
%TD*%
%TA.AperFunction,SMDPad,CuDef*%
%ADD29RoundRect,0.225000X0.225000X0.575000X-0.225000X0.575000X-0.225000X-0.575000X0.225000X-0.575000X0*%
%TD*%
%TA.AperFunction,HeatsinkPad*%
%ADD30O,1.000000X1.700000*%
%TD*%
%TA.AperFunction,ViaPad*%
%ADD31C,0.600000*%
%TD*%
%TA.AperFunction,Conductor*%
%ADD32C,0.250000*%
%TD*%
%TA.AperFunction,Conductor*%
%ADD33C,0.300000*%
%TD*%
%TA.AperFunction,Conductor*%
%ADD34C,0.600000*%
%TD*%
%TA.AperFunction,Conductor*%
%ADD35C,0.400000*%
%TD*%
%TA.AperFunction,Conductor*%
%ADD36C,0.500000*%
%TD*%
G04 APERTURE END LIST*
D10*
%TO.P,J4,1,Pin_1*%
%TO.N,/+3V3*%
X154080000Y-82000000D03*
D11*
%TO.P,J4,2,Pin_2*%
%TO.N,GND*%
X151540000Y-82000000D03*
%TO.P,J4,3,Pin_3*%
%TO.N,/CONNECTORS/I2C_SCL*%
X149000000Y-82000000D03*
%TO.P,J4,4,Pin_4*%
%TO.N,/CONNECTORS/I2C_SDA*%
X146460000Y-82000000D03*
%TD*%
D12*
%TO.P,F1,2*%
%TO.N,/POWER_INPUT/+5V_IN*%
X134137500Y-74000000D03*
%TO.P,F1,1*%
X129862500Y-74000000D03*
%TD*%
D13*
%TO.P,U3,32,PB8*%
%TO.N,unconnected-(U3-PB8-Pad32)*%
X148000000Y-63825000D03*
%TO.P,U3,31,PB7*%
%TO.N,/CONNECTORS/I2C_SDA*%
X148800000Y-63825000D03*
%TO.P,U3,30,PB6*%
%TO.N,/CONNECTORS/I2C_SCL*%
X149600000Y-63825000D03*
%TO.P,U3,29,PB5*%
%TO.N,unconnected-(U3-PB5-Pad29)*%
X150400000Y-63825000D03*
%TO.P,U3,28,PB4*%
%TO.N,unconnected-(U3-PB4-Pad28)*%
X151200000Y-63825000D03*
%TO.P,U3,27,PB3*%
%TO.N,unconnected-(U3-PB3-Pad27)*%
X152000000Y-63825000D03*
%TO.P,U3,26,PA15*%
%TO.N,unconnected-(U3-PA15-Pad26)*%
X152800000Y-63825000D03*
%TO.P,U3,25,PA14*%
%TO.N,/CONNECTORS/SWCLK*%
X153600000Y-63825000D03*
D14*
%TO.P,U3,24,PA13*%
%TO.N,/CONNECTORS/SWDIO*%
X154975000Y-65200000D03*
%TO.P,U3,23,PA10/PA12*%
%TO.N,unconnected-(U3-PA10{slash}PA12-Pad23)*%
X154975000Y-66000000D03*
%TO.P,U3,22,PA9/PA11*%
%TO.N,unconnected-(U3-PA9{slash}PA11-Pad22)*%
X154975000Y-66800000D03*
%TO.P,U3,21,NC/PA10*%
%TO.N,unconnected-(U3-NC{slash}PA10-Pad21)*%
X154975000Y-67600000D03*
%TO.P,U3,20,PC6*%
%TO.N,unconnected-(U3-PC6-Pad20)*%
X154975000Y-68400000D03*
%TO.P,U3,19,NC/PA9*%
%TO.N,unconnected-(U3-NC{slash}PA9-Pad19)*%
X154975000Y-69200000D03*
%TO.P,U3,18,PA8*%
%TO.N,unconnected-(U3-PA8-Pad18)*%
X154975000Y-70000000D03*
%TO.P,U3,17,PB2*%
%TO.N,unconnected-(U3-PB2-Pad17)*%
X154975000Y-70800000D03*
D13*
%TO.P,U3,16,PB1*%
%TO.N,unconnected-(U3-PB1-Pad16)*%
X153600000Y-72175000D03*
%TO.P,U3,15,PB0*%
%TO.N,unconnected-(U3-PB0-Pad15)*%
X152800000Y-72175000D03*
%TO.P,U3,14,PA7*%
%TO.N,unconnected-(U3-PA7-Pad14)*%
X152000000Y-72175000D03*
%TO.P,U3,13,PA6*%
%TO.N,unconnected-(U3-PA6-Pad13)*%
X151200000Y-72175000D03*
%TO.P,U3,12,PA5*%
%TO.N,unconnected-(U3-PA5-Pad12)*%
X150400000Y-72175000D03*
%TO.P,U3,11,PA4*%
%TO.N,unconnected-(U3-PA4-Pad11)*%
X149600000Y-72175000D03*
%TO.P,U3,10,PA3*%
%TO.N,/CONNECTORS/UART_RX*%
X148800000Y-72175000D03*
%TO.P,U3,9,PA2*%
%TO.N,/CONNECTORS/UART_TX*%
X148000000Y-72175000D03*
D14*
%TO.P,U3,8,PA1*%
%TO.N,unconnected-(U3-PA1-Pad8)*%
X146625000Y-70800000D03*
%TO.P,U3,7,PA0*%
%TO.N,unconnected-(U3-PA0-Pad7)*%
X146625000Y-70000000D03*
%TO.P,U3,6,PF2*%
%TO.N,/CONNECTORS/NRST*%
X146625000Y-69200000D03*
%TO.P,U3,5,VSS*%
%TO.N,GND*%
X146625000Y-68400000D03*
%TO.P,U3,4,VDD*%
%TO.N,/+3V3*%
X146625000Y-67600000D03*
%TO.P,U3,3,PC15*%
%TO.N,unconnected-(U3-PC15-Pad3)*%
X146625000Y-66800000D03*
%TO.P,U3,2,PC14*%
%TO.N,unconnected-(U3-PC14-Pad2)*%
X146625000Y-66000000D03*
%TO.P,U3,1,PB9*%
%TO.N,unconnected-(U3-PB9-Pad1)*%
X146625000Y-65200000D03*
%TD*%
D15*
%TO.P,TP1,1,1*%
%TO.N,/CONNECTORS/I2C_SDA*%
X143000000Y-80500000D03*
%TD*%
%TO.P,TP2,1,1*%
%TO.N,/CONNECTORS/I2C_SCL*%
X143000000Y-83000000D03*
%TD*%
D16*
%TO.P,U2,14,AP_SDA/AP_SDIO/AP_SDI*%
%TO.N,/CONNECTORS/I2C_SDA*%
X138012500Y-85500000D03*
%TO.P,U2,13,AP_SCL/AP_SCLK*%
%TO.N,/CONNECTORS/I2C_SCL*%
X138012500Y-86000000D03*
%TO.P,U2,12,AP_CS*%
%TO.N,Net-(U2-AP_CS)*%
X138012500Y-86500000D03*
D17*
%TO.P,U2,11,RESV*%
%TO.N,unconnected-(U2-RESV-Pad11)*%
X137750000Y-87262500D03*
%TO.P,U2,10,RESV*%
%TO.N,unconnected-(U2-RESV-Pad10)*%
X137250000Y-87262500D03*
%TO.P,U2,9,INT2/FSYNC/CLKIN*%
%TO.N,unconnected-(U2-INT2{slash}FSYNC{slash}CLKIN-Pad9)*%
X136750000Y-87262500D03*
%TO.P,U2,8,VDD*%
%TO.N,/+3V3*%
X136250000Y-87262500D03*
D16*
%TO.P,U2,7,GND*%
%TO.N,GND*%
X135987500Y-86500000D03*
%TO.P,U2,6,GND*%
X135987500Y-86000000D03*
%TO.P,U2,5,VDDIO*%
%TO.N,/+3V3*%
X135987500Y-85500000D03*
D17*
%TO.P,U2,4,INT1/INT*%
%TO.N,/SENSOR_I2C/IMU_INT*%
X136250000Y-84737500D03*
%TO.P,U2,3,RESV*%
%TO.N,unconnected-(U2-RESV-Pad3)*%
X136750000Y-84737500D03*
%TO.P,U2,2,RESV*%
%TO.N,unconnected-(U2-RESV-Pad2)*%
X137250000Y-84737500D03*
%TO.P,U2,1,AP_SDO/AP_AD0*%
%TO.N,GND*%
X137750000Y-84737500D03*
%TD*%
D18*
%TO.P,R2,2*%
%TO.N,GND*%
X137325000Y-65500000D03*
%TO.P,R2,1*%
%TO.N,Net-(J1-CC2)*%
X135675000Y-65500000D03*
%TD*%
D19*
%TO.P,R3,1*%
%TO.N,/CONNECTORS/I2C_SCL*%
X142500000Y-64175000D03*
%TO.P,R3,2*%
%TO.N,/+3V3*%
X142500000Y-65825000D03*
%TD*%
D20*
%TO.P,R4,1*%
%TO.N,/+3V3*%
X144500000Y-65825000D03*
%TO.P,R4,2*%
%TO.N,/CONNECTORS/I2C_SDA*%
X144500000Y-64175000D03*
%TD*%
D10*
%TO.P,J3,1,Pin_1*%
%TO.N,/CONNECTORS/UART_TX*%
X146460000Y-77000000D03*
D11*
%TO.P,J3,2,Pin_2*%
%TO.N,/CONNECTORS/UART_RX*%
X149000000Y-77000000D03*
%TO.P,J3,3,Pin_3*%
%TO.N,GND*%
X151540000Y-77000000D03*
%TO.P,J3,4,Pin_4*%
%TO.N,/+3V3*%
X154080000Y-77000000D03*
%TD*%
D18*
%TO.P,R6,1*%
%TO.N,/+3V3*%
X144675000Y-72500000D03*
%TO.P,R6,2*%
%TO.N,/CONNECTORS/NRST*%
X146325000Y-72500000D03*
%TD*%
D15*
%TO.P,TP5,1,1*%
%TO.N,GND*%
X125500000Y-81000000D03*
%TD*%
D18*
%TO.P,R1,1*%
%TO.N,Net-(J1-CC1)*%
X135500000Y-63500000D03*
%TO.P,R1,2*%
%TO.N,GND*%
X137150000Y-63500000D03*
%TD*%
D21*
%TO.P,C5,1*%
%TO.N,GND*%
X131500000Y-86775000D03*
%TO.P,C5,2*%
%TO.N,/+3V3*%
X131500000Y-85225000D03*
%TD*%
D22*
%TO.P,C2,1*%
%TO.N,GND*%
X132775000Y-80500000D03*
%TO.P,C2,2*%
%TO.N,/+3V3*%
X131225000Y-80500000D03*
%TD*%
D23*
%TO.P,C4,1*%
%TO.N,/+3V3*%
X134000000Y-85225000D03*
%TO.P,C4,2*%
%TO.N,GND*%
X134000000Y-86775000D03*
%TD*%
D24*
%TO.P,U1,1,VIN*%
%TO.N,/POWER_INPUT/+5V_IN*%
X134500000Y-78950000D03*
%TO.P,U1,2,GND*%
%TO.N,GND*%
X134500000Y-78000000D03*
%TO.P,U1,3,EN*%
%TO.N,/POWER_INPUT/+5V_IN*%
X134500000Y-77050000D03*
%TO.P,U1,4,NC*%
%TO.N,unconnected-(U1-NC-Pad4)*%
X132225000Y-77050000D03*
%TO.P,U1,5,VOUT*%
%TO.N,/+3V3*%
X132225000Y-78950000D03*
%TD*%
D19*
%TO.P,R5,1*%
%TO.N,/+3V3*%
X129500000Y-85175000D03*
%TO.P,R5,2*%
%TO.N,Net-(U2-AP_CS)*%
X129500000Y-86825000D03*
%TD*%
D25*
%TO.P,D1,1,A1*%
%TO.N,/POWER_INPUT/+5V_IN*%
X126500000Y-75150000D03*
%TO.P,D1,2,A2*%
%TO.N,GND*%
X126500000Y-71850000D03*
%TD*%
D21*
%TO.P,C1,1*%
%TO.N,GND*%
X136500000Y-78775000D03*
%TO.P,C1,2*%
%TO.N,/POWER_INPUT/+5V_IN*%
X136500000Y-77225000D03*
%TD*%
D10*
%TO.P,J5,1,Pin_1*%
%TO.N,/CONNECTORS/SWDIO*%
X143960000Y-87000000D03*
D11*
%TO.P,J5,2,Pin_2*%
%TO.N,/CONNECTORS/SWCLK*%
X146500000Y-87000000D03*
%TO.P,J5,3,Pin_3*%
%TO.N,/CONNECTORS/NRST*%
X149040000Y-87000000D03*
%TO.P,J5,4,Pin_4*%
%TO.N,/+3V3*%
X151580000Y-87000000D03*
%TO.P,J5,5,Pin_5*%
%TO.N,GND*%
X154120000Y-87000000D03*
%TD*%
D26*
%TO.P,C6,1*%
%TO.N,GND*%
X143225000Y-70000000D03*
%TO.P,C6,2*%
%TO.N,/+3V3*%
X144775000Y-70000000D03*
%TD*%
D21*
%TO.P,C3,1*%
%TO.N,/+3V3*%
X130500000Y-78775000D03*
%TO.P,C3,2*%
%TO.N,GND*%
X130500000Y-77225000D03*
%TD*%
D15*
%TO.P,TP3,1,1*%
%TO.N,/POWER_INPUT/+5V_IN*%
X138000000Y-74000000D03*
%TD*%
%TO.P,TP4,1,1*%
%TO.N,/+3V3*%
X128500000Y-81000000D03*
%TD*%
D22*
%TO.P,C7,1*%
%TO.N,/+3V3*%
X144775000Y-68000000D03*
%TO.P,C7,2*%
%TO.N,GND*%
X143225000Y-68000000D03*
%TD*%
D27*
%TO.P,J1,A5,CC1*%
%TO.N,Net-(J1-CC1)*%
X129680000Y-69730000D03*
D28*
%TO.P,J1,A9,VBUS*%
%TO.N,/POWER_INPUT/+5V_IN*%
X127660000Y-69730000D03*
D29*
%TO.P,J1,A12,GND*%
%TO.N,GND*%
X126430000Y-69730000D03*
D27*
%TO.P,J1,B5,CC2*%
%TO.N,Net-(J1-CC2)*%
X128680000Y-69730000D03*
D28*
%TO.P,J1,B9,VBUS*%
%TO.N,/POWER_INPUT/+5V_IN*%
X130700000Y-69730000D03*
D29*
%TO.P,J1,B12,GND*%
%TO.N,GND*%
X131930000Y-69730000D03*
D30*
%TO.P,J1,S1,SHIELD*%
%TO.N,unconnected-(J1-SHIELD-PadS1)*%
X133500000Y-69550000D03*
%TO.N,unconnected-(J1-SHIELD-PadS1)_1*%
X133500000Y-65750000D03*
%TO.N,unconnected-(J1-SHIELD-PadS1)_2*%
X124860000Y-69550000D03*
%TO.N,unconnected-(J1-SHIELD-PadS1)_3*%
X124860000Y-65750000D03*
%TD*%
D31*
%TO.N,GND*%
X154000000Y-84500000D03*
%TO.N,/CONNECTORS/NRST*%
X148375000Y-70000000D03*
X147000000Y-71550000D03*
%TO.N,GND*%
X129500000Y-77000000D03*
X143000000Y-71000000D03*
%TO.N,/CONNECTORS/I2C_SDA*%
X139000000Y-85475000D03*
%TO.N,GND*%
X135000000Y-86500000D03*
X132469614Y-87530386D03*
X126430000Y-71000000D03*
X131500000Y-71500000D03*
X133000000Y-78000000D03*
X143000000Y-67000000D03*
X148000000Y-68350000D03*
%TO.N,/CONNECTORS/I2C_SDA*%
X148500000Y-65000000D03*
%TO.N,/CONNECTORS/NRST*%
X149500000Y-69000000D03*
%TO.N,/CONNECTORS/SWCLK*%
X154500000Y-64000000D03*
%TO.N,/CONNECTORS/SWDIO*%
X152929996Y-65929997D03*
%TO.N,GND*%
X138000000Y-84000000D03*
X136750000Y-86250000D03*
%TO.N,/CONNECTORS/I2C_SCL*%
X149500000Y-65000000D03*
X144401000Y-82000000D03*
X139000000Y-86275003D03*
X141644975Y-83655025D03*
%TO.N,/CONNECTORS/I2C_SDA*%
X140815686Y-82684314D03*
X143000000Y-79200000D03*
%TO.N,GND*%
X124500000Y-71850000D03*
%TD*%
D32*
%TO.N,/CONNECTORS/I2C_SDA*%
X143000000Y-79200000D02*
X143000000Y-80500000D01*
%TO.N,/CONNECTORS/I2C_SCL*%
X143500000Y-82500000D02*
X143000000Y-83000000D01*
X143901000Y-82500000D02*
X143500000Y-82500000D01*
X144401000Y-82000000D02*
X143901000Y-82500000D01*
D33*
%TO.N,GND*%
X155281000Y-76502529D02*
X155281000Y-80799000D01*
X154577471Y-75799000D02*
X155281000Y-76502529D01*
X152741000Y-75799000D02*
X154577471Y-75799000D01*
X151540000Y-77000000D02*
X152741000Y-75799000D01*
X152741000Y-80799000D02*
X151540000Y-82000000D01*
X155281000Y-80799000D02*
X152741000Y-80799000D01*
X155281000Y-83219000D02*
X155281000Y-80799000D01*
X154000000Y-84500000D02*
X155281000Y-83219000D01*
X154120000Y-84620000D02*
X154000000Y-84500000D01*
X154120000Y-87000000D02*
X154120000Y-84620000D01*
X132255386Y-87530386D02*
X131500000Y-86775000D01*
X132469614Y-87530386D02*
X132255386Y-87530386D01*
D32*
%TO.N,/CONNECTORS/SWCLK*%
X154325000Y-63825000D02*
X153600000Y-63825000D01*
X154500000Y-64000000D02*
X154325000Y-63825000D01*
%TO.N,/CONNECTORS/SWDIO*%
X153942834Y-65200000D02*
X154975000Y-65200000D01*
X153688068Y-65454766D02*
X153942834Y-65200000D01*
X153545234Y-65454766D02*
X153688068Y-65454766D01*
X153070003Y-65929997D02*
X153545234Y-65454766D01*
X152929996Y-65929997D02*
X153070003Y-65929997D01*
%TO.N,/CONNECTORS/I2C_SCL*%
X138639702Y-86000000D02*
X138012500Y-86000000D01*
X138825997Y-86101000D02*
X138740702Y-86101000D01*
X138740702Y-86101000D02*
X138639702Y-86000000D01*
X139000000Y-86275003D02*
X138825997Y-86101000D01*
D34*
%TO.N,/POWER_INPUT/+5V_IN*%
X135000000Y-79450000D02*
X134500000Y-78950000D01*
X138000000Y-80000000D02*
X135000000Y-80000000D01*
X138000000Y-78500000D02*
X138000000Y-80000000D01*
X135000000Y-80000000D02*
X135000000Y-79450000D01*
X136725000Y-77225000D02*
X138000000Y-78500000D01*
X136500000Y-77225000D02*
X136725000Y-77225000D01*
D35*
%TO.N,/+3V3*%
X139000000Y-82000000D02*
X141500000Y-84500000D01*
X141500000Y-84500000D02*
X153000000Y-84500000D01*
X153000000Y-84500000D02*
X154080000Y-83420000D01*
X154080000Y-83420000D02*
X154080000Y-82920000D01*
D32*
X133199000Y-87234466D02*
X133199000Y-86315534D01*
X133540534Y-87576000D02*
X133199000Y-87234466D01*
X133199000Y-86315534D02*
X134014534Y-85500000D01*
D34*
%TO.N,/POWER_INPUT/+5V_IN*%
X138000000Y-75500000D02*
X138000000Y-74000000D01*
D33*
%TO.N,/+3V3*%
X144775000Y-70000000D02*
X144775000Y-68000000D01*
X144675000Y-70100000D02*
X144775000Y-70000000D01*
X144675000Y-72500000D02*
X144675000Y-70100000D01*
%TO.N,GND*%
X147649000Y-68350000D02*
X147599000Y-68400000D01*
X148000000Y-68350000D02*
X147649000Y-68350000D01*
X147599000Y-68400000D02*
X146625000Y-68400000D01*
%TO.N,/CONNECTORS/NRST*%
X148000000Y-69625000D02*
X148000000Y-69000000D01*
D32*
X148000000Y-69000000D02*
X146825000Y-69000000D01*
D33*
X148375000Y-70000000D02*
X148000000Y-69625000D01*
X147000000Y-71550000D02*
X146325000Y-72225000D01*
X146325000Y-72225000D02*
X146325000Y-72500000D01*
D32*
X146825000Y-69000000D02*
X146625000Y-69200000D01*
X149500000Y-69000000D02*
X148000000Y-69000000D01*
D33*
%TO.N,/+3V3*%
X145875001Y-67600000D02*
X146625000Y-67600000D01*
%TO.N,GND*%
X133238500Y-78238500D02*
X133000000Y-78000000D01*
X133238500Y-80036500D02*
X133238500Y-78238500D01*
X132775000Y-80500000D02*
X133238500Y-80036500D01*
X130275000Y-77000000D02*
X130500000Y-77225000D01*
X129500000Y-77000000D02*
X130275000Y-77000000D01*
%TO.N,/+3V3*%
X144500000Y-66225000D02*
X145875001Y-67600000D01*
X144500000Y-65825000D02*
X144500000Y-66225000D01*
X144961762Y-67600000D02*
X146625000Y-67600000D01*
X143186762Y-65825000D02*
X144961762Y-67600000D01*
X142500000Y-65825000D02*
X143186762Y-65825000D01*
%TO.N,GND*%
X140650000Y-67000000D02*
X143000000Y-67000000D01*
X137150000Y-63500000D02*
X140650000Y-67000000D01*
X138825000Y-67000000D02*
X143000000Y-67000000D01*
X137325000Y-65500000D02*
X138825000Y-67000000D01*
D32*
%TO.N,/CONNECTORS/I2C_SDA*%
X148800000Y-64700000D02*
X148800000Y-63825000D01*
X148500000Y-65000000D02*
X148800000Y-64700000D01*
D33*
%TO.N,GND*%
X143225000Y-70775000D02*
X143000000Y-71000000D01*
X143225000Y-70000000D02*
X143225000Y-70775000D01*
X143000000Y-67000000D02*
X143000000Y-67775000D01*
X143000000Y-67775000D02*
X143225000Y-68000000D01*
D32*
%TO.N,/CONNECTORS/I2C_SCL*%
X142300000Y-83000000D02*
X143000000Y-83000000D01*
X141644975Y-83655025D02*
X142300000Y-83000000D01*
D33*
%TO.N,/+3V3*%
X131950000Y-85175000D02*
X132000000Y-85225000D01*
X129500000Y-85175000D02*
X131950000Y-85175000D01*
%TO.N,Net-(U2-AP_CS)*%
X131524000Y-88849000D02*
X137328000Y-88849000D01*
X138500000Y-87677000D02*
X138500000Y-86987500D01*
X138500000Y-86987500D02*
X138012500Y-86500000D01*
X129500000Y-86825000D02*
X131524000Y-88849000D01*
X137328000Y-88849000D02*
X138500000Y-87677000D01*
D34*
%TO.N,/POWER_INPUT/+5V_IN*%
X129862500Y-74000000D02*
X134137500Y-74000000D01*
X129500000Y-71031000D02*
X129862500Y-71393500D01*
X129500000Y-71031000D02*
X130199000Y-71031000D01*
X129862500Y-71393500D02*
X129862500Y-74000000D01*
D36*
%TO.N,GND*%
X126430000Y-69730000D02*
X126430000Y-71000000D01*
D34*
X131930000Y-71070000D02*
X131500000Y-71500000D01*
X131930000Y-69730000D02*
X131930000Y-71070000D01*
%TO.N,/POWER_INPUT/+5V_IN*%
X130700000Y-70530000D02*
X130700000Y-69730000D01*
X130199000Y-71031000D02*
X130700000Y-70530000D01*
X128220142Y-71031000D02*
X129500000Y-71031000D01*
X127660000Y-70470858D02*
X128220142Y-71031000D01*
X127660000Y-69730000D02*
X127660000Y-70470858D01*
D32*
%TO.N,GND*%
X138000000Y-84487500D02*
X137750000Y-84737500D01*
X138000000Y-84000000D02*
X138000000Y-84487500D01*
X136500000Y-86500000D02*
X135987500Y-86500000D01*
D33*
X136750000Y-86250000D02*
X136551000Y-86051000D01*
X136551000Y-86051000D02*
X135987500Y-86051000D01*
D32*
X136750000Y-86250000D02*
X136500000Y-86500000D01*
D33*
X135725000Y-78000000D02*
X136500000Y-78775000D01*
X134500000Y-78000000D02*
X135725000Y-78000000D01*
X133000000Y-78000000D02*
X134500000Y-78000000D01*
%TO.N,Net-(J1-CC1)*%
X136426000Y-66008774D02*
X136426000Y-64426000D01*
X135483774Y-66951000D02*
X136426000Y-66008774D01*
X131894226Y-66951000D02*
X135483774Y-66951000D01*
X129680000Y-69165226D02*
X131894226Y-66951000D01*
X129680000Y-69730000D02*
X129680000Y-69165226D01*
X136426000Y-64426000D02*
X135500000Y-63500000D01*
%TO.N,Net-(J1-CC2)*%
X134724000Y-64549000D02*
X135675000Y-65500000D01*
X128680000Y-69016504D02*
X133147504Y-64549000D01*
X133147504Y-64549000D02*
X134724000Y-64549000D01*
X128680000Y-69730000D02*
X128680000Y-69016504D01*
D34*
%TO.N,/POWER_INPUT/+5V_IN*%
X138000000Y-76500000D02*
X138000000Y-75500000D01*
X137275000Y-77225000D02*
X138000000Y-76500000D01*
X136500000Y-77225000D02*
X137275000Y-77225000D01*
D36*
X136500000Y-77225000D02*
X134675000Y-77225000D01*
X134675000Y-77225000D02*
X134500000Y-77050000D01*
D34*
X136500000Y-76362500D02*
X136500000Y-77225000D01*
X134137500Y-74000000D02*
X136500000Y-76362500D01*
D36*
X126500000Y-75150000D02*
X128712500Y-75150000D01*
X128712500Y-75150000D02*
X129862500Y-74000000D01*
%TO.N,GND*%
X131930000Y-69730000D02*
X131930000Y-70391292D01*
X126430000Y-71780000D02*
X126500000Y-71850000D01*
X126430000Y-71000000D02*
X126430000Y-71780000D01*
D32*
%TO.N,/CONNECTORS/I2C_SCL*%
X148650999Y-62126000D02*
X144549000Y-62126000D01*
X144549000Y-62126000D02*
X142500000Y-64175000D01*
X149600000Y-63075001D02*
X148650999Y-62126000D01*
X149600000Y-63825000D02*
X149600000Y-63075001D01*
%TO.N,/CONNECTORS/I2C_SDA*%
X145926000Y-62749000D02*
X144500000Y-64175000D01*
X148315274Y-62749000D02*
X145926000Y-62749000D01*
X148800000Y-63233726D02*
X148315274Y-62749000D01*
X148800000Y-63825000D02*
X148800000Y-63233726D01*
%TO.N,/CONNECTORS/I2C_SCL*%
X149500000Y-63925000D02*
X149600000Y-63825000D01*
X149500000Y-65000000D02*
X149500000Y-63925000D01*
%TO.N,/CONNECTORS/I2C_SDA*%
X139000000Y-85475000D02*
X138037500Y-85475000D01*
X138037500Y-85475000D02*
X138012500Y-85500000D01*
D33*
%TO.N,GND*%
X124500000Y-80000000D02*
X124500000Y-71850000D01*
X125500000Y-81000000D02*
X124500000Y-80000000D01*
D32*
X154000000Y-86880000D02*
X154120000Y-87000000D01*
%TO.N,/CONNECTORS/UART_RX*%
X149000000Y-72375000D02*
X148800000Y-72175000D01*
X149000000Y-77000000D02*
X149000000Y-72375000D01*
%TO.N,/CONNECTORS/UART_TX*%
X148000000Y-75460000D02*
X148000000Y-72175000D01*
X146460000Y-77000000D02*
X148000000Y-75460000D01*
%TO.N,/CONNECTORS/NRST*%
X146500000Y-72675000D02*
X146325000Y-72500000D01*
D36*
%TO.N,/POWER_INPUT/+5V_IN*%
X130700000Y-69800000D02*
X130500000Y-70000000D01*
X130700000Y-69730000D02*
X130700000Y-69800000D01*
D35*
X127830000Y-69998093D02*
X127660000Y-69828093D01*
X127830000Y-70000000D02*
X127830000Y-69998093D01*
X127660000Y-69828093D02*
X127660000Y-69730000D01*
%TO.N,/+3V3*%
X145374000Y-68012238D02*
X145786238Y-67600000D01*
X145374000Y-75626000D02*
X145374000Y-68012238D01*
X142500000Y-78500000D02*
X145374000Y-75626000D01*
X145786238Y-67600000D02*
X146625000Y-67600000D01*
D32*
%TO.N,/CONNECTORS/I2C_SDA*%
X143000000Y-80500000D02*
X140815686Y-82684314D01*
D35*
%TO.N,/+3V3*%
X142500000Y-78500000D02*
X152580000Y-78500000D01*
X138250000Y-82750000D02*
X142500000Y-78500000D01*
X152580000Y-78500000D02*
X154080000Y-77000000D01*
X150080000Y-85500000D02*
X151580000Y-87000000D01*
X141000000Y-85500000D02*
X150080000Y-85500000D01*
X138250000Y-82750000D02*
X141000000Y-85500000D01*
X137186120Y-83813880D02*
X134813880Y-83813880D01*
X138250000Y-82750000D02*
X137186120Y-83813880D01*
X151500000Y-86920000D02*
X151580000Y-87000000D01*
D32*
X135987500Y-85500000D02*
X134275000Y-85500000D01*
D33*
X133505178Y-87576000D02*
X132826000Y-86896822D01*
X132826000Y-86051000D02*
X132000000Y-85225000D01*
X135936500Y-87576000D02*
X133505178Y-87576000D01*
X136250000Y-87262500D02*
X135936500Y-87576000D01*
X132826000Y-86896822D02*
X132826000Y-86051000D01*
D35*
X134813880Y-83813880D02*
X135624000Y-84624000D01*
X135624000Y-84624000D02*
X135624000Y-85374000D01*
X133256886Y-83813880D02*
X134813880Y-83813880D01*
X128500000Y-81000000D02*
X131313880Y-83813880D01*
D32*
%TO.N,/CONNECTORS/I2C_SDA*%
X143000000Y-80500000D02*
X143000000Y-80512500D01*
%TO.N,/CONNECTORS/I2C_SCL*%
X143176000Y-83176000D02*
X143000000Y-83000000D01*
X147824000Y-83176000D02*
X143176000Y-83176000D01*
X149000000Y-82000000D02*
X147824000Y-83176000D01*
%TO.N,/CONNECTORS/I2C_SDA*%
X143000000Y-80500000D02*
X143200000Y-80500000D01*
X144960000Y-80500000D02*
X143000000Y-80500000D01*
X146460000Y-82000000D02*
X144960000Y-80500000D01*
D35*
%TO.N,/+3V3*%
X133256886Y-83813880D02*
X131313880Y-83813880D01*
X128500000Y-81000000D02*
X129000000Y-81500000D01*
X128500000Y-81000000D02*
X130725000Y-81000000D01*
X130725000Y-81000000D02*
X131225000Y-80500000D01*
%TO.N,GND*%
X124500000Y-71850000D02*
X126500000Y-71850000D01*
D33*
X134000000Y-86775000D02*
X134225000Y-86775000D01*
D35*
%TO.N,/+3V3*%
X130675000Y-78950000D02*
X130500000Y-78775000D01*
X132225000Y-78950000D02*
X130675000Y-78950000D01*
X132225000Y-79500000D02*
X131225000Y-80500000D01*
X132225000Y-78950000D02*
X132225000Y-79500000D01*
D32*
%TO.N,GND*%
X136500000Y-78485466D02*
X136500000Y-78775000D01*
X136500000Y-78775000D02*
X136500000Y-78660178D01*
%TO.N,/POWER_INPUT/+5V_IN*%
X129862500Y-73977202D02*
X129862500Y-74000000D01*
D36*
%TO.N,/CONNECTORS/SWDIO*%
X155000000Y-65175000D02*
X154975000Y-65200000D01*
D33*
%TO.N,GND*%
X135000000Y-86500000D02*
X134275000Y-86500000D01*
X134275000Y-86500000D02*
X134000000Y-86775000D01*
%TD*%
M02*
